{"glyphs":{"0":{"ha":822,"x_min":168,"x_max":1053,"o":"m 818 586 q 793 607 818 607 q 731 564 768 607 q 693 456 693 521 q 779 501 742 465 q 818 586 817 536 m 754 376 l 771 378 q 778 372 778 378 q 765 360 778 365 q 730 356 751 356 q 689 378 708 356 q 668 439 669 400 l 663 439 q 581 472 608 439 q 551 560 553 506 q 618 728 554 649 q 764 848 682 807 q 903 889 846 889 q 990 868 960 889 q 1033 814 1021 847 q 1053 706 1053 756 q 951 372 1053 544 q 694 87 850 200 q 389 -26 538 -26 q 222 41 275 -26 q 168 207 168 108 q 183 316 168 260 q 214 403 199 372 l 229 433 q 312 565 265 506 q 400 657 358 624 q 532 742 482 724 l 553 750 q 571 754 565 754 q 576 751 576 754 q 562 738 576 746 q 535 722 547 729 q 485 685 522 714 q 412 619 447 656 q 331 517 376 582 q 251 375 286 451 q 206 194 206 283 q 253 50 206 106 q 394 -6 301 -6 q 677 119 526 -6 q 926 415 828 243 q 1024 726 1024 586 q 915 867 1024 867 q 778 826 854 867 q 644 706 703 785 q 585 540 585 628 q 664 453 585 453 l 668 453 q 716 576 669 521 q 810 632 763 632 q 847 593 842 632 q 802 503 847 553 q 693 442 757 453 q 754 376 699 376 z "},"1":{"ha":503,"x_min":72,"x_max":800,"o":"m 288 619 q 319 594 288 594 q 378 630 350 594 q 406 694 406 665 q 397 740 406 724 q 288 619 288 685 m 182 106 q 123 13 133 35 q 92 -10 113 -10 q 72 4 72 -10 q 74 14 72 10 q 278 303 125 108 q 558 644 432 497 l 686 793 q 696 811 696 803 q 675 819 696 819 q 517 783 632 819 l 479 772 q 422 751 444 761 q 432 701 432 732 q 398 620 432 671 q 309 569 364 569 q 254 615 254 569 q 385 757 254 697 q 338 775 364 775 q 301 772 313 775 q 286 768 289 768 l 279 772 q 294 792 279 788 q 344 796 308 796 q 408 768 381 796 q 692 843 517 814 q 760 868 731 844 q 785 876 771 876 q 800 865 800 876 q 781 841 800 861 q 702 756 761 821 q 481 495 643 692 q 182 106 319 299 z "},"2":{"ha":746,"x_min":54,"x_max":926,"o":"m 585 156 q 608 132 585 132 q 661 161 636 132 q 690 231 686 190 q 683 264 690 246 q 613 221 642 249 q 585 156 585 193 m 679 833 q 483 719 560 808 q 406 566 406 629 q 457 503 406 503 q 623 588 550 503 q 696 764 696 674 q 679 833 696 804 m 522 869 q 579 894 522 892 l 589 894 q 697 854 661 894 q 745 858 722 858 q 787 856 768 858 q 843 842 806 853 q 903 803 881 832 q 926 741 926 774 q 919 683 926 708 q 886 613 911 658 q 794 507 861 567 q 625 388 726 447 q 466 287 500 306 q 410 253 432 268 q 365 225 388 239 q 313 191 343 211 q 258 153 283 171 q 206 115 232 135 q 161 78 179 94 q 119 31 119 42 q 147 13 119 15 q 317 26 240 26 l 540 26 q 711 61 631 26 q 785 122 757 81 q 813 219 813 163 q 756 279 813 276 q 710 274 732 279 q 715 243 715 257 q 678 150 715 192 q 601 108 640 108 q 547 150 547 108 q 583 225 547 186 q 672 283 619 264 q 633 309 654 307 q 611 319 611 311 q 631 326 610 326 l 636 326 q 700 292 678 324 q 744 297 721 297 q 787 293 768 297 q 826 269 806 289 q 847 217 847 250 q 763 63 847 126 q 569 0 679 0 l 296 4 q 118 -14 197 4 l 92 -21 q 72 -24 75 -24 q 54 -1 54 -24 l 64 28 q 220 163 103 81 q 436 303 338 246 l 533 360 q 812 576 735 488 q 889 740 889 665 q 750 840 889 840 q 710 838 724 840 q 731 767 729 807 q 645 570 729 657 q 464 483 561 483 q 399 505 424 483 q 374 571 374 526 q 458 739 374 654 q 665 849 543 824 q 594 876 639 874 l 589 876 l 543 868 q 532 864 536 864 l 522 867 l 522 869 z "},"3":{"ha":694,"x_min":111,"x_max":904,"o":"m 522 531 q 468 524 488 531 q 447 508 449 517 l 444 501 q 524 468 446 468 q 663 486 601 468 q 522 531 600 531 m 468 267 q 378 235 413 267 q 343 179 343 203 q 385 150 343 150 q 457 185 426 150 q 488 264 488 219 l 488 265 q 468 267 481 267 m 511 261 q 465 169 506 210 q 369 128 424 128 q 315 175 315 129 q 369 259 315 229 q 471 289 424 289 q 485 288 479 289 q 446 343 476 321 q 364 365 415 365 q 209 301 271 365 q 147 164 147 236 q 197 47 147 92 q 340 3 246 3 q 507 31 435 3 q 620 99 579 58 q 689 189 661 139 q 733 345 733 271 q 679 471 733 419 q 525 446 601 446 q 434 461 468 446 q 400 497 400 476 q 431 533 400 517 q 511 550 463 550 q 686 494 613 550 q 777 548 739 514 q 833 618 815 582 q 865 726 865 686 q 844 797 865 767 q 792 839 824 826 q 687 857 739 857 q 588 844 635 857 q 517 813 540 831 q 481 772 494 796 q 461 711 461 740 q 544 649 461 649 q 647 697 614 649 q 661 726 656 708 q 678 744 667 744 q 690 719 690 744 q 678 692 690 711 q 653 661 667 674 q 540 631 614 631 q 456 654 486 631 q 426 713 426 678 q 495 824 426 774 q 683 875 564 875 q 813 851 763 875 q 904 717 904 807 q 886 640 904 682 q 739 497 849 560 q 703 481 725 489 q 750 423 726 458 q 774 324 774 388 q 647 90 774 194 q 344 -15 519 -15 q 169 35 228 -15 q 111 165 111 85 q 181 315 111 244 q 358 385 251 385 q 470 356 432 385 q 513 285 508 328 l 551 271 q 568 251 568 261 q 558 242 568 242 l 543 247 q 511 261 519 258 z "},"4":{"ha":810,"x_min":63,"x_max":1138,"o":"m 869 389 q 840 406 869 406 q 775 371 811 406 q 728 292 739 336 q 869 389 869 318 m 344 13 q 325 -6 336 -6 q 306 8 308 -6 l 306 14 l 310 32 q 469 250 386 147 l 375 250 l 101 257 q 63 275 63 257 q 81 304 63 286 q 278 477 168 392 q 481 622 388 563 q 783 797 678 746 l 831 819 q 1036 871 935 871 q 1138 790 1138 871 q 1067 673 1138 722 q 920 624 997 624 q 843 669 843 624 q 860 708 843 689 q 904 739 876 726 q 956 751 932 751 q 981 741 981 751 q 971 729 981 731 q 913 713 926 721 q 886 670 886 694 q 937 646 886 646 q 1049 685 988 646 q 1111 787 1111 725 q 1024 849 1111 849 q 938 836 985 849 q 865 811 892 824 l 839 799 q 698 724 796 779 q 522 616 600 668 q 341 483 443 564 q 157 319 239 403 q 142 292 142 304 q 161 279 142 281 q 411 272 276 272 l 488 272 q 700 511 599 410 l 732 543 q 758 552 742 553 q 774 545 774 551 q 764 529 774 539 q 532 274 653 421 q 697 288 635 278 q 756 385 711 340 q 865 431 801 431 q 906 397 906 431 q 725 271 906 303 l 725 264 q 772 200 725 208 q 776 194 776 199 q 756 185 776 185 q 715 206 736 185 q 694 263 694 226 l 694 265 q 515 251 622 256 q 344 13 410 121 z "},"5":{"ha":656,"x_min":136,"x_max":1104,"o":"m 1065 869 q 1028 894 1065 894 q 955 870 992 894 q 901 807 918 846 q 1065 869 1065 817 m 678 142 q 650 112 678 142 q 536 42 622 82 q 371 3 450 3 q 247 19 292 3 q 182 61 203 36 q 138 150 142 108 l 136 167 q 194 306 136 246 q 322 392 251 367 q 447 418 393 418 q 531 408 500 418 q 577 387 563 399 q 600 358 592 375 q 611 317 611 336 q 585 235 611 269 q 519 188 560 201 q 401 163 449 163 q 331 178 353 163 q 310 213 310 193 q 325 233 310 233 q 342 222 335 233 q 383 193 353 199 q 421 188 413 188 q 539 228 499 188 q 579 313 579 268 q 458 401 579 401 q 256 326 338 401 q 175 163 175 250 q 197 85 175 117 q 254 42 219 54 q 356 24 310 24 q 636 144 508 24 q 764 407 764 264 q 705 538 764 493 q 568 583 646 583 q 489 573 529 583 q 428 553 449 563 l 407 542 q 384 533 390 533 q 378 542 378 533 l 382 557 l 613 836 q 633 843 621 843 q 857 807 722 807 l 868 807 q 935 885 888 853 q 1044 918 983 918 q 1104 879 1104 918 q 894 788 1104 796 q 892 758 892 768 q 910 714 892 725 q 915 704 915 710 q 908 698 915 699 q 898 698 901 697 q 887 702 894 699 q 874 711 879 706 q 858 752 858 726 q 861 786 858 778 l 847 786 q 664 799 749 786 l 635 803 q 621 793 631 803 q 472 613 500 651 q 469 601 469 607 q 475 596 469 596 q 498 599 481 596 q 556 603 515 603 q 636 593 597 603 q 713 562 675 583 q 775 499 751 540 q 799 398 799 457 q 766 270 799 339 q 678 142 733 201 z "},"6":{"ha":647,"x_min":104,"x_max":907,"o":"m 572 307 q 542 331 572 331 q 473 283 511 331 q 435 171 435 235 q 531 228 490 183 q 572 307 572 274 m 401 146 q 308 196 338 146 q 297 243 297 215 q 356 389 297 324 q 484 484 414 454 q 622 514 554 514 q 729 472 689 514 q 769 364 769 429 q 739 232 769 299 q 654 107 708 165 q 515 11 600 49 q 328 -26 431 -26 q 165 35 225 -26 q 104 190 104 97 q 162 397 104 283 q 311 613 219 511 q 532 783 403 714 q 790 853 661 853 q 854 840 826 853 q 907 777 907 817 q 885 709 907 738 q 833 667 864 681 q 748 642 776 642 q 719 646 719 642 q 731 654 719 651 q 824 693 790 664 q 863 746 858 722 l 867 769 q 847 813 867 797 q 781 833 819 833 q 483 720 636 833 q 234 453 329 607 q 139 178 139 299 q 195 45 139 100 q 347 -10 251 -10 q 537 56 442 -10 q 685 210 632 121 q 738 364 738 299 q 606 497 738 497 q 422 417 517 497 q 328 233 328 338 q 403 168 328 168 l 403 171 q 449 293 403 226 q 557 360 496 360 q 603 321 603 360 q 551 222 603 278 q 436 150 500 165 q 449 123 442 131 q 456 109 456 115 q 451 103 456 103 q 439 106 446 103 q 422 119 432 108 q 406 146 411 129 l 401 146 z "},"7":{"ha":629,"x_min":104,"x_max":1071,"o":"m 831 765 q 924 753 876 753 q 1003 770 971 753 q 1035 813 1035 788 q 997 839 1035 839 q 831 765 940 839 m 310 456 q 347 479 319 479 l 458 479 q 767 754 628 656 q 681 786 746 761 q 479 833 560 833 q 340 790 399 833 q 281 694 281 747 q 357 633 281 633 q 428 654 396 633 q 475 697 461 675 l 489 718 q 501 729 494 729 q 507 717 507 729 q 460 649 506 683 q 364 614 415 614 q 246 700 246 614 q 317 805 246 757 q 513 853 389 853 q 713 806 596 853 q 797 774 771 782 q 999 860 926 860 q 1071 819 1071 860 q 1019 753 1071 775 q 912 731 968 731 q 800 744 856 731 q 503 479 661 644 l 624 479 q 636 472 636 478 q 631 458 636 465 q 608 447 619 447 l 472 447 q 185 78 297 256 q 147 3 161 36 q 122 -31 132 -31 q 104 1 108 -31 q 199 172 104 42 q 428 447 293 303 l 325 447 q 310 456 310 447 z "},"8":{"ha":694,"x_min":119,"x_max":992,"o":"m 556 247 q 486 257 528 257 q 403 229 444 257 q 361 177 361 201 q 408 153 361 153 q 495 179 454 153 q 556 247 536 206 m 949 765 q 906 831 949 808 q 785 853 864 853 q 629 810 707 853 q 551 697 551 767 q 633 554 551 626 q 658 533 643 546 q 863 626 776 567 q 949 765 949 686 m 615 522 q 508 692 508 611 q 604 823 508 772 q 795 874 700 874 q 941 849 890 874 q 992 776 992 824 q 899 623 992 692 q 676 515 807 554 q 808 289 808 388 q 781 197 808 249 q 702 92 753 144 q 563 4 651 40 q 371 -32 475 -32 q 275 -19 324 -32 q 197 12 226 -7 q 143 68 167 31 q 119 157 119 106 q 217 344 119 267 q 446 421 315 421 q 560 390 522 421 q 597 311 597 360 q 585 257 597 283 l 617 229 q 624 210 624 219 q 619 194 624 200 q 613 189 615 189 l 606 199 q 575 236 596 222 q 499 160 549 190 q 388 131 449 131 q 328 167 328 131 q 381 240 328 203 q 506 278 435 278 q 563 268 536 278 q 568 301 568 283 q 535 374 568 346 q 440 403 503 403 q 327 384 376 403 q 247 338 278 365 q 196 275 217 310 q 158 158 158 214 q 185 63 158 101 q 253 11 211 25 q 376 -14 322 -14 q 652 83 538 -14 q 767 277 767 179 q 633 504 767 375 q 494 488 558 488 q 471 503 471 489 l 471 507 q 478 511 472 511 l 511 508 q 615 522 556 508 z "},"9":{"ha":750,"x_min":164,"x_max":947,"o":"m 549 568 l 549 567 q 569 543 549 543 q 599 554 582 543 q 649 642 649 589 q 631 690 649 672 q 549 568 549 643 m 547 719 q 585 733 547 733 q 642 721 622 733 q 724 739 681 739 q 804 644 804 739 q 701 441 804 529 q 472 353 597 353 q 324 467 354 353 q 317 527 317 492 q 342 622 317 563 q 415 740 368 681 q 543 838 461 799 q 721 878 625 878 q 882 827 817 878 q 947 661 947 776 q 851 347 947 513 q 603 67 754 181 q 310 -46 453 -46 q 199 -6 233 -46 q 164 73 164 33 q 188 143 164 113 q 233 174 213 174 q 254 160 254 174 l 246 149 q 218 128 229 143 q 199 67 199 103 q 213 11 199 32 q 249 -17 226 -10 q 310 -29 283 -29 q 497 25 403 -29 q 665 163 592 79 q 796 342 738 246 q 885 528 854 439 q 917 676 917 617 q 860 814 917 769 q 728 858 804 858 q 584 831 651 858 q 475 760 517 803 q 406 667 433 718 q 353 511 353 575 q 383 409 353 447 q 479 371 414 371 q 683 463 588 371 q 778 657 778 556 q 718 719 778 719 q 660 706 692 719 q 676 645 676 685 q 640 560 676 606 q 554 515 603 515 q 522 552 522 515 q 547 632 522 589 q 613 704 571 675 q 575 713 590 713 q 554 711 560 713 q 547 719 547 714 z "}," ":{"ha":181,"x_min":0,"x_max":0,"o":""},"!":{"ha":376,"x_min":122,"x_max":735,"o":"m 708 851 q 735 831 735 849 q 676 783 717 821 q 590 694 635 746 q 310 315 472 561 q 250 222 261 244 q 226 179 232 179 q 213 193 213 179 q 214 203 213 199 q 368 442 265 297 q 547 683 471 586 l 625 779 q 708 851 685 851 m 122 14 q 135 41 122 26 q 158 56 147 56 q 174 49 168 56 q 181 31 181 43 q 166 7 181 18 q 142 -4 151 -4 q 122 14 122 -4 z "},"\"":{"ha":288,"x_min":246,"x_max":475,"o":"m 417 604 q 429 631 417 617 q 452 646 442 646 q 469 640 463 646 q 475 626 475 633 q 435 548 475 582 q 350 511 396 514 q 335 518 335 511 q 351 525 335 525 q 400 542 368 525 q 438 586 432 560 q 417 604 417 586 m 328 604 q 340 631 328 617 q 363 646 353 646 q 380 640 374 646 q 386 626 386 633 q 347 548 386 582 q 261 511 307 514 q 246 517 246 511 q 263 524 246 524 q 311 542 279 525 q 349 586 343 560 q 328 604 328 586 z "},"#":{"ha":681,"x_min":217,"x_max":931,"o":"m 550 496 l 507 415 l 617 415 l 660 496 l 550 496 m 268 504 q 306 528 278 528 l 533 528 l 668 781 q 679 788 674 788 q 688 781 685 788 q 692 769 692 775 l 692 764 l 686 749 l 568 528 l 678 528 l 813 781 q 824 788 818 788 q 833 781 829 788 q 836 769 836 775 l 836 764 l 831 749 l 713 528 l 918 528 q 931 520 931 526 q 925 507 931 514 q 903 496 914 496 l 694 496 l 651 415 l 867 415 q 879 408 879 414 q 872 394 879 401 q 853 383 863 383 l 635 383 l 497 125 q 485 115 490 115 q 475 135 475 115 q 481 160 475 154 l 600 383 l 490 383 l 353 125 q 340 115 346 115 q 331 135 331 115 q 336 160 331 154 l 456 383 l 232 383 q 217 392 217 383 q 254 415 226 415 l 472 415 l 515 496 l 283 496 q 268 504 268 496 z "},"$":{"ha":694,"x_min":119,"x_max":992,"o":"m 633 554 l 654 536 l 854 847 q 800 853 832 853 q 629 810 707 853 q 551 697 551 767 q 633 554 551 626 m 767 283 q 657 481 767 368 l 339 -11 q 376 -14 369 -14 q 652 83 538 -14 q 767 283 767 179 m 936 915 l 903 863 q 992 776 992 836 q 972 736 992 736 q 956 745 964 736 q 949 765 949 754 q 888 839 949 815 l 678 514 q 808 289 808 388 q 781 197 808 249 q 702 92 753 144 q 563 4 651 40 q 371 -32 475 -32 q 328 -29 367 -32 l 290 -87 q 278 -94 283 -94 l 272 -94 q 262 -84 261 -93 q 266 -69 263 -75 q 274 -56 269 -62 q 279 -46 278 -49 l 293 -24 q 119 157 119 11 q 217 344 119 267 q 446 421 315 421 q 465 410 465 421 q 421 403 465 403 q 327 384 376 403 q 247 338 278 365 q 196 275 217 310 q 158 149 158 214 q 201 44 158 83 q 304 -6 244 6 l 633 504 l 607 529 q 508 688 508 618 q 604 823 508 772 q 814 874 700 874 q 868 869 843 874 l 921 950 q 929 956 925 956 q 942 939 942 956 q 936 915 942 922 z "},"%":{"ha":1186,"x_min":219,"x_max":1158,"o":"m 979 232 q 997 281 981 263 q 1026 299 1014 299 q 1038 287 1038 299 q 1020 256 1038 275 q 979 232 1003 236 m 493 633 q 511 682 494 664 q 540 700 528 700 q 551 688 551 700 q 534 657 551 676 q 493 633 517 638 m 1014 928 l 368 -75 q 356 -82 361 -82 l 350 -82 q 340 -72 339 -81 q 344 -56 340 -62 q 351 -43 347 -50 q 357 -33 356 -36 l 999 963 q 1007 968 1003 968 q 1019 951 1019 968 q 1014 928 1019 935 m 1033 251 q 1044 264 1033 251 q 1056 296 1056 276 q 1035 315 1056 315 q 992 290 1014 315 q 967 232 971 265 q 922 276 922 232 q 973 373 922 321 q 1089 425 1024 425 q 1131 364 1131 425 q 1092 219 1131 303 q 983 69 1054 136 q 833 3 911 3 q 740 89 740 3 q 795 247 740 158 q 908 365 850 335 q 921 375 921 371 q 917 376 921 376 q 908 375 913 376 q 772 262 839 356 q 706 88 706 168 q 823 -14 706 -14 q 1049 107 940 -14 q 1158 353 1158 228 q 1090 444 1158 444 q 972 395 1033 444 q 907 279 910 346 q 964 219 910 219 l 967 219 q 1001 176 967 176 q 1021 185 1021 176 q 1018 188 1021 188 l 1010 188 q 979 221 979 188 q 1033 251 1011 226 m 547 653 q 558 665 547 653 q 569 697 569 678 q 549 717 569 717 q 506 692 528 717 q 481 633 485 667 q 436 678 436 633 q 487 774 436 722 q 603 826 538 826 q 644 765 644 826 q 606 621 644 704 q 497 471 568 538 q 347 404 425 404 q 254 490 254 404 q 309 648 254 560 q 422 767 364 736 q 435 776 435 772 q 431 778 435 778 q 422 776 426 778 q 286 663 353 757 q 219 489 219 569 q 337 388 219 388 q 563 508 454 388 q 672 754 672 629 q 604 846 672 846 q 485 797 547 846 q 421 681 424 747 q 478 621 424 621 l 481 621 q 515 578 481 578 q 535 586 535 578 q 532 589 535 589 l 524 589 q 493 622 493 589 q 547 653 525 628 z "},"&":{"ha":789,"x_min":71,"x_max":936,"o":"m 501 572 q 623 529 547 529 q 699 556 699 529 q 604 583 699 583 q 501 572 558 583 m 750 814 q 764 805 750 814 q 794 794 778 796 q 834 792 810 792 q 877 801 858 792 q 897 821 896 811 l 900 831 q 790 869 897 869 q 715 864 763 869 q 750 814 722 832 m 915 356 q 924 331 924 347 q 914 315 924 315 q 901 325 906 315 q 833 354 882 354 l 774 346 q 763 338 763 340 q 771 324 763 336 q 779 281 779 311 q 646 67 779 164 q 357 -29 513 -29 q 209 -6 269 -29 q 121 56 149 17 q 71 205 71 124 q 106 352 71 286 q 200 461 142 418 q 451 579 307 542 q 418 671 418 617 q 494 801 418 744 q 686 876 571 857 q 699 919 686 901 q 725 944 713 938 l 738 950 l 743 951 l 747 947 l 742 939 q 714 889 719 925 l 714 881 q 775 886 749 886 l 810 886 q 921 860 885 886 q 936 835 936 849 q 822 774 936 779 q 688 860 699 775 q 522 785 582 840 q 463 676 463 729 q 488 588 463 622 q 608 603 554 603 q 700 591 663 603 q 738 560 738 579 q 706 524 738 535 q 638 513 675 513 q 467 564 531 513 q 236 458 335 532 q 150 353 182 418 q 118 207 118 289 q 160 69 118 131 q 235 12 183 33 q 364 -10 286 -10 q 526 23 442 -10 q 674 125 611 56 q 738 282 738 194 q 707 325 738 325 q 621 299 689 325 q 488 274 553 274 q 422 310 422 274 q 433 328 422 328 q 440 324 439 328 q 514 301 457 301 q 685 341 571 301 q 846 381 800 381 q 915 356 893 381 z "},"'":{"ha":199,"x_min":246,"x_max":386,"o":"m 328 604 q 340 631 328 617 q 363 646 353 646 q 380 640 374 646 q 386 626 386 633 q 347 548 386 582 q 261 511 307 514 q 246 518 246 511 q 263 525 246 525 q 311 542 279 525 q 349 586 343 560 q 328 604 328 586 z "},"(":{"ha":293,"x_min":110,"x_max":788,"o":"m 176 -335 q 110 42 110 -135 q 158 374 110 219 q 282 643 207 529 q 449 850 357 757 q 778 1074 619 1022 l 781 1074 q 788 1069 788 1074 q 774 1056 788 1063 q 326 663 507 943 q 146 33 146 383 q 201 -333 146 -146 q 203 -347 203 -337 q 193 -356 203 -356 q 176 -335 183 -356 z "},")":{"ha":539,"x_min":-112,"x_max":565,"o":"m 499 1054 q 565 677 565 854 q 517 345 565 500 q 393 76 468 190 q 226 -131 318 -37 q -103 -354 56 -303 l -106 -354 q -112 -350 -112 -354 q -99 -336 -112 -343 q 349 56 168 -224 q 529 686 529 336 q 474 1053 529 865 q 472 1066 472 1057 q 482 1075 472 1075 q 499 1054 492 1075 z "},"*":{"ha":339,"x_min":125,"x_max":321,"o":"m 306 344 l 228 354 q 253 290 253 293 q 240 281 253 281 q 226 286 228 281 l 219 353 l 164 285 q 148 278 157 278 q 139 288 139 278 q 143 296 139 292 l 211 354 l 133 344 q 125 353 125 344 q 131 363 125 356 q 143 369 136 369 l 215 361 l 197 422 q 221 438 197 438 q 228 432 228 438 l 224 363 l 281 432 q 297 438 288 438 q 306 429 306 438 q 303 422 306 425 l 231 361 l 314 369 q 321 363 321 369 q 306 344 321 344 z "},"+":{"ha":501,"x_min":140,"x_max":610,"o":"m 140 392 q 178 415 150 415 l 353 415 l 467 606 q 478 613 472 613 q 490 589 488 613 l 485 574 l 390 415 l 597 415 q 610 408 610 414 q 603 394 610 401 q 583 383 593 383 l 372 383 l 269 210 q 257 200 263 200 q 247 219 247 200 q 253 244 247 239 l 335 383 l 156 383 q 140 392 140 383 z "},",":{"ha":208,"x_min":3,"x_max":143,"o":"m 85 11 q 97 38 85 24 q 120 53 110 53 q 137 47 131 53 q 143 33 143 40 q 103 -45 143 -11 q 18 -82 64 -79 q 3 -76 3 -82 q 19 -69 3 -69 q 68 -51 36 -68 q 106 -7 100 -33 q 85 11 85 -7 z "},"-":{"ha":767,"x_min":140,"x_max":721,"o":"m 140 122 q 178 146 150 146 l 708 146 q 721 138 721 144 q 714 125 721 132 q 694 114 704 114 l 156 114 q 140 122 140 114 z "},".":{"ha":200,"x_min":93,"x_max":151,"o":"m 93 11 q 106 38 93 24 q 128 53 118 53 q 145 47 139 53 q 151 28 151 40 q 137 4 151 15 q 113 -7 122 -7 q 93 11 93 -7 z "},"/":{"ha":582,"x_min":-3,"x_max":1204,"o":"m 11 -46 q -3 -41 -3 -46 q 3 -32 -3 -36 q 297 219 8 -28 q 1182 963 1153 951 q 1196 965 1188 965 q 1204 960 1204 965 q 1175 934 1204 954 q 616 460 1146 914 q 11 -46 86 6 z "},":":{"ha":261,"x_min":93,"x_max":246,"o":"m 188 208 q 200 235 188 221 q 223 250 213 250 q 240 244 233 250 q 246 225 246 238 q 231 201 246 213 q 207 190 217 190 q 188 208 188 190 m 93 11 q 106 38 93 24 q 128 53 118 53 q 145 47 139 53 q 151 28 151 40 q 137 4 151 15 q 113 -7 122 -7 q 93 11 93 -7 z "},";":{"ha":261,"x_min":3,"x_max":246,"o":"m 188 208 q 200 235 188 221 q 223 250 213 250 q 240 244 233 250 q 246 225 246 238 q 231 201 246 213 q 207 190 217 190 q 188 208 188 190 m 143 33 q 137 47 143 40 q 120 53 131 53 q 97 38 110 53 q 85 11 85 24 q 106 -7 85 -7 q 68 -51 100 -33 q 19 -69 36 -68 q 3 -76 3 -69 q 18 -82 3 -82 q 103 -45 64 -79 q 143 33 143 -11 z "},"<":{"ha":403,"x_min":197,"x_max":535,"o":"m 458 231 q 465 222 465 226 q 454 217 465 218 q 424 227 438 214 q 350 283 410 240 q 197 403 197 394 q 240 442 197 418 q 445 566 381 518 q 518 614 510 614 q 535 601 535 614 q 510 574 535 594 q 235 407 485 554 l 458 231 z "},"=":{"ha":544,"x_min":140,"x_max":653,"o":"m 183 431 q 221 454 193 454 l 640 454 q 653 447 653 453 q 647 433 653 440 q 625 422 636 422 l 199 422 q 183 431 183 422 m 140 351 q 178 375 150 375 l 597 375 q 610 367 610 374 q 603 354 610 361 q 583 343 593 343 l 156 343 q 140 351 140 343 z "},">":{"ha":446,"x_min":244,"x_max":582,"o":"m 321 600 q 314 608 314 604 q 325 614 314 613 q 356 603 342 617 q 431 547 369 590 q 582 428 582 436 q 539 389 582 413 q 334 265 399 313 q 261 217 269 217 q 244 229 244 217 q 269 256 244 236 q 544 424 294 276 l 321 600 z "},"?":{"ha":535,"x_min":122,"x_max":790,"o":"m 122 14 q 135 41 122 26 q 158 56 147 56 q 174 49 168 56 q 181 31 181 43 q 166 7 181 18 q 142 -4 151 -4 q 122 14 122 -4 m 281 611 q 315 579 281 579 q 415 635 374 579 q 457 728 457 690 q 432 788 457 765 q 323 698 365 750 q 281 611 281 646 m 279 224 q 265 206 278 206 q 232 222 232 206 q 285 319 232 268 q 413 415 338 369 q 564 510 489 461 q 692 622 639 560 q 744 746 744 683 q 621 840 744 840 q 464 804 540 840 q 489 743 489 782 q 424 613 489 678 q 292 549 358 549 q 257 562 269 549 q 244 599 244 575 q 292 700 244 642 q 415 800 340 758 q 357 815 389 815 q 296 802 325 815 q 256 775 267 789 l 244 763 q 238 757 240 757 q 229 765 232 757 q 256 800 235 782 q 372 838 299 838 q 447 817 415 838 q 622 857 532 857 q 706 844 661 857 q 790 739 790 818 q 739 620 790 679 q 614 513 688 561 q 466 419 540 465 q 338 322 392 374 q 279 224 283 271 z "},"@":{"ha":672,"x_min":32,"x_max":688,"o":"m 289 17 q 410 73 343 17 q 488 169 476 129 q 467 198 488 186 q 419 210 446 210 q 302 155 356 210 q 249 58 249 100 q 289 17 249 17 m 432 232 q 513 197 481 232 q 535 218 514 197 q 557 233 544 233 q 569 221 569 233 l 564 208 q 509 140 560 201 q 453 72 458 79 q 434 37 449 65 q 418 -1 419 8 q 417 -24 417 -11 q 458 -69 417 -69 q 592 11 524 -69 q 667 185 667 101 q 617 287 667 244 q 474 329 567 329 q 347 305 417 329 q 210 238 276 281 q 101 124 144 194 q 57 -26 57 54 q 87 -110 57 -72 q 172 -147 117 -147 q 299 -79 267 -147 q 306 -75 303 -75 q 310 -82 310 -75 q 265 -142 310 -118 q 158 -167 219 -167 q 65 -118 97 -167 q 32 -18 32 -69 q 79 139 32 67 q 197 254 126 211 q 341 322 267 297 q 478 346 415 346 q 586 327 540 346 q 653 279 632 308 q 688 188 688 228 q 677 117 688 149 q 653 61 667 85 q 600 -11 626 17 l 589 -21 q 457 -85 518 -85 q 405 -65 422 -85 q 388 -16 388 -44 q 399 39 388 13 q 394 38 396 39 q 263 -8 325 -8 q 201 47 201 -8 q 271 169 201 106 q 432 232 340 232 z "},"A":{"ha":1268,"x_min":61,"x_max":1676,"o":"m 1085 132 q 1083 126 1085 128 l 1088 132 l 1085 132 m 953 493 q 840 456 882 493 q 883 453 868 453 q 968 482 968 453 q 953 493 968 493 m 1117 408 q 897 196 972 263 q 1069 151 968 157 q 1117 408 1111 306 m 1557 872 q 1147 440 1215 510 q 1090 150 1143 354 l 1100 150 q 1174 256 1163 238 q 1281 425 1185 275 q 1563 869 1563 867 l 1557 872 m 878 208 q 1118 440 986 304 q 1075 653 1118 544 q 1015 765 1051 715 q 915 847 978 814 q 772 881 851 881 q 617 708 617 881 q 673 557 617 632 q 821 460 729 482 q 969 517 882 517 q 1015 492 1015 517 q 981 451 1015 472 q 901 429 946 429 q 821 436 856 429 q 792 353 792 400 q 878 208 792 268 m 268 157 q 288 198 268 179 q 328 225 308 217 l 347 232 q 368 218 368 232 q 350 200 368 204 q 313 164 313 192 q 378 124 313 124 q 569 170 500 124 q 638 279 638 217 q 598 349 638 321 q 471 378 558 378 q 197 299 306 378 q 89 126 89 221 q 160 8 89 56 q 360 -39 231 -39 q 603 15 489 -39 q 853 185 718 68 q 763 332 763 240 q 803 442 763 390 q 645 558 707 472 q 583 726 583 643 q 635 858 583 808 q 790 907 686 907 q 1038 783 929 907 q 1149 472 1146 658 q 1443 786 1244 574 l 1614 969 q 1658 1004 1649 1004 q 1672 999 1667 1004 q 1676 981 1676 993 q 1662 958 1676 969 q 1563 813 1647 947 q 1352 474 1479 679 q 1147 151 1225 269 q 1314 200 1225 161 q 1348 213 1342 213 q 1354 206 1354 213 q 1332 185 1354 192 q 1135 133 1246 144 q 997 -44 1017 -44 q 983 -31 983 -44 q 1011 21 983 -17 l 1047 74 l 1065 132 q 874 174 947 136 q 604 -12 725 43 q 344 -68 483 -68 q 133 -16 206 -68 q 61 115 61 36 q 178 315 61 224 q 476 407 296 407 q 686 289 686 407 q 624 179 686 225 q 495 116 563 133 q 376 99 428 99 q 268 157 268 99 z "},"B":{"ha":1407,"x_min":18,"x_max":1646,"o":"m 363 193 q 389 212 381 193 q 397 245 397 231 q 394 274 397 260 q 356 203 356 238 q 363 193 356 193 m 1006 465 q 1050 440 1006 447 l 1090 492 l 1083 492 q 1006 465 1006 492 m 883 686 q 941 713 917 686 q 972 782 965 740 q 905 740 935 769 q 875 698 875 710 q 883 686 875 686 m 1090 439 q 1246 468 1175 442 q 1129 490 1193 486 q 1112 467 1119 476 q 1099 449 1104 457 q 1090 439 1093 442 m 774 13 q 774 2 774 13 q 815 -17 774 -8 q 902 -26 857 -26 q 1004 -14 947 -26 q 929 7 978 -7 q 805 33 836 33 q 774 13 774 33 m 1282 483 q 1434 599 1376 526 q 1492 738 1492 672 q 1446 850 1492 804 q 1323 727 1381 794 q 1242 631 1265 660 q 1184 559 1218 603 q 1143 507 1150 515 q 1282 483 1224 503 m 1007 788 l 997 786 q 949 690 986 729 q 863 650 913 650 q 836 672 836 650 q 878 744 836 701 q 974 803 919 788 l 974 808 q 951 894 974 854 q 751 766 824 850 q 678 607 678 682 q 703 540 678 565 q 775 514 728 514 q 961 601 858 514 q 1064 749 1064 689 q 1007 788 1064 788 m 639 403 q 717 368 717 397 q 703 354 717 354 q 683 363 696 354 q 631 372 669 372 q 531 350 593 372 q 422 296 469 328 q 431 253 431 279 q 410 199 431 228 q 358 169 390 169 q 326 203 326 169 q 388 289 326 238 q 272 339 358 339 q 123 277 185 339 q 61 140 61 215 q 127 15 61 65 q 315 -36 193 -36 q 538 -1 436 -36 q 728 105 639 35 q 884 246 817 175 q 1033 419 951 317 q 949 453 949 421 q 992 491 949 474 q 1103 508 1036 508 q 1211 646 1171 596 q 1421 871 1325 790 q 1167 929 1336 929 q 981 904 1069 929 q 1000 822 1000 869 q 999 807 1000 813 q 1017 808 1004 808 q 1106 754 1106 808 q 1050 647 1106 710 q 913 538 994 585 q 768 490 831 490 q 674 520 706 490 q 643 599 643 550 q 723 771 643 681 q 940 910 803 861 q 757 990 885 990 q 508 928 618 990 q 347 800 407 869 q 267 694 289 735 l 257 678 q 242 667 250 667 q 233 682 233 667 q 303 785 247 717 q 415 896 358 853 q 565 974 471 939 q 767 1010 660 1010 q 971 921 911 1010 q 1190 951 1071 951 q 1449 893 1356 951 q 1631 982 1542 961 q 1646 972 1643 982 q 1619 956 1646 964 q 1475 874 1558 938 q 1532 749 1532 822 q 1471 599 1532 675 q 1306 474 1410 522 q 1411 335 1411 428 q 1325 147 1411 242 q 1106 -1 1239 51 q 1271 -26 1224 -26 q 1394 -8 1318 -26 q 1406 -16 1406 -8 q 1400 -25 1406 -24 q 1333 -42 1388 -32 q 1219 -51 1279 -51 q 1042 -24 1158 -51 q 883 -49 951 -49 q 769 -33 815 -49 q 724 18 724 -17 q 831 53 724 53 q 957 31 867 53 q 1074 4 1047 10 q 1287 140 1204 49 q 1369 322 1369 231 q 1269 458 1369 414 q 1075 419 1181 424 q 960 279 1010 336 q 835 153 911 222 q 685 43 758 85 q 512 -28 611 1 q 288 -57 413 -57 q 91 -1 164 -57 q 18 138 18 54 q 93 288 18 221 q 286 356 168 356 q 413 311 376 356 q 639 403 533 401 z "},"C":{"ha":719,"x_min":92,"x_max":1151,"o":"m 575 569 l 575 568 q 667 624 632 596 q 701 669 701 653 q 688 685 701 685 q 617 647 658 685 q 575 569 575 608 m 749 685 q 701 616 749 654 q 579 546 654 578 q 656 513 596 513 q 854 571 744 513 q 1040 710 964 629 q 1115 853 1115 792 q 945 943 1115 943 q 590 813 775 943 q 276 500 406 683 l 289 500 q 542 554 411 500 l 542 565 q 607 663 542 613 q 718 713 672 713 q 749 685 749 713 m 308 735 l 274 738 q 203 689 240 738 q 165 606 165 640 q 239 504 165 528 q 585 835 379 699 q 992 972 792 972 q 1151 876 1151 972 q 1072 715 1151 807 q 871 555 993 622 q 640 488 749 488 q 547 533 569 488 q 283 478 406 478 l 261 478 q 136 160 136 294 q 184 40 136 83 q 332 -4 232 -4 q 639 85 497 -4 q 689 119 672 106 l 706 133 q 718 136 710 136 q 726 127 726 136 q 714 110 726 118 q 308 -29 538 -29 q 145 19 199 -29 q 92 150 92 67 q 224 482 92 292 q 128 596 128 511 q 186 712 128 656 q 293 768 244 768 q 321 751 321 768 q 308 735 321 735 z "},"D":{"ha":1247,"x_min":40,"x_max":1575,"o":"m 667 631 q 738 667 708 631 q 776 758 768 704 q 690 706 725 744 q 656 649 656 668 q 667 631 656 631 m 85 57 q 192 1 86 1 q 386 33 297 1 q 149 83 213 83 q 85 57 85 83 m 778 775 q 779 810 779 781 q 763 878 779 839 q 472 667 592 806 q 351 428 351 529 q 463 333 351 333 q 659 404 558 333 q 819 563 760 475 q 878 708 878 651 q 821 765 878 765 q 804 764 810 765 q 752 653 793 699 q 654 607 711 607 q 617 633 617 607 q 665 710 617 665 q 778 775 714 756 m 1449 644 q 1317 864 1449 790 q 919 431 1165 750 q 714 210 835 322 q 471 44 593 99 q 681 8 603 8 q 969 70 825 8 q 1217 225 1114 132 q 1384 431 1319 318 q 1449 644 1449 544 m 124 722 q 104 706 114 706 q 94 717 94 706 q 100 733 94 724 q 306 915 167 826 q 588 1004 446 1004 q 783 907 731 1004 q 1021 949 901 949 q 1324 896 1207 949 q 1564 999 1447 975 q 1575 990 1575 999 q 1565 981 1575 982 q 1346 886 1453 957 q 1496 651 1496 808 q 1426 428 1496 546 q 1244 212 1356 310 q 975 49 1132 114 q 660 -15 818 -15 q 419 24 569 -15 q 189 -14 307 -14 q 40 53 40 -14 q 183 104 40 104 q 440 53 264 104 q 671 215 554 104 q 873 435 788 325 q 1074 674 958 546 q 1294 876 1190 803 q 1006 929 1185 929 q 792 889 901 929 q 808 821 808 851 q 807 782 808 790 q 843 785 829 785 q 922 718 922 785 q 878 599 922 669 q 766 463 833 528 q 609 351 699 397 q 446 306 519 306 q 339 335 372 306 q 306 417 306 365 q 435 674 306 528 q 754 896 565 821 q 574 989 703 989 q 304 896 444 989 q 124 722 164 803 z "},"E":{"ha":1021,"x_min":26,"x_max":1514,"o":"m 957 718 q 928 717 938 718 q 1021 671 963 671 q 1057 686 1057 671 q 957 718 1057 713 m 535 251 q 668 468 644 343 q 535 251 551 390 m 674 496 l 674 515 q 642 617 674 574 q 451 435 524 542 q 378 225 378 328 q 382 174 378 199 q 501 226 444 189 q 551 381 504 308 q 674 496 599 453 m 486 700 q 651 653 590 700 q 733 689 701 678 q 478 782 576 782 q 185 651 299 781 q 71 372 71 521 q 123 219 71 279 q 275 160 175 160 l 276 160 q 333 164 306 160 q 329 218 329 189 q 410 460 329 353 q 621 639 492 568 q 499 676 576 676 q 451 672 476 676 q 444 681 444 672 q 486 700 444 700 m 525 149 q 501 199 501 149 q 386 149 443 164 q 453 35 403 79 q 594 -8 504 -8 q 767 28 683 -8 q 905 119 850 64 q 991 238 960 174 q 1022 368 1022 303 q 977 476 1022 433 q 851 519 932 519 q 711 492 771 519 q 655 345 703 419 q 532 218 607 271 l 532 214 q 538 186 532 201 q 543 165 543 171 q 537 153 543 158 q 525 149 531 149 m 1242 765 q 1225 772 1225 767 q 1235 786 1225 778 q 1276 867 1276 826 q 1219 938 1276 907 q 1099 969 1163 969 q 953 918 1004 969 q 903 800 903 867 q 918 732 903 765 q 980 735 946 735 q 1051 722 1014 735 q 1089 685 1089 710 q 1038 654 1085 654 q 889 713 936 654 q 786 686 843 706 q 951 608 872 636 q 1132 581 1031 581 q 1381 667 1283 581 q 1478 846 1478 753 q 1446 925 1478 894 q 1351 956 1414 956 q 1329 967 1329 956 q 1361 974 1329 974 q 1473 933 1432 974 q 1514 832 1514 893 q 1403 644 1514 729 q 1090 560 1293 560 q 965 578 1029 560 q 860 619 901 597 q 757 676 818 640 q 671 635 717 660 q 713 519 713 586 l 713 514 q 856 543 782 543 q 1018 497 964 543 q 1072 382 1072 451 q 1034 240 1072 313 q 931 107 996 168 q 769 6 865 46 q 576 -33 674 -33 q 420 14 479 -33 q 339 139 361 61 q 268 133 310 133 q 88 198 149 133 q 26 363 26 263 q 81 562 26 463 q 242 731 135 661 q 482 801 350 801 q 587 785 533 801 q 672 751 640 768 q 764 700 704 735 q 878 728 825 719 q 861 793 861 757 q 926 925 861 867 q 1094 983 990 983 q 1255 947 1197 983 q 1313 856 1313 911 q 1242 765 1313 801 z "},"F":{"ha":942,"x_min":35,"x_max":2129,"o":"m 857 690 q 872 682 857 682 q 905 703 888 682 q 931 757 922 725 q 878 722 900 742 q 857 690 857 701 m 372 249 q 363 238 372 249 q 353 214 353 228 q 373 200 353 200 q 408 225 393 200 q 424 285 424 250 q 372 249 392 269 m 1036 443 q 676 307 832 417 q 774 165 756 265 q 1036 443 888 263 m 743 140 q 649 288 729 244 q 443 -3 488 160 q 743 140 594 24 m 522 -187 q 680 -97 615 -187 q 746 101 744 -7 q 438 -26 601 -1 q 433 -90 433 -53 q 456 -158 433 -128 q 522 -187 479 -187 m 935 779 q 936 808 936 786 q 925 860 936 829 q 686 606 686 769 q 710 546 686 567 q 767 525 735 525 q 895 567 825 525 q 1010 663 965 610 q 1056 750 1056 717 q 1015 779 1056 779 q 963 769 994 779 q 920 684 951 719 q 858 649 889 649 q 826 669 826 649 q 857 726 826 693 q 935 779 888 760 m 343 -12 q 396 -10 378 -12 q 624 299 440 163 q 543 311 589 311 q 449 296 497 311 q 417 206 446 246 q 353 167 388 167 q 319 190 319 167 q 348 247 319 214 q 422 303 376 279 q 392 363 417 339 q 322 388 367 388 q 144 322 214 388 q 75 175 75 256 q 142 41 75 94 q 343 -12 210 -12 m 1192 343 q 1197 333 1197 343 l 1197 329 q 1180 319 1197 319 q 1148 328 1163 319 q 1133 357 1133 336 q 1159 409 1133 378 q 1185 446 1185 440 q 1156 451 1185 451 q 1088 447 1128 451 q 778 125 907 224 l 778 117 q 700 -108 778 -4 q 511 -211 622 -211 q 418 -175 450 -211 q 386 -78 386 -139 q 390 -33 386 -56 q 326 -36 349 -36 q 108 21 182 -36 q 35 167 35 78 q 119 333 35 257 q 332 410 203 410 q 417 383 388 410 q 449 314 446 356 q 556 335 500 335 q 651 318 611 335 q 1056 467 821 433 q 1110 533 1069 483 q 1169 604 1151 583 q 1222 667 1186 625 q 1282 734 1258 710 q 1338 792 1306 758 q 1458 894 1390 844 q 1184 911 1281 911 q 958 871 1088 911 q 968 820 968 843 q 967 790 968 797 q 1032 800 1003 800 q 1094 758 1094 800 q 1042 656 1094 717 q 906 549 989 596 q 767 501 824 501 q 683 519 710 501 q 651 553 657 536 q 646 588 646 569 q 917 878 646 779 q 719 968 869 968 q 471 906 581 968 q 308 778 369 847 q 229 672 251 713 l 219 656 q 204 644 213 644 q 196 660 196 644 q 265 763 210 694 q 377 874 321 831 q 528 952 433 917 q 729 988 622 988 q 950 888 897 988 q 1263 938 1108 938 q 1503 925 1350 938 q 1711 1001 1604 988 q 1725 997 1725 1001 l 1725 993 q 1719 985 1725 986 q 1711 983 1714 983 q 1557 921 1631 963 q 1798 908 1714 908 q 1958 922 1882 908 q 2070 951 2035 936 q 2108 965 2106 965 q 2129 951 2129 965 q 2074 922 2129 940 q 1922 890 2019 904 q 1744 875 1824 875 q 1507 890 1665 875 q 1361 767 1438 843 q 1238 634 1285 690 q 1108 472 1192 578 q 1197 478 1157 478 q 1240 476 1238 478 q 1247 464 1247 475 q 1233 444 1247 453 q 1174 364 1174 410 q 1192 343 1174 343 z "},"G":{"ha":743,"x_min":-337,"x_max":1186,"o":"m 713 785 q 636 750 668 785 q 603 675 604 715 q 721 778 721 740 q 713 785 721 785 m 497 -250 q 494 -228 497 -242 q 410 -292 442 -258 q 378 -345 378 -325 q 410 -365 378 -365 q 469 -330 442 -365 q 497 -250 497 -294 m 1046 571 q 1031 581 1046 581 q 991 561 1017 581 q 922 494 965 542 q 756 289 871 435 q 961 456 876 372 q 1046 571 1046 539 m -192 -485 q 77 -387 -61 -485 q 369 -119 215 -290 q 239 -104 315 -104 q -24 -161 104 -104 q -224 -291 -153 -218 q -296 -419 -296 -364 q -192 -485 -296 -485 m 767 794 q 721 731 767 769 q 604 656 675 692 q 681 610 617 610 q 856 674 744 610 q 1054 827 968 738 q 1140 979 1140 917 q 1010 1051 1140 1051 q 608 917 807 1051 q 276 590 408 782 q 319 588 301 588 q 572 660 422 588 l 572 664 q 620 766 572 718 q 740 814 668 814 q 767 794 767 814 m 317 828 l 282 831 q 211 782 249 831 q 174 699 174 733 q 247 597 174 621 q 599 935 390 796 q 1017 1075 808 1075 q 1186 985 1186 1075 q 1097 821 1186 917 q 881 656 1007 725 q 672 586 756 586 q 575 640 589 586 q 293 567 418 567 q 261 568 272 567 q 140 250 140 386 q 181 136 140 178 q 308 94 222 94 q 654 222 442 94 q 872 480 799 403 q 991 585 946 557 q 1072 614 1036 614 q 1093 590 1093 614 q 978 438 1093 546 q 711 233 863 331 q 422 -110 551 29 q 522 -190 496 -136 q 767 -140 635 -140 q 883 -154 846 -140 q 897 -168 897 -158 q 886 -178 897 -178 q 878 -175 883 -178 q 758 -157 835 -157 q 529 -210 638 -157 q 532 -236 532 -226 q 483 -346 532 -296 q 378 -396 435 -396 q 342 -365 342 -396 q 381 -287 342 -333 q 488 -206 421 -242 q 404 -131 465 -154 q -204 -510 47 -510 q -337 -425 -337 -510 q -292 -319 -337 -378 q -170 -209 -246 -261 q 18 -122 -94 -157 q 232 -86 131 -86 q 388 -100 333 -86 q 618 178 476 1 q 276 61 408 61 q 93 225 93 61 q 232 575 93 371 q 136 689 136 604 q 194 805 136 749 q 301 861 253 861 q 329 844 329 861 q 317 828 329 828 z "},"H":{"ha":1375,"x_min":19,"x_max":2303,"o":"m 333 253 q 367 281 354 253 q 381 319 381 308 q 376 351 381 331 q 324 265 324 310 q 327 256 324 260 q 333 253 331 253 m 1228 844 q 1206 854 1228 854 q 1157 829 1183 854 q 1110 764 1131 804 q 1228 844 1228 817 m 988 61 q 1129 138 1046 61 l 1126 138 q 1022 117 1069 138 q 974 69 974 96 q 988 61 974 61 m 2040 843 q 2027 843 2040 843 q 1990 810 2014 843 q 1967 753 1967 776 q 1972 719 1967 729 q 2067 828 2067 796 q 2040 843 2067 843 m 2114 854 q 1988 704 2114 807 q 2017 699 1997 699 q 2181 778 2104 699 q 2257 935 2257 858 q 2228 1001 2257 976 q 2136 1025 2199 1025 q 2000 990 2074 1025 q 1863 904 1926 954 q 1719 769 1800 854 q 1581 619 1638 685 q 1425 432 1471 489 q 1693 540 1550 464 q 1943 697 1836 615 q 1931 736 1931 711 q 1974 832 1931 783 q 2065 881 2017 881 q 2114 854 2114 881 m 686 674 q 944 707 811 674 q 801 939 918 849 q 513 1029 685 1029 q 345 991 403 1029 q 288 894 288 953 q 396 742 288 811 q 686 674 504 674 m 389 379 q 506 440 443 415 q 602 465 569 464 q 652 462 635 467 q 679 450 669 457 q 707 421 700 438 q 694 407 707 407 q 681 417 689 407 q 612 444 657 444 q 505 422 567 444 q 394 367 443 400 q 401 320 401 349 q 379 264 401 292 q 319 226 347 226 q 290 251 290 226 q 371 365 290 306 q 326 405 356 390 q 276 421 297 419 q 57 217 57 396 q 131 88 57 136 q 296 39 204 39 q 476 66 388 39 q 629 130 564 93 q 771 235 694 167 q 894 354 847 304 q 1040 521 978 444 q 1029 603 1029 550 q 1057 719 1029 657 q 975 692 1004 700 q 978 647 978 664 q 942 456 978 540 q 931 444 938 444 q 922 454 922 449 q 951 606 951 553 q 947 685 951 658 q 675 651 818 651 q 348 717 461 651 q 235 871 235 782 q 313 999 235 944 q 524 1053 392 1053 q 825 956 704 1053 q 971 714 946 860 q 1069 746 1021 728 q 1146 846 1100 807 q 1232 885 1192 885 q 1272 865 1272 885 q 1224 806 1272 843 q 1097 735 1176 769 q 1068 601 1068 669 q 1071 560 1068 588 q 1285 810 1226 746 q 1647 1074 1522 1074 q 1656 1069 1654 1074 q 1658 1064 1658 1065 q 1631 1043 1658 1049 q 1483 956 1556 1015 q 1369 851 1410 896 q 1209 668 1297 779 q 1085 515 1121 557 q 1290 413 1131 413 q 1376 421 1331 413 q 1477 547 1446 507 q 1578 667 1508 586 q 1690 788 1647 747 q 1800 888 1733 829 q 1919 975 1867 947 q 2156 1049 2053 1049 q 2303 951 2303 1049 q 2203 771 2303 867 q 2010 675 2104 675 q 1961 683 1978 675 q 1689 514 1843 593 q 1401 406 1535 435 q 1174 153 1247 222 q 1299 51 1299 140 q 1240 -65 1299 -12 q 1118 -139 1182 -117 q 1014 -161 1054 -161 q 1004 -149 1004 -160 q 1013 -139 1004 -139 l 1022 -140 q 1190 -74 1125 -126 q 1254 43 1254 -21 q 1156 136 1254 124 q 964 32 1040 32 q 944 40 953 32 q 935 58 935 47 q 1001 126 935 97 q 1144 154 1068 154 l 1146 154 q 1356 396 1219 225 q 1283 390 1322 390 q 1058 485 1117 390 l 1035 458 q 901 315 956 371 q 767 196 846 260 q 619 94 689 132 q 279 10 461 10 q 92 60 164 10 q 19 210 19 111 q 94 373 19 308 q 257 438 168 438 q 278 436 271 438 q 389 379 363 422 z "},"I":{"ha":894,"x_min":25,"x_max":1771,"o":"m 847 686 q 863 678 847 678 q 895 699 878 678 q 921 753 913 721 q 869 717 890 738 q 847 686 847 697 m 1699 956 q 1521 889 1614 956 q 1567 888 1532 888 q 1661 903 1601 888 q 1721 937 1721 918 q 1699 956 1721 956 m 360 168 q 399 193 383 168 q 414 247 414 218 q 403 301 414 276 q 321 196 321 242 q 360 168 321 168 m 817 665 q 847 722 817 689 q 925 775 878 756 q 926 797 926 782 q 903 882 926 844 q 731 767 796 846 q 667 617 667 689 q 698 539 667 568 q 792 510 729 510 q 963 593 876 510 q 1050 738 1050 676 q 1006 775 1050 775 q 953 765 985 775 q 910 680 942 715 q 848 644 879 644 q 817 665 817 644 m 653 382 q 431 319 529 381 q 440 259 440 299 q 410 177 440 219 q 340 135 381 135 q 285 178 285 135 q 313 247 285 208 q 392 321 342 286 q 313 356 367 356 q 135 290 204 356 q 65 143 65 224 q 133 9 65 63 q 317 -44 200 -44 q 533 -8 435 -44 q 714 91 631 28 q 875 232 797 154 q 1027 400 953 310 q 1168 572 1101 490 q 1451 869 1331 774 q 1338 883 1419 872 q 1078 907 1164 907 q 936 892 993 907 q 958 824 958 856 q 957 786 958 793 q 1022 796 993 796 q 1089 744 1089 796 q 985 580 1089 674 q 779 486 882 486 q 665 518 703 486 q 626 603 626 550 q 700 765 626 679 q 892 897 774 850 q 710 964 835 964 q 534 936 615 964 q 406 869 453 908 q 275 722 304 786 l 261 694 q 246 683 254 683 q 238 699 238 683 q 294 794 253 740 q 385 885 336 847 q 524 953 435 922 q 719 985 613 985 q 925 908 865 985 q 1085 938 1013 938 q 1216 933 1157 938 q 1313 922 1275 928 q 1408 907 1350 917 q 1485 894 1467 897 q 1719 978 1604 978 q 1771 947 1771 978 q 1685 886 1771 907 q 1551 865 1599 865 q 1489 867 1504 865 q 1214 572 1388 788 q 1069 396 1147 489 q 908 222 992 303 q 735 75 825 140 q 317 -68 540 -68 q 99 -11 172 -68 q 25 135 25 46 q 109 301 25 225 q 322 378 193 378 q 418 339 386 378 q 664 404 529 404 q 721 392 697 404 q 750 369 744 381 l 757 358 q 744 344 757 344 q 731 354 739 344 q 653 382 710 382 z "},"J":{"ha":750,"x_min":-203,"x_max":1525,"o":"m 621 686 q 636 678 621 678 q 669 699 651 678 q 694 753 686 721 q 642 717 664 738 q 621 686 621 697 m 506 188 q 504 203 506 197 q 431 140 458 171 q 404 93 404 110 q 421 81 404 81 q 479 115 453 81 q 506 188 506 150 m 1453 965 q 1283 890 1382 965 q 1333 888 1299 888 q 1421 907 1367 888 q 1475 947 1475 926 q 1453 965 1475 965 m 590 665 q 621 722 590 689 q 699 775 651 756 q 700 797 700 782 q 676 882 700 844 q 505 767 569 846 q 440 617 440 689 q 472 539 440 568 q 565 510 503 510 q 737 593 650 510 q 824 738 824 676 q 779 775 824 775 q 726 765 758 775 q 684 680 715 715 q 622 644 653 644 q 590 665 590 644 m -85 -469 q 50 -425 -25 -469 q 198 -313 125 -381 q 363 -140 271 -246 q 703 282 497 14 q 719 304 714 297 q 531 219 621 279 q 535 194 535 207 q 499 104 535 146 q 411 63 463 63 q 378 86 378 63 q 410 148 378 110 q 496 224 442 186 q 422 256 476 256 q 172 133 313 256 q -65 -144 31 10 q -160 -392 -160 -299 q -85 -469 -160 -469 m 699 908 q 865 938 786 938 q 1007 931 944 938 q 1159 908 1069 924 q 1253 893 1249 893 q 1474 988 1378 988 q 1525 957 1525 988 q 1444 891 1525 917 q 1318 865 1364 865 q 1256 867 1272 865 q 1108 721 1192 814 q 961 549 1024 628 q 793 336 899 471 q 857 340 825 340 q 953 313 953 340 q 945 303 953 303 q 933 305 938 303 q 919 311 928 307 q 851 322 892 322 q 778 317 810 322 q 517 -13 564 40 q 411 -135 469 -67 q 318 -237 353 -204 q 231 -319 283 -269 q 142 -394 179 -369 q 60 -446 104 -418 q -100 -494 -18 -494 q -203 -399 -203 -494 q -139 -206 -203 -322 q 18 17 -75 -89 q 227 201 111 124 q 435 278 343 278 q 522 240 496 278 q 736 326 619 301 q 1222 869 1049 728 q 1110 883 1192 872 q 851 907 936 907 q 710 892 767 907 q 732 824 732 856 q 731 786 732 793 q 796 796 767 796 q 863 744 863 796 q 759 580 863 674 q 553 486 656 486 q 438 518 476 486 q 400 603 400 550 q 474 765 400 679 q 665 897 547 850 q 483 964 608 964 q 308 936 389 964 q 178 869 226 908 q 47 722 78 786 l 35 694 q 19 683 28 683 q 11 699 11 683 q 68 794 26 740 q 159 885 110 847 q 297 953 208 922 q 493 985 386 985 q 699 908 639 985 z "},"K":{"ha":1601,"x_min":26,"x_max":2246,"o":"m 849 672 q 864 664 849 664 q 897 685 879 664 q 922 739 914 707 q 870 703 892 724 q 849 672 849 683 m 900 342 q 942 306 900 318 l 992 367 q 954 369 969 369 q 919 361 939 369 q 900 342 900 353 m 978 297 q 1028 294 990 294 q 1117 308 1065 294 q 1028 356 1067 343 l 978 297 m 344 210 q 387 182 344 182 q 429 242 429 182 q 411 296 429 269 q 344 210 344 249 m 1649 964 q 1482 896 1568 964 q 1549 894 1503 894 q 1632 915 1594 894 q 1669 951 1669 935 q 1649 964 1669 964 m 818 651 q 849 708 818 675 q 926 761 879 742 q 928 796 928 768 q 907 861 928 824 q 750 740 808 818 q 692 592 692 661 q 717 522 692 549 q 793 496 743 496 q 965 579 878 496 q 1051 724 1051 663 q 1007 761 1051 761 q 954 751 986 761 q 912 666 943 701 q 849 631 881 631 q 818 651 818 631 m 656 369 q 438 314 536 369 q 454 251 454 288 q 429 181 454 214 q 367 149 404 149 q 315 190 315 149 q 399 311 315 249 q 314 342 365 342 q 136 276 206 342 q 67 129 67 210 q 134 -5 67 49 q 335 -58 201 -58 q 644 33 501 -58 q 926 288 786 125 q 872 342 872 308 q 898 374 872 363 q 952 386 924 386 q 1003 381 981 386 q 1131 548 1036 422 q 1289 747 1226 674 q 1414 872 1351 819 q 1319 883 1388 875 q 1098 900 1185 900 q 939 874 1011 900 q 960 808 960 836 q 958 772 960 779 q 1024 782 994 782 q 1090 731 1090 782 q 987 566 1090 660 q 781 472 883 472 q 690 503 721 472 q 658 583 658 533 q 722 743 658 658 q 897 878 786 828 q 711 950 842 950 q 535 922 617 950 q 406 856 454 894 q 275 708 306 772 l 263 681 q 247 669 256 669 q 239 685 239 669 q 296 780 254 726 q 387 871 338 833 q 525 940 436 908 q 721 971 614 971 q 929 892 869 971 q 1146 931 1032 931 q 1296 917 1186 931 q 1446 899 1406 903 q 1669 986 1560 986 q 1713 964 1713 986 q 1651 901 1713 935 q 1510 868 1590 868 q 1450 869 1469 868 q 1178 547 1356 785 q 1039 369 1090 432 q 1146 317 1085 353 q 1578 600 1322 372 q 1783 775 1678 689 q 2004 917 1888 861 q 2232 974 2121 974 q 2246 957 2246 974 q 2243 951 2246 951 l 2233 951 q 2006 896 2117 951 q 1803 756 1896 840 q 1618 584 1710 672 q 1409 415 1526 496 q 1169 301 1292 335 q 1311 200 1219 269 q 1465 86 1403 131 q 1609 5 1528 42 q 1742 -32 1690 -32 q 1867 -8 1793 -32 q 1869 -7 1868 -7 q 1883 -15 1883 -7 q 1828 -40 1883 -31 q 1731 -50 1774 -50 q 1556 -10 1646 -50 q 1408 74 1467 29 q 1263 192 1350 118 q 1138 293 1176 265 q 1015 276 1063 276 q 961 278 968 276 q 656 14 813 110 q 318 -82 500 -82 q 100 -25 174 -82 q 26 122 26 32 q 110 288 26 211 q 324 364 194 364 q 425 328 392 364 q 665 390 526 390 q 675 382 675 390 q 656 369 675 369 z "},"L":{"ha":1318,"x_min":-43,"x_max":1721,"o":"m 1360 694 q 1361 679 1360 683 q 1468 788 1468 750 q 1441 800 1468 800 q 1387 765 1414 800 q 1360 694 1360 731 m -4 49 q 149 -3 -3 -3 q 438 58 300 -3 q 131 93 267 93 q -4 49 -4 85 m 1501 800 q 1369 661 1501 746 q 1431 638 1389 638 q 1597 727 1514 638 q 1679 896 1679 817 q 1563 985 1679 985 q 1267 847 1401 985 q 1147 712 1200 781 q 1058 592 1093 643 q 1022 540 1024 542 q 1015 531 1018 536 q 1332 660 1154 553 q 1329 681 1329 667 q 1372 776 1329 728 q 1458 824 1414 824 q 1501 800 1501 824 m 1015 735 q 1008 740 1014 735 q 993 744 1001 744 q 902 703 940 744 q 864 613 864 661 q 958 526 864 529 q 1201 817 1124 739 q 1576 1003 1388 1003 q 1721 908 1721 1003 q 1616 717 1721 821 q 1419 614 1511 614 q 1340 643 1361 614 q 1003 513 1164 539 q 777 251 888 360 q 526 74 667 143 q 610 60 539 72 q 707 44 681 47 q 789 33 733 40 q 988 21 890 21 q 1294 97 1178 21 q 1304 101 1300 101 q 1308 93 1308 101 q 1299 78 1308 85 q 1144 15 1257 43 q 915 -14 1031 -14 q 617 19 778 -14 q 544 35 594 25 q 475 50 494 46 q 94 -22 299 -22 q -43 38 -43 -12 q 168 110 -33 110 q 485 81 294 110 q 715 249 610 146 q 944 508 821 353 q 832 597 832 508 q 883 709 832 654 q 996 764 935 764 q 1016 757 1008 764 q 1024 742 1024 750 q 1015 735 1024 735 z "},"M":{"ha":1551,"x_min":35,"x_max":2032,"o":"m 329 181 q 369 204 351 181 q 388 249 388 228 q 383 279 388 269 q 337 229 354 254 q 319 192 319 204 q 329 181 319 181 m 813 496 q 819 485 813 485 q 872 525 846 485 q 908 621 899 565 q 813 496 813 535 m 1129 883 q 1121 892 1129 892 q 1056 845 1086 892 q 1017 742 1025 799 q 1129 883 1129 842 m 696 928 q 879 858 821 928 q 938 686 938 788 l 938 674 l 990 719 q 1040 862 994 796 q 1150 928 1085 928 q 1171 901 1171 928 q 1130 828 1171 874 q 1014 715 1089 782 l 1014 708 q 1076 626 1014 626 q 1147 650 1121 626 q 1163 658 1158 658 q 1168 651 1168 658 q 1163 641 1168 643 q 1149 633 1157 639 q 1133 621 1142 626 q 1069 606 1111 606 q 990 694 997 606 l 935 646 q 891 513 926 569 q 811 457 856 457 q 782 486 782 457 q 913 651 782 536 q 914 679 914 661 q 855 838 914 774 q 664 903 796 903 q 521 878 599 903 q 261 703 371 832 q 244 683 253 694 q 224 661 229 661 q 214 674 214 667 q 290 760 242 714 q 391 839 339 806 q 526 900 443 872 q 696 928 608 928 m 626 385 l 654 383 q 676 367 676 382 q 669 363 675 363 q 651 365 663 363 q 622 368 640 368 q 404 296 503 368 q 413 249 413 278 q 388 193 413 221 q 331 165 363 165 q 299 188 299 165 q 376 296 299 233 q 260 340 347 340 q 122 288 172 340 q 71 158 71 235 q 130 21 71 81 q 294 -39 189 -39 q 664 100 475 -39 q 766 179 726 146 q 860 268 806 213 q 936 346 915 324 l 996 413 q 1111 545 1043 469 q 1235 683 1179 621 q 1337 791 1290 744 q 1431 881 1383 838 q 1572 971 1529 971 q 1585 960 1585 971 q 1574 944 1585 950 q 1440 781 1521 911 q 1253 465 1358 651 q 1075 179 1147 279 q 1205 301 1096 193 q 1438 530 1314 410 q 1719 776 1561 650 q 1990 954 1876 901 q 2017 963 2010 963 q 2032 950 2032 963 q 2022 940 2032 944 q 1751 689 1926 874 q 1427 302 1575 504 q 1279 15 1279 100 q 1333 -50 1279 -50 q 1493 18 1407 -50 q 1539 50 1533 50 q 1553 40 1553 50 q 1549 32 1553 36 q 1314 -74 1399 -74 q 1229 6 1229 -74 q 1305 187 1229 65 q 1486 435 1381 308 q 1881 853 1738 736 q 1911 881 1896 867 l 1925 893 q 1677 715 1836 850 q 1350 414 1518 579 q 915 -26 1065 133 q 897 -39 907 -39 q 889 -27 889 -33 q 893 -17 889 -21 q 911 7 897 -12 q 976 93 950 61 q 1220 485 1028 153 q 1479 889 1413 817 q 1119 515 1340 778 q 728 119 918 275 q 515 -12 632 40 q 281 -64 397 -64 q 100 -1 165 -64 q 35 147 35 61 q 99 297 35 233 q 262 360 164 360 q 396 311 360 360 q 626 385 500 385 z "},"N":{"ha":1256,"x_min":32,"x_max":2386,"o":"m 336 171 q 378 202 357 171 q 400 257 400 233 q 396 290 400 281 q 344 231 363 261 q 326 186 326 201 q 336 171 326 171 m 842 496 q 849 485 842 485 q 901 525 875 485 q 938 621 928 565 q 842 496 842 535 m 1158 883 q 1150 892 1158 892 q 1085 845 1115 892 q 1046 742 1054 799 q 1158 883 1158 842 m 725 928 q 908 858 850 928 q 967 686 967 788 l 967 674 l 1019 719 q 1069 862 1024 796 q 1179 928 1114 928 q 1200 901 1200 928 q 1159 828 1200 874 q 1043 715 1118 782 l 1043 708 q 1106 626 1043 626 q 1176 650 1150 626 q 1192 658 1186 658 q 1197 651 1197 658 q 1192 641 1197 643 q 1178 633 1186 639 q 1163 621 1171 626 q 1099 606 1139 606 q 1019 694 1026 606 l 964 646 q 920 513 956 569 q 840 457 885 457 q 811 486 811 457 q 942 651 811 536 q 943 679 943 661 q 884 838 943 774 q 693 903 825 903 q 550 878 628 903 q 290 703 400 832 q 274 683 282 694 q 253 661 258 661 q 243 674 243 667 q 319 760 271 714 q 420 839 368 806 q 555 900 472 872 q 725 928 638 928 m 693 414 q 708 403 708 414 q 693 392 708 392 q 417 308 529 392 q 424 271 424 288 q 393 175 424 221 q 328 129 363 129 q 293 164 293 129 q 318 231 293 192 q 388 308 343 271 q 289 346 360 346 q 125 281 192 346 q 58 141 58 217 q 120 17 58 65 q 297 -32 182 -32 q 524 15 413 -32 q 738 140 636 63 q 939 314 839 218 q 1133 513 1039 410 q 1311 706 1226 615 q 1625 975 1508 918 q 1631 976 1628 976 q 1643 960 1643 976 q 1628 940 1643 953 q 1560 879 1586 906 q 1442 703 1503 808 q 1351 536 1382 599 q 1230 276 1296 422 q 1164 126 1164 131 q 1167 121 1164 121 q 1265 236 1181 133 q 1450 448 1349 339 q 1681 673 1551 557 q 1958 864 1810 789 q 2236 939 2106 939 q 2386 849 2386 939 q 2314 700 2386 785 q 2134 554 2242 615 q 1936 493 2026 493 q 1865 515 1889 493 q 1840 572 1840 538 q 1912 704 1840 640 q 2090 768 1983 768 q 2110 758 2106 768 q 2102 746 2110 751 q 2085 740 2094 740 q 1935 688 2003 740 q 1867 583 1867 635 q 1973 522 1867 522 q 2216 634 2079 522 q 2353 831 2353 746 q 2217 908 2353 908 q 1994 853 2113 908 q 1777 723 1875 799 q 1562 530 1679 647 q 1372 327 1444 413 q 1203 125 1300 242 q 1085 -17 1107 8 q 1053 -42 1064 -42 q 1043 -32 1043 -42 q 1063 17 1043 -22 q 1108 103 1083 56 q 1193 285 1135 151 q 1285 491 1251 419 q 1341 603 1318 563 q 1394 700 1364 644 q 1518 876 1447 793 q 1305 666 1432 803 q 1067 413 1178 529 q 829 183 957 297 q 565 3 701 69 q 297 -64 428 -64 q 99 -8 167 -64 q 32 136 32 49 q 108 297 32 224 q 306 369 185 369 q 410 324 382 369 q 693 414 532 414 z "},"O":{"ha":825,"x_min":50,"x_max":1083,"o":"m 642 439 q 624 447 642 447 q 580 417 607 447 q 531 342 553 388 q 606 392 571 361 q 642 439 642 424 m 1044 757 q 904 886 1044 886 q 736 830 831 886 q 565 696 642 774 q 435 533 489 618 q 382 393 382 449 q 467 324 382 324 q 496 328 479 324 q 567 438 522 393 q 656 483 611 483 q 678 460 678 483 q 631 390 678 438 q 522 318 583 343 q 503 221 503 268 q 593 97 503 119 q 908 423 771 222 q 1044 757 1044 624 m 981 279 q 999 293 994 293 q 1004 285 1004 293 q 988 261 1004 278 q 615 69 804 69 q 592 71 599 69 q 269 -40 419 -40 q 103 9 157 -40 q 50 149 50 58 q 109 363 50 240 q 256 592 168 485 q 456 776 343 699 q 665 865 568 854 q 675 858 675 865 q 661 849 675 850 q 414 715 549 835 q 187 438 279 596 q 94 160 94 279 q 304 -15 94 -15 q 561 75 421 -15 q 471 211 471 100 q 488 307 471 258 q 436 300 460 300 q 350 375 350 300 q 406 527 350 435 q 542 703 461 619 q 728 849 624 788 q 919 910 832 910 q 1083 763 1083 910 q 947 424 1083 624 q 625 93 811 225 l 643 93 q 803 139 706 93 q 981 279 900 185 z "},"P":{"ha":993,"x_min":19,"x_max":1792,"o":"m 1203 429 l 1101 456 l 1061 411 q 1203 429 1131 411 m 1003 468 q 954 450 954 468 q 972 428 954 439 q 1021 413 990 418 l 1064 463 q 1003 468 1025 468 m 922 769 q 852 730 882 760 q 822 686 822 700 q 831 672 822 672 q 890 700 865 672 q 922 769 915 728 m 313 182 q 337 167 313 167 q 383 199 361 167 q 404 272 404 232 q 403 289 404 283 q 313 182 313 222 m 1115 472 l 1246 443 q 1431 563 1361 483 q 1501 715 1501 642 q 1450 838 1501 788 q 1359 751 1393 788 q 1307 695 1325 714 q 1257 639 1289 676 q 1212 587 1225 601 q 1162 528 1199 572 q 1115 472 1125 483 m 954 774 l 944 772 q 899 675 935 714 q 810 636 863 636 q 788 662 788 636 q 828 731 788 688 q 925 789 869 775 l 925 796 q 903 864 925 828 q 708 728 781 813 q 636 576 636 644 q 724 500 636 500 q 913 585 813 500 q 1014 732 1014 671 q 954 774 1014 774 m 1776 1022 q 1792 1013 1789 1022 q 1765 996 1792 1000 q 1478 860 1625 979 q 1542 726 1542 806 q 1470 565 1542 647 q 1278 436 1399 483 q 1419 425 1344 425 q 1433 418 1433 425 q 1404 407 1433 407 q 1238 422 1307 407 q 1044 392 1146 393 q 883 221 957 292 q 717 81 810 150 q 304 -57 528 -57 q 91 1 163 -57 q 19 148 19 58 q 99 313 19 238 q 297 389 178 389 q 418 322 393 389 q 694 404 550 404 q 713 390 713 400 q 706 386 713 386 q 424 303 554 386 q 425 283 425 297 q 394 188 425 233 q 324 143 364 143 q 283 174 283 143 q 315 238 283 200 q 397 310 346 275 q 283 372 372 372 q 131 303 193 372 q 68 153 68 235 q 131 17 68 71 q 307 -36 194 -36 q 511 -3 419 -36 q 690 94 603 29 q 847 227 776 160 q 1003 392 917 294 q 931 408 957 394 q 906 440 906 422 q 934 471 906 458 q 1001 483 963 483 q 1078 478 1039 483 q 1135 544 1090 492 q 1196 615 1179 596 q 1251 676 1213 633 q 1313 742 1289 718 q 1429 853 1390 819 q 1169 915 1339 915 q 926 874 1042 915 q 947 819 947 840 q 946 793 947 799 q 964 794 951 794 q 1053 740 1053 794 q 997 633 1053 696 q 860 524 942 571 q 718 476 778 476 q 631 501 658 476 q 603 568 603 526 q 681 733 603 642 q 892 879 760 824 q 682 957 824 957 q 502 927 586 957 q 367 854 418 897 q 219 694 258 765 l 204 664 q 189 653 197 653 q 181 668 181 653 q 247 771 200 713 q 347 869 294 829 q 492 943 400 910 q 692 976 585 976 q 915 889 843 976 q 1206 938 1047 938 q 1457 876 1364 938 q 1776 1022 1622 1008 z "},"Q":{"ha":810,"x_min":-22,"x_max":1126,"o":"m 144 89 q 193 49 164 64 q 308 126 250 82 q 144 89 222 117 m 156 28 q 101 72 121 47 q 18 10 18 33 q 54 -3 18 -3 q 156 28 90 -3 m 319 22 q 554 96 426 22 q 369 129 482 129 q 346 128 354 129 q 214 39 274 74 q 319 22 256 22 m 467 276 q 485 286 474 286 q 497 274 497 286 q 458 226 497 265 q 368 144 419 186 q 394 146 376 146 q 579 110 500 146 q 928 444 772 229 q 1083 800 1083 658 q 944 926 1083 926 q 751 876 849 926 q 584 755 653 826 q 472 606 515 683 q 428 474 428 529 q 507 396 428 396 q 665 454 586 396 q 788 583 743 513 q 833 690 833 653 q 806 726 833 726 q 736 678 775 726 q 718 661 724 661 q 710 669 710 664 q 750 719 710 685 q 831 753 790 753 q 872 714 872 753 q 839 618 872 675 q 753 506 806 561 q 628 413 701 451 q 488 374 556 374 q 385 464 385 374 q 434 608 385 525 q 561 767 483 692 q 750 896 639 843 q 971 949 861 949 q 1126 808 1126 949 q 967 442 1126 660 q 603 99 808 224 q 685 -29 685 51 q 665 -106 685 -67 q 619 -172 644 -146 q 572 -213 593 -197 q 544 -231 550 -229 q 538 -222 538 -231 q 546 -208 538 -214 q 624 -131 596 -178 q 651 -43 651 -83 q 576 83 651 38 q 296 -1 426 -1 q 176 18 226 -1 q 27 -31 76 -31 q -22 -8 -22 -31 q 10 34 -22 8 q 94 83 42 60 q 64 199 64 131 q 145 463 64 317 q 366 733 226 610 q 656 900 506 857 q 668 901 661 901 q 675 893 675 901 q 660 883 675 888 q 395 728 525 847 q 187 466 265 610 q 108 208 108 322 q 136 100 108 142 q 329 143 232 133 q 467 276 428 221 z "},"R":{"ha":1392,"x_min":4,"x_max":1776,"o":"m 964 304 l 992 304 q 1058 307 1036 304 q 1001 346 1032 332 l 964 304 m 969 357 q 927 364 944 364 q 897 355 910 364 q 885 336 885 346 q 925 310 885 317 l 969 357 m 935 769 q 865 730 894 760 q 835 686 835 700 q 843 672 835 672 q 903 700 878 672 q 935 769 928 728 m 297 168 q 322 153 297 153 q 367 185 346 153 q 389 258 389 218 q 388 275 389 269 q 297 168 297 208 m 967 774 l 957 772 q 911 675 947 714 q 822 636 875 636 q 800 662 800 636 q 841 731 800 688 q 938 789 882 775 l 938 796 q 915 864 938 828 q 721 728 793 813 q 649 576 649 644 q 737 500 649 500 q 926 585 825 500 q 1026 732 1026 671 q 967 774 1026 774 m 1314 398 q 1364 430 1314 398 q 1468 544 1414 463 q 1522 706 1522 626 q 1457 842 1522 786 q 1322 715 1389 786 q 1151 521 1254 643 q 1015 361 1049 399 q 1094 313 1058 344 q 1314 398 1214 333 m 1761 1008 q 1776 999 1774 1008 q 1750 982 1776 986 q 1486 865 1615 964 q 1563 711 1563 807 q 1434 460 1563 583 q 1108 299 1306 338 q 1185 205 1144 264 q 1260 95 1226 146 q 1336 -4 1294 44 q 1564 -108 1428 -108 q 1634 -99 1608 -108 q 1675 -82 1660 -89 q 1719 -65 1711 -65 q 1726 -71 1726 -65 q 1701 -95 1726 -81 q 1654 -117 1676 -110 q 1540 -139 1574 -139 q 1306 -25 1403 -139 q 1226 80 1261 26 q 1151 196 1192 133 q 1075 293 1110 258 q 963 285 1021 285 l 946 285 q 632 23 789 117 q 289 -71 475 -71 q 76 -13 147 -71 q 4 134 4 44 q 83 299 4 224 q 282 375 163 375 q 403 308 378 375 q 679 390 535 390 q 697 376 697 386 q 690 372 697 372 q 408 289 539 372 q 410 269 410 283 q 379 174 410 219 q 308 129 349 129 q 268 160 268 129 q 299 224 268 186 q 382 296 331 261 q 267 358 357 358 q 115 290 178 358 q 53 139 53 221 q 116 3 53 57 q 323 -50 179 -50 q 611 40 467 -50 q 907 289 756 129 q 839 339 839 304 q 862 367 839 356 q 919 379 885 379 q 982 372 954 379 q 1119 531 1014 408 q 1294 727 1225 654 q 1435 857 1364 800 q 1201 915 1347 915 q 939 874 1054 915 q 960 819 960 840 q 958 793 960 799 q 976 794 964 794 q 1065 740 1065 794 q 1010 633 1065 696 q 872 524 954 571 q 731 476 790 476 q 643 501 671 476 q 615 568 615 526 q 694 733 615 642 q 904 879 772 824 q 694 957 836 957 q 515 927 599 957 q 378 854 431 897 q 233 694 271 765 l 217 664 q 201 653 210 653 q 193 668 193 653 q 260 771 213 713 q 360 869 307 829 q 505 943 413 910 q 704 976 597 976 q 928 889 856 976 q 1216 938 1060 938 q 1464 879 1372 938 q 1761 1008 1618 996 z "},"S":{"ha":942,"x_min":44,"x_max":1879,"o":"m 404 244 q 396 281 404 261 q 346 200 346 232 q 351 192 346 192 q 404 244 404 192 m 1606 740 q 1585 749 1606 749 q 1539 720 1564 749 q 1510 660 1514 692 q 1606 740 1606 714 m 1107 731 l 1107 718 q 1232 814 1232 778 q 1194 828 1232 828 q 1132 800 1157 828 q 1107 731 1107 772 m 1613 775 q 1635 775 1613 775 q 1657 754 1657 775 q 1615 700 1657 733 q 1508 635 1574 667 q 1568 596 1515 596 q 1747 686 1651 596 q 1843 853 1843 776 q 1708 936 1843 936 q 1453 832 1572 936 q 1346 726 1393 779 q 1235 590 1299 672 q 1265 589 1244 589 q 1478 643 1369 589 q 1528 733 1486 690 q 1613 775 1569 775 m 269 840 q 378 692 269 760 q 647 624 488 624 q 950 661 807 624 q 839 826 919 756 q 481 961 686 961 q 323 927 376 961 q 269 840 269 893 m 1075 679 l 978 646 q 989 549 989 599 q 965 419 989 499 q 956 401 964 410 q 944 393 949 393 q 939 400 939 393 l 946 429 q 967 547 967 497 q 956 640 967 596 q 628 603 806 603 q 342 671 450 603 q 235 825 235 739 q 299 937 235 892 q 482 982 364 982 q 784 899 640 982 q 972 668 928 817 q 1071 703 1019 681 l 1071 713 q 1112 811 1071 768 q 1212 854 1153 854 q 1271 828 1271 854 q 1228 765 1271 801 q 1111 694 1186 729 q 1200 600 1131 626 q 1322 741 1268 685 q 1444 853 1376 797 q 1746 963 1581 963 q 1879 871 1879 963 q 1767 676 1879 779 q 1538 572 1656 572 q 1476 619 1479 572 q 1263 572 1363 572 q 1222 574 1235 572 q 963 250 1054 346 q 332 -51 675 -51 q 118 12 192 -51 q 44 162 44 75 q 112 312 44 249 q 294 375 179 375 q 411 315 371 375 q 671 393 519 393 q 721 384 708 393 q 733 367 733 375 q 722 360 733 360 q 706 366 718 360 q 656 372 693 372 q 419 300 513 372 q 431 244 431 275 q 406 188 431 214 q 336 161 382 161 q 314 185 314 161 q 388 297 314 235 q 272 354 351 354 q 140 299 193 354 q 86 167 86 244 q 156 32 86 90 q 363 -26 226 -26 q 774 119 583 -26 q 884 214 838 169 q 988 325 931 258 q 1109 480 1046 396 q 1174 567 1172 564 q 1179 574 1176 569 q 1185 581 1182 578 q 1075 679 1094 606 z "},"T":{"ha":964,"x_min":21,"x_max":2101,"o":"m 829 663 q 844 654 829 654 q 877 676 860 654 q 903 729 894 697 q 851 694 872 714 q 829 663 829 674 m 326 190 q 353 172 326 172 q 394 197 379 172 q 410 247 410 222 q 406 289 410 272 q 326 190 326 226 m 907 751 q 908 780 908 758 q 897 832 908 801 q 658 578 658 742 q 683 518 658 539 q 739 497 707 497 q 867 540 797 497 q 983 635 938 582 q 1028 722 1028 689 q 988 751 1028 751 q 935 742 967 751 q 892 656 924 692 q 830 621 861 621 q 799 642 799 621 q 829 699 799 665 q 907 751 860 732 m 1711 969 l 1711 965 q 1706 957 1711 958 q 1697 956 1700 956 q 1678 950 1688 953 q 1542 892 1607 931 q 1781 881 1708 881 q 1931 894 1854 881 q 2042 923 2007 908 q 2081 938 2078 938 q 2101 924 2101 938 q 2047 894 2101 913 q 1894 862 1992 876 q 1711 847 1796 847 q 1492 861 1626 847 q 1188 561 1346 761 q 1047 385 1121 476 q 894 216 972 294 q 731 74 817 138 q 313 -64 546 -64 q 94 -7 168 -64 q 21 140 21 50 q 105 306 21 229 q 318 382 189 382 q 425 325 399 382 q 651 411 543 411 q 721 399 686 411 q 728 386 728 396 q 715 376 728 376 q 690 383 710 376 q 649 389 669 389 q 431 307 549 389 q 435 276 435 292 q 405 182 435 225 q 335 139 375 139 q 294 168 294 139 q 323 230 294 192 q 399 306 351 268 q 308 360 374 360 q 131 294 200 360 q 61 147 61 228 q 128 13 61 67 q 322 -40 196 -40 q 560 9 447 -40 q 758 135 672 58 q 937 315 844 213 q 1103 513 1029 417 q 1269 708 1178 610 q 1443 865 1361 807 q 1165 883 1271 883 q 931 843 1060 883 q 940 792 940 815 q 939 763 940 769 q 1004 772 975 772 q 1067 731 1067 772 q 1014 628 1067 689 q 878 521 961 568 q 739 474 796 474 q 656 491 682 474 q 624 525 629 508 q 618 560 618 542 q 889 850 618 751 q 692 940 842 940 q 443 878 553 940 q 281 750 342 819 q 201 644 224 685 l 192 628 q 176 617 185 617 q 168 632 168 617 q 238 735 182 667 q 349 846 293 803 q 500 924 406 889 q 701 960 594 960 q 922 860 869 960 q 1235 910 1081 910 q 1488 897 1328 910 q 1697 974 1589 960 q 1711 969 1711 974 z "},"U":{"ha":956,"x_min":-254,"x_max":1264,"o":"m 358 633 q 401 669 381 633 q 428 751 422 704 q 371 701 393 733 q 349 651 349 668 q 358 633 349 633 m 1197 717 q 1051 576 1171 717 q 843 293 931 435 q 1100 541 993 422 q 1207 706 1207 660 q 1197 717 1207 717 m 450 760 q 410 655 442 700 q 349 610 379 610 q 319 637 319 610 q 351 704 319 664 q 429 767 382 744 l 429 779 q 414 853 429 822 q 187 679 279 792 q 94 478 94 567 q 128 400 94 429 q 229 371 161 371 q 444 491 335 371 q 553 701 553 611 q 483 765 553 765 q 450 760 469 765 m 644 928 q 808 810 808 928 q 714 544 808 674 q 515 326 649 457 q 422 231 464 276 q 326 51 326 128 q 342 17 326 31 q 381 3 357 3 q 781 240 488 3 q 1032 588 876 411 q 1243 764 1188 764 q 1264 742 1264 764 q 1129 534 1264 682 q 814 240 994 386 q 750 60 750 124 q 824 -32 750 -32 q 979 39 886 -32 q 994 46 989 46 q 1001 37 1000 46 q 988 18 1001 28 q 797 -56 875 -56 q 734 -24 757 -56 q 711 56 711 7 q 757 197 711 106 q 343 -25 471 -25 q 299 -6 319 -25 q 279 40 279 13 q 453 310 279 136 q 598 458 525 382 q 722 625 671 535 q 772 799 772 715 q 628 903 772 903 q 436 863 532 903 q 451 806 451 832 q 450 775 451 781 q 506 785 475 785 q 589 713 589 785 q 531 563 589 650 q 381 410 474 476 q 206 343 289 343 q 53 460 53 343 q 155 678 53 556 q 403 871 257 801 q 261 932 363 932 q -30 844 126 932 q -225 681 -186 756 q -244 664 -235 664 q -254 675 -254 664 q -249 692 -254 682 q -32 865 -187 779 q 271 951 124 951 q 428 881 383 951 q 644 928 538 928 z "},"V":{"ha":588,"x_min":-367,"x_max":1414,"o":"m 1328 956 q 1103 789 1276 956 q 1278 876 1203 829 q 1353 944 1353 924 q 1328 956 1353 956 m 811 976 q 799 986 811 986 q 629 792 729 986 q 762 892 713 843 q 811 976 811 942 m -331 843 q -224 681 -331 757 q 33 604 -117 604 q 346 660 183 604 q 157 886 286 803 q -121 969 28 969 q -278 934 -226 969 q -331 843 -331 899 m 404 449 q 394 435 403 435 q 386 450 386 435 q 353 640 386 549 q 21 582 182 582 q -253 663 -140 582 q -367 836 -367 743 q -301 946 -367 903 q -93 989 -236 989 q 182 899 50 989 q 371 668 314 808 q 581 764 482 710 q 702 953 642 886 q 832 1019 763 1019 q 849 1011 842 1019 q 857 994 857 1003 q 790 885 857 950 q 613 757 722 821 q 497 490 572 674 q 362 181 422 307 q 249 3 301 56 l 246 -1 l 251 -1 q 449 150 329 33 q 740 456 568 267 q 999 732 911 646 q 911 708 969 722 q 900 715 900 708 q 929 735 900 729 q 1028 761 990 747 q 1374 983 1260 983 q 1414 965 1414 983 q 1313 870 1414 933 q 1069 756 1211 807 q 764 440 996 683 q 397 74 532 196 q 207 -47 263 -47 q 197 -43 204 -47 q 190 -34 190 -39 q 222 7 190 -29 q 341 206 283 83 q 465 492 399 328 q 565 731 531 656 q 379 649 475 683 q 407 493 407 574 q 406 464 407 479 l 404 449 z "},"W":{"ha":1172,"x_min":-239,"x_max":1985,"o":"m 433 728 q 381 682 403 710 q 360 641 360 654 q 370 628 360 628 q 401 658 381 628 q 433 728 422 689 m 1935 951 q 1917 969 1935 969 q 1679 771 1864 969 q 1935 951 1935 867 m 1065 532 q 1047 546 1065 546 q 931 442 1015 546 q 789 226 847 339 q 985 412 904 324 q 1065 532 1065 500 m 458 740 q 413 641 444 685 q 353 597 381 597 q 325 622 325 597 q 359 684 325 646 q 438 744 393 722 q 443 791 443 763 q 429 846 443 819 q 176 651 282 779 q 69 431 69 524 q 169 343 69 343 q 332 409 240 343 q 486 560 424 475 q 549 697 549 644 q 490 746 549 746 q 458 740 478 746 m -217 681 q -231 671 -222 671 q -239 680 -239 671 q -208 724 -239 689 q -121 804 -178 758 q -3 878 -64 850 q 267 940 136 940 q 444 868 399 940 q 629 911 549 911 q 762 876 710 911 q 814 767 814 842 q 766 605 814 693 q 649 440 718 517 q 511 292 581 364 q 347 43 347 119 q 365 5 347 18 q 408 -8 383 -8 q 735 182 499 -8 q 913 447 799 315 q 1082 579 1026 579 q 1108 558 1108 579 q 1006 402 1108 514 q 765 179 903 290 q 731 53 731 99 q 799 -14 731 -14 q 1069 163 893 -14 q 1365 477 1207 300 q 1588 724 1522 654 l 1503 697 q 1492 696 1500 696 q 1485 702 1485 696 q 1511 715 1485 708 q 1608 746 1538 722 q 1956 996 1849 996 q 1985 969 1985 996 q 1657 747 1969 858 q 1514 589 1613 699 q 1351 410 1415 479 q 1194 247 1288 340 q 1035 98 1101 153 q 899 3 969 43 q 779 -37 828 -37 q 696 42 696 -37 q 718 142 696 82 q 374 -35 488 -35 q 297 26 297 -35 q 464 283 297 106 q 603 436 533 358 q 722 597 674 514 q 771 745 771 681 q 735 851 771 810 q 622 893 700 893 q 451 856 544 893 q 465 800 465 828 q 461 754 465 772 q 508 763 492 763 q 583 702 583 763 q 514 551 583 642 q 338 389 444 460 q 140 318 231 318 q 33 410 33 318 q 149 648 33 510 q 422 858 264 786 q 253 919 381 919 q -125 778 42 919 q -217 681 -189 724 z "},"X":{"ha":985,"x_min":-206,"x_max":1514,"o":"m 407 661 q 450 697 429 661 q 476 779 471 732 q 419 728 442 761 q 397 678 397 696 q 407 661 397 661 m 499 788 q 459 683 490 728 q 398 638 428 638 q 368 665 368 638 q 399 732 368 692 q 478 794 431 772 l 478 807 q 463 881 478 849 q 238 707 333 813 q 143 506 143 601 q 176 428 143 457 q 278 399 210 399 q 492 519 383 399 q 601 729 601 639 q 532 793 601 793 q 499 788 518 793 m -146 11 q 6 -22 -119 -22 q 292 74 131 -22 q 657 343 453 171 q 726 482 671 375 q 803 653 781 589 q 825 790 825 718 q 784 901 825 861 q 667 942 743 942 q 485 890 592 942 q 500 834 500 860 q 499 803 500 808 q 554 813 524 813 q 638 740 638 813 q 580 591 638 678 q 430 438 522 504 q 254 371 338 371 q 101 488 101 371 q 206 703 101 586 q 454 896 311 821 q 310 960 411 960 q 19 872 175 960 q -176 708 -137 783 q -196 692 -186 692 q -206 703 -206 692 q -200 719 -206 710 q 17 893 -139 807 q 319 979 172 979 q 476 907 433 979 q 683 967 596 967 q 861 774 861 967 q 839 661 861 719 q 764 506 817 603 q 696 376 711 408 q 899 555 743 417 q 1130 755 1054 693 q 1294 860 1206 817 q 1437 920 1383 904 q 1502 936 1490 936 q 1514 932 1514 936 q 1501 919 1514 924 q 1132 724 1317 875 q 912 528 1068 669 q 669 314 756 388 q 628 122 628 210 q 660 27 628 69 q 758 -15 692 -15 q 1000 97 868 -15 q 1026 119 1022 115 q 1037 122 1031 122 q 1043 116 1043 122 q 1032 99 1043 110 q 737 -40 881 -40 q 593 96 593 -40 q 632 285 593 182 q -14 -39 239 -39 q -109 -26 -64 -39 q -154 3 -154 -14 q -146 11 -154 11 z "},"Y":{"ha":828,"x_min":-247,"x_max":1233,"o":"m 496 -390 q 514 -406 496 -406 q 547 -385 532 -406 q 561 -342 561 -365 q 554 -296 561 -319 q 496 -390 496 -353 m 444 751 q 388 701 410 733 q 365 651 365 668 q 375 633 365 633 q 418 669 397 633 q 444 751 439 704 m 1176 663 q 1167 674 1176 674 q 1143 667 1157 674 q 1112 644 1129 660 q 1077 610 1094 628 q 1035 563 1060 593 q 991 508 1011 533 q 940 442 971 483 q 886 372 908 401 q 767 214 806 267 q 1052 476 928 342 q 1176 663 1176 610 m 282 -161 q 49 -211 164 -161 q -130 -326 -65 -261 q -194 -444 -194 -392 q -75 -514 -194 -514 q 408 -176 107 -514 q 282 -161 354 -161 m 111 478 q 144 400 111 429 q 246 371 178 371 q 460 491 351 371 q 569 701 569 611 q 500 765 569 765 q 467 760 486 765 q 427 655 458 700 q 364 610 396 610 q 332 640 332 610 q 364 708 332 669 q 446 768 396 747 l 446 779 q 431 853 446 822 q 203 679 296 792 q 111 478 111 567 m 457 -168 q 571 -260 543 -199 q 881 -171 696 -171 q 997 -190 943 -171 q 1006 -203 1006 -194 q 993 -212 1006 -212 q 980 -208 992 -212 q 956 -199 968 -203 q 871 -186 915 -186 q 578 -278 693 -186 q 583 -329 583 -294 q 556 -401 583 -364 q 497 -437 529 -437 q 465 -407 465 -437 q 547 -278 465 -346 q 440 -187 518 -218 q -97 -540 117 -540 q -210 -516 -172 -540 q -247 -453 -247 -492 q -177 -322 -247 -393 q 21 -198 -107 -251 q 289 -144 149 -144 q 425 -158 371 -144 q 632 92 519 -50 q 360 -25 454 -25 q 315 -6 336 -25 q 293 40 293 13 q 468 307 293 135 q 613 453 540 378 q 738 620 686 529 q 789 799 789 711 q 644 903 789 903 q 453 863 549 903 q 468 806 468 832 q 467 776 468 781 q 522 785 503 785 q 606 713 606 785 q 548 563 606 650 q 398 410 490 476 q 222 343 306 343 q 69 460 69 343 q 172 678 69 556 q 419 871 274 801 q 278 932 379 932 q -13 844 143 932 q -208 681 -169 756 q -228 664 -218 664 q -237 675 -237 664 q -232 692 -237 682 q -15 865 -171 779 q 288 951 140 951 q 444 881 400 951 q 661 928 554 928 q 826 810 826 928 q 776 621 826 717 q 656 448 726 525 q 514 301 585 371 q 393 165 443 231 q 343 51 343 100 q 358 17 343 31 q 397 3 374 3 q 667 138 478 3 q 742 235 693 172 q 817 332 790 297 q 885 420 843 367 q 953 504 928 474 q 1015 574 979 535 q 1074 636 1050 614 q 1125 681 1099 658 q 1213 721 1172 721 q 1233 699 1233 721 q 1074 463 1233 631 q 722 156 914 296 q 457 -168 578 -35 z "},"Z":{"ha":989,"x_min":-7,"x_max":1746,"o":"m 626 703 q 636 694 626 694 q 671 758 665 694 q 626 703 626 724 m 1683 935 q 1711 951 1711 944 q 1686 957 1711 957 q 1489 907 1586 957 q 1683 935 1613 910 m 483 42 q 268 94 347 94 q 137 76 189 94 q 85 35 85 57 q 224 -3 85 -3 q 483 42 364 -3 m 639 867 q 530 765 568 824 q 492 660 492 707 q 515 586 492 613 q 582 560 539 560 q 745 629 667 560 q 824 756 824 699 q 768 799 824 799 q 697 776 736 799 q 674 695 696 731 q 626 660 653 660 q 600 681 600 660 q 619 729 600 701 q 671 781 639 757 q 639 867 665 833 m 914 935 q 665 882 771 935 q 696 797 692 847 q 792 822 742 822 q 863 769 863 822 q 763 616 863 701 q 554 531 664 531 q 478 566 507 531 q 450 659 450 601 q 492 779 450 717 q 619 888 535 842 q 467 938 565 938 q 186 862 306 938 q 21 654 67 786 q 18 647 19 651 q 17 640 17 642 q 2 631 11 631 q -7 639 -7 631 l -1 657 q 170 875 46 788 q 467 963 294 963 q 649 903 586 963 q 972 961 782 961 q 1217 935 1051 961 q 1444 907 1383 908 q 1692 975 1567 975 q 1746 957 1746 975 q 1710 924 1746 942 q 1599 892 1674 907 q 1436 878 1525 878 q 1174 618 1317 800 q 903 299 1024 429 q 741 157 833 225 q 550 47 649 89 q 672 -6 592 31 q 801 -64 751 -43 q 921 -103 850 -85 q 1053 -121 992 -121 q 1382 -39 1257 -121 q 1392 -35 1388 -35 q 1396 -43 1396 -35 q 1386 -58 1396 -51 q 1003 -150 1244 -150 q 870 -124 946 -150 q 677 -43 794 -97 q 510 32 560 11 q 199 -22 361 -22 q 81 -6 124 -22 q 38 36 38 11 q 100 88 38 65 q 275 111 163 111 q 524 58 388 111 q 726 186 626 104 q 907 362 825 268 q 1065 550 989 456 q 1397 879 1257 785 q 1145 909 1282 883 q 914 935 1008 935 z "},"[":{"ha":357,"x_min":8,"x_max":594,"o":"m 103 -306 l 18 -306 q 8 -292 8 -306 l 476 1043 q 484 1057 478 1051 q 496 1063 490 1063 l 576 1063 q 594 1056 594 1063 q 585 1044 594 1050 q 568 1039 576 1039 l 500 1039 l 39 -281 l 111 -281 q 125 -287 125 -281 q 117 -300 125 -294 q 103 -306 110 -306 z "},"\\":{"ha":186,"x_min":-492,"x_max":750,"o":"m 750 624 q 721 588 750 601 q 685 603 685 588 q 697 622 685 611 q 708 639 708 632 q 672 646 708 646 q 581 614 635 646 q 460 514 526 582 q 204 224 349 403 l 294 224 q 311 215 311 224 q 286 201 311 204 l 186 201 q 99 93 124 124 q 16 -10 75 63 q -74 -114 -43 -82 q -156 -201 -104 -146 q -243 -283 -208 -257 q -321 -340 -278 -310 q -474 -396 -399 -396 q -492 -387 -492 -396 q -471 -378 -492 -378 l -464 -378 q -328 -325 -399 -378 q -256 -269 -287 -294 q -175 -191 -224 -244 q -98 -106 -126 -137 q -14 -6 -69 -75 q 150 201 64 92 l 68 201 q 56 210 56 201 q 79 222 56 222 l 167 222 q 465 553 342 439 q 689 668 589 668 q 750 624 750 668 z "},"]":{"ha":575,"x_min":122,"x_max":708,"o":"m 614 1064 l 699 1064 q 708 1050 708 1064 l 240 -285 q 233 -299 239 -293 q 221 -304 226 -304 l 140 -304 q 122 -298 122 -304 q 131 -286 122 -292 q 149 -281 140 -281 l 217 -281 l 678 1039 l 606 1039 q 592 1046 592 1039 q 599 1058 592 1053 q 614 1064 607 1064 z "},"^":{"ha":364,"x_min":124,"x_max":306,"o":"m 133 107 q 124 113 124 107 q 154 125 124 119 q 208 156 185 131 q 241 182 231 182 q 255 174 251 182 q 260 156 258 167 q 301 113 264 129 q 306 108 306 111 q 301 101 306 106 q 290 97 296 97 q 235 144 260 97 q 133 107 179 107 z "},"_":{"ha":604,"x_min":99,"x_max":563,"o":"m 556 -44 l 539 -51 l 111 -51 q 99 -44 99 -51 l 100 -39 q 128 -25 113 -25 l 553 -25 q 563 -32 563 -26 q 556 -44 563 -37 z "},"`":{"ha":364,"x_min":114,"x_max":282,"o":"m 282 300 q 272 293 282 293 q 175 322 236 293 q 114 372 114 350 q 127 385 114 385 q 156 369 140 385 q 264 308 196 325 q 282 300 282 304 z "},"a":{"ha":364,"x_min":26,"x_max":415,"o":"m 114 17 q 235 73 168 17 q 313 169 301 129 q 292 198 313 186 q 244 210 271 210 q 127 155 181 210 q 74 58 74 100 q 114 17 74 17 m 257 232 q 338 197 306 232 q 360 218 339 197 q 382 233 369 233 q 394 221 394 233 l 389 208 q 334 140 385 201 q 276 68 283 79 q 268 35 268 57 q 288 19 268 19 q 401 86 328 19 q 410 92 406 92 q 415 85 415 92 q 359 32 415 68 q 258 -4 303 -4 q 228 28 228 -4 q 224 39 228 39 q 219 38 221 39 q 88 -8 150 -8 q 26 47 26 -8 q 96 169 26 106 q 257 232 165 232 z "},"b":{"ha":346,"x_min":-19,"x_max":738,"o":"m 157 181 l 60 63 q 165 17 85 17 q 278 67 222 17 q 335 163 335 117 q 253 215 335 215 q 157 181 221 215 m 44 46 q -6 -4 8 -4 q -19 5 -19 -4 q -4 31 -19 14 q 279 374 211 279 q 498 591 400 514 q 676 668 596 668 q 738 624 738 668 q 708 588 738 603 q 672 603 672 588 q 684 622 672 611 q 696 639 696 632 q 667 646 696 646 q 512 573 599 646 q 310 365 425 500 q 188 218 307 364 q 289 244 233 244 q 374 179 374 244 q 303 56 374 121 q 153 -8 232 -8 q 44 46 74 -8 z "},"c":{"ha":299,"x_min":26,"x_max":356,"o":"m 129 -15 q 26 51 26 -15 q 99 174 26 111 q 249 238 171 238 q 328 186 328 238 q 296 129 328 154 q 238 104 264 104 q 201 115 213 104 q 189 134 189 125 q 199 155 189 143 q 217 168 210 167 q 229 157 229 168 q 226 151 229 154 q 224 132 224 147 q 240 121 224 121 q 273 137 256 121 q 290 175 290 153 q 238 222 290 222 q 128 166 185 222 q 71 60 71 110 q 150 4 71 4 q 342 86 263 4 q 351 92 346 92 q 356 84 356 92 q 333 54 356 76 q 256 8 311 32 q 129 -15 200 -15 z "},"d":{"ha":338,"x_min":31,"x_max":669,"o":"m 272 542 q 272 510 272 542 q 310 421 272 479 q 410 339 347 363 q 453 553 453 464 q 368 685 453 685 q 308 653 332 685 q 272 542 272 604 m 240 239 q 285 229 265 239 q 314 208 306 219 l 321 199 q 307 182 321 182 q 294 193 299 182 q 228 217 265 217 q 114 164 163 217 q 65 63 65 111 q 113 14 65 14 q 273 101 196 14 q 400 317 350 189 q 289 394 335 336 q 243 517 243 453 q 280 646 243 581 q 379 711 317 711 q 456 665 425 711 q 488 540 488 619 q 440 331 488 461 q 474 328 451 328 q 639 404 567 328 q 663 422 657 422 q 669 413 669 422 q 658 393 669 404 q 454 308 576 308 q 432 310 439 308 q 287 81 376 174 q 92 -11 197 -11 q 31 53 31 -11 q 90 178 31 117 q 240 239 149 239 z "},"e":{"ha":260,"x_min":32,"x_max":313,"o":"m 72 72 l 72 63 q 228 182 228 122 q 190 213 228 213 q 112 165 151 213 q 72 72 72 118 m 263 193 q 76 49 263 110 q 138 17 88 17 q 299 86 222 17 q 308 92 303 92 q 313 83 313 92 q 288 53 313 74 q 217 13 263 32 q 126 -7 171 -7 q 32 63 32 -7 q 90 178 32 119 q 214 236 147 236 q 263 193 263 236 z "},"f":{"ha":186,"x_min":-549,"x_max":750,"o":"m -154 -319 q -110 -295 -128 -318 q -92 -246 -92 -272 l -92 -243 q -158 -314 -158 -274 q -154 -319 -158 -319 m -464 -378 q -143 -154 -346 -378 q -237 -139 -178 -139 q -422 -212 -336 -139 q -507 -342 -507 -285 q -464 -378 -507 -378 m 750 624 q 721 588 750 601 q 685 603 685 588 q 697 622 685 611 q 708 639 708 632 q 672 646 708 646 q 581 614 635 646 q 460 514 526 582 q 204 224 349 403 l 294 224 q 311 215 311 224 q 286 201 311 204 l 186 201 q -110 -153 -36 -74 q -72 -219 -78 -178 q 15 -199 -21 -199 q 81 -212 50 -199 q 111 -247 111 -226 q 107 -257 111 -256 l 104 -257 q 97 -251 101 -257 q 83 -236 92 -244 q 18 -217 64 -217 q -72 -235 -28 -217 q -101 -315 -74 -282 q -159 -349 -129 -349 q -189 -324 -189 -349 q -161 -274 -189 -300 q -92 -228 -133 -247 q -122 -167 -97 -187 q -474 -396 -339 -396 q -549 -344 -549 -396 q -447 -200 -549 -278 q -224 -122 -344 -122 q -131 -140 -167 -122 q 150 201 -68 -71 l 68 201 q 56 210 56 201 q 79 222 56 222 l 167 222 q 465 553 342 439 q 689 668 589 668 q 750 624 750 668 z "},"g":{"ha":317,"x_min":-297,"x_max":386,"o":"m 313 169 q 233 219 304 219 q 110 168 163 219 q 58 69 58 117 q 108 25 58 25 q 217 63 154 25 l 238 75 l 313 169 m -212 -354 q 88 -115 -108 -354 l 86 -115 q -150 -190 -47 -115 q -253 -322 -253 -264 q -212 -354 -253 -354 m 114 -306 q 144 -310 133 -310 q 215 -287 190 -310 q 240 -227 240 -264 q 209 -158 240 -190 q 122 -118 178 -126 q 5 -245 50 -200 q -104 -331 -40 -290 q -224 -371 -168 -371 q -297 -326 -297 -371 q -172 -180 -297 -261 q 103 -97 -46 -99 l 204 33 q 97 1 151 1 q 18 64 18 1 q 83 182 18 122 q 233 242 147 242 q 332 189 319 242 q 353 218 347 206 q 374 233 363 233 q 386 225 386 233 l 386 222 q 138 -99 386 204 q 232 -142 199 -107 q 265 -221 265 -178 q 235 -294 265 -264 q 156 -324 204 -324 q 108 -311 108 -324 q 114 -306 108 -306 z "},"h":{"ha":340,"x_min":-7,"x_max":679,"o":"m 636 638 q 625 647 636 647 q 353 390 581 647 q 547 527 458 447 q 636 638 636 607 m 3 -1 q -7 10 -7 -1 q 4 31 -7 22 q 286 358 147 204 q 654 676 576 676 q 671 669 663 676 q 679 653 679 663 q 565 516 679 613 q 324 357 450 419 q 192 206 268 294 q 301 246 257 246 q 335 236 322 246 q 354 207 349 226 q 300 116 354 175 q 246 35 246 57 q 265 19 246 19 q 379 86 306 19 q 388 92 383 92 q 393 85 393 92 q 337 32 393 68 q 236 -4 281 -4 q 206 26 206 -4 q 258 116 206 57 q 311 194 311 175 q 273 213 311 214 q 158 167 235 213 q 33 25 42 33 q 19 11 25 17 q 3 -1 8 -1 z "},"i":{"ha":140,"x_min":4,"x_max":299,"o":"m 240 332 q 253 359 240 344 q 276 374 265 374 q 292 367 286 374 q 299 349 299 361 q 284 325 299 336 q 260 314 269 314 q 240 332 240 314 m 44 35 q 81 96 44 57 l 185 214 q 193 228 193 222 q 188 238 193 233 q 176 242 183 242 q 163 237 168 242 q 141 213 157 232 q 97 160 125 193 q 60 117 69 128 q 40 92 51 106 q 22 71 29 79 q 4 28 4 46 q 35 -4 4 -4 q 135 32 79 -4 q 192 85 192 68 q 187 92 192 92 q 178 86 182 92 q 64 19 104 19 q 44 35 44 19 z "},"j":{"ha":138,"x_min":-533,"x_max":283,"o":"m 225 332 q 238 359 225 344 q 260 374 250 374 q 277 367 271 374 q 283 349 283 361 q 269 325 283 336 q 244 314 254 314 q 225 332 225 314 m -169 -318 q -150 -332 -169 -332 q -108 -303 -131 -332 q -83 -242 -86 -275 q -145 -279 -121 -257 q -169 -318 -169 -301 m -217 -149 q -412 -208 -336 -149 q -489 -321 -489 -267 q -449 -358 -489 -358 q -172 -151 -364 -358 q -217 -149 -197 -149 m 201 243 l 194 229 q 41 50 150 179 q -128 -144 -68 -79 q -56 -219 -60 -164 q 10 -211 -24 -211 q 81 -268 69 -211 q 71 -279 81 -279 q 61 -269 67 -279 q 52 -253 56 -258 q 42 -240 49 -247 q 1 -225 26 -225 q -56 -232 -24 -225 q -96 -319 -58 -278 q -174 -361 -133 -361 q -197 -340 -197 -361 q -165 -281 -197 -315 q -83 -228 -133 -247 q -142 -158 -86 -179 q -475 -382 -349 -382 q -533 -332 -533 -382 q -442 -201 -533 -268 q -207 -135 -351 -135 q -158 -137 -172 -135 q -8 35 -100 -74 q 103 165 83 144 q 142 208 124 185 q 189 254 176 254 q 201 243 201 254 z "},"k":{"ha":353,"x_min":-24,"x_max":554,"o":"m 233 17 q 394 86 318 17 q 403 92 399 92 q 408 83 408 92 q 383 53 408 74 q 313 13 358 32 q 240 -7 267 -7 q 200 -3 213 -7 q 173 15 188 0 q 158 59 158 29 q 181 110 158 89 q 231 136 203 131 q 301 185 301 149 q 269 210 301 210 q 131 161 228 210 q 33 36 60 71 q -8 2 7 1 q -24 13 -24 3 q -15 31 -24 22 q 228 328 83 156 q 438 583 372 501 q 450 601 450 596 q 447 607 450 607 q 437 602 444 607 q 393 586 429 597 q 319 575 357 575 q 282 592 282 575 q 285 599 282 596 q 291 603 289 603 q 308 597 293 603 q 341 590 322 590 q 413 610 360 590 q 519 672 467 629 q 540 683 533 683 q 554 672 554 683 l 547 658 q 381 463 542 653 q 151 188 221 274 q 299 238 249 238 q 350 192 350 238 q 326 150 350 165 q 273 130 301 135 q 220 108 244 125 q 196 60 196 90 q 233 17 196 17 z "},"l":{"ha":161,"x_min":15,"x_max":506,"o":"m 228 356 q 267 404 228 356 q 386 548 306 451 q 472 650 467 644 q 491 656 476 656 q 506 647 506 656 l 506 643 q 499 631 506 635 q 244 333 438 572 q 51 60 51 94 q 85 26 51 26 q 121 33 96 26 q 186 72 165 51 q 212 92 207 92 q 217 83 217 92 q 192 53 217 75 q 129 15 167 32 q 61 -1 92 -1 q 15 42 15 -1 q 83 165 15 68 q 228 356 151 261 z "},"m":{"ha":458,"x_min":-26,"x_max":513,"o":"m 357 26 q 376 11 357 11 q 499 86 415 11 q 508 92 503 92 q 513 85 513 92 q 452 27 513 67 q 347 -12 392 -12 q 317 19 317 -12 q 369 106 317 47 q 422 185 422 165 q 386 205 422 206 q 258 149 350 204 q 158 9 163 15 q 142 3 153 3 q 131 14 131 3 q 143 38 131 25 q 178 84 161 63 q 204 119 194 106 q 223 143 214 132 q 236 160 232 154 q 244 171 240 167 q 248 178 247 175 q 249 185 249 182 q 250 192 250 188 q 231 207 250 207 q 178 190 213 207 q 131 163 144 174 q 67 88 117 153 q 3 1 18 24 q -17 -10 -7 -10 q -26 1 -26 -10 q -22 17 -26 13 q -6 38 -18 22 q 23 76 6 53 q 50 111 40 99 q 140 231 60 124 q 161 242 149 242 q 174 228 174 242 q 164 204 174 214 l 165 203 q 247 231 207 231 q 286 201 286 231 q 281 181 286 189 q 417 233 371 233 q 449 225 438 233 q 465 199 461 217 q 411 108 465 167 q 357 26 357 49 z "},"n":{"ha":326,"x_min":-26,"x_max":379,"o":"m 340 207 q 286 116 340 175 q 232 35 232 57 q 251 19 232 19 q 365 86 292 19 q 374 92 369 92 q 379 85 379 92 q 323 32 379 68 q 222 -4 267 -4 q 192 26 192 -4 q 244 116 192 57 q 297 194 297 175 q 263 213 297 214 q 142 165 229 213 q 58 72 122 147 q -11 -4 -7 -3 q -26 10 -26 -4 q -6 38 -25 14 q 18 67 13 61 l 131 207 q 181 254 172 254 q 197 240 197 254 q 181 219 193 233 q 163 196 168 206 q 290 246 242 246 q 324 236 311 246 q 340 207 336 226 z "},"o":{"ha":296,"x_min":6,"x_max":443,"o":"m 214 228 q 260 160 214 171 q 261 188 261 167 q 250 224 261 210 q 226 239 239 239 q 214 228 214 239 m 254 139 q 182 214 186 146 q 94 162 135 213 q 53 65 53 111 q 107 14 53 14 q 190 51 143 14 q 254 139 238 88 m 6 54 q 65 172 6 110 q 185 236 124 235 q 227 263 197 263 q 274 245 257 263 q 292 201 292 228 q 286 157 292 174 q 376 176 326 157 q 436 206 426 196 l 443 199 q 432 186 443 196 q 372 158 421 176 q 281 139 324 140 q 203 37 258 81 q 88 -7 147 -7 q 6 54 6 -7 z "},"p":{"ha":279,"x_min":-572,"x_max":332,"o":"m -82 -244 q -145 -284 -121 -260 q -169 -320 -169 -308 q -161 -332 -169 -332 q -109 -306 -132 -332 q -82 -244 -86 -279 m -210 -129 q -429 -195 -324 -129 q -535 -339 -535 -261 q -485 -383 -535 -383 q -157 -135 -383 -383 q -210 -129 -178 -129 m 303 204 q 303 186 303 204 q 244 108 303 168 q 185 34 185 49 q 204 19 185 19 q 318 86 244 19 q 327 92 322 92 q 332 85 332 92 q 276 32 332 68 q 175 -4 219 -4 q 144 28 144 -4 q 206 113 144 53 q 268 193 268 172 q 243 214 268 214 q 158 192 200 215 l 146 185 q 42 58 135 172 q -117 -131 -50 -56 q -58 -221 -58 -158 l -58 -224 q 18 -214 -19 -214 q 83 -230 56 -214 q 111 -269 111 -246 q 108 -281 111 -274 q 96 -287 104 -287 q 83 -276 88 -287 q 69 -256 78 -265 q 8 -229 47 -229 q -58 -237 -31 -229 q -102 -320 -65 -285 q -189 -356 -139 -356 q -210 -339 -210 -356 q -173 -283 -210 -317 q -82 -229 -136 -249 q -131 -146 -82 -171 q -492 -403 -367 -403 q -572 -350 -572 -403 q -448 -187 -572 -261 q -211 -112 -324 -112 q -143 -121 -172 -112 q 119 194 -28 8 q 281 400 265 381 q 308 419 296 419 q 321 407 321 419 q 314 390 321 400 q 174 218 174 222 q 211 232 179 224 q 260 240 243 240 q 303 204 303 240 z "},"q":{"ha":328,"x_min":-206,"x_max":397,"o":"m 96 -128 q -104 -366 -104 -353 q -72 -379 -104 -379 q 42 -315 -40 -379 q 125 -182 125 -250 q 96 -128 125 -147 m 138 29 q 214 56 178 29 l 226 64 q 315 175 315 156 q 235 229 307 229 q 113 183 164 229 q 61 85 61 136 q 138 29 61 29 m 364 232 q 385 244 374 244 q 397 236 397 244 l 397 233 q 390 215 397 222 q 344 161 383 208 q 115 -106 235 29 q 163 -164 163 -125 q 67 -323 163 -244 q -104 -401 -28 -401 q -139 -378 -139 -401 q -51 -262 -139 -358 q 76 -118 38 -165 q -48 -132 38 -99 q -183 -218 -133 -165 q -196 -228 -192 -228 q -206 -219 -206 -228 l -196 -204 q 51 -94 -60 -94 q 93 -99 72 -94 q 144 -37 113 -78 q 193 22 176 4 q 113 7 146 7 q 22 82 22 7 q 89 204 22 157 q 235 251 156 251 q 338 199 315 251 l 364 232 z "},"r":{"ha":247,"x_min":-26,"x_max":286,"o":"m 247 124 q 279 135 260 124 q 286 130 286 135 q 283 122 286 125 q 257 113 279 119 q 221 106 235 106 q 175 135 175 106 q 181 158 175 146 q 188 175 188 171 q 185 179 188 179 q 104 131 157 169 l 6 7 q -16 -7 -6 -7 q -26 0 -26 -7 q -17 22 -26 7 l 71 132 q 107 179 81 144 q 138 221 133 214 q 158 228 143 228 q 172 222 172 228 q 169 214 172 217 l 150 186 q 140 175 146 181 q 240 225 153 178 q 250 226 243 226 q 257 223 257 226 q 255 216 257 219 q 240 197 253 213 q 215 151 215 167 q 247 124 215 124 z "},"s":{"ha":299,"x_min":22,"x_max":390,"o":"m 22 54 q 56 122 22 96 q 128 149 89 149 q 168 114 168 149 q 158 83 168 99 q 135 68 147 68 q 124 77 124 68 q 133 94 124 86 q 142 111 142 103 q 119 135 142 135 q 77 115 97 135 q 57 67 57 94 q 71 22 57 40 q 115 4 85 4 q 166 30 144 4 q 199 92 188 56 q 223 167 210 129 q 263 230 236 204 q 322 256 290 256 q 372 245 354 256 q 390 218 390 235 q 377 186 390 201 q 349 171 364 171 q 332 178 333 171 q 347 197 332 189 q 356 217 356 200 q 325 239 356 239 q 274 199 294 239 q 242 113 253 160 q 197 27 232 67 q 104 -12 163 -12 q 47 4 68 -12 q 25 38 26 21 l 22 54 z "},"t":{"ha":144,"x_min":15,"x_max":360,"o":"m 313 453 q 322 463 313 453 q 345 472 331 472 q 360 464 360 472 l 360 460 q 337 431 360 451 q 226 307 314 411 l 342 307 q 358 299 358 307 q 325 288 358 288 l 210 288 q 51 57 51 99 q 85 26 51 26 q 121 33 96 26 q 186 72 165 51 q 212 92 207 92 q 217 83 217 92 q 192 53 217 75 q 129 15 167 32 q 61 -1 92 -1 q 15 46 15 -1 q 175 289 15 93 q 94 290 115 289 q 72 298 72 290 q 96 308 72 306 l 192 308 q 313 453 294 433 z "},"u":{"ha":317,"x_min":-7,"x_max":361,"o":"m 174 28 q 189 75 174 50 q 189 78 189 76 q 188 78 189 79 q 33 -1 94 -1 q -7 26 -7 -1 q 32 106 -7 54 q 110 199 71 158 q 147 233 150 239 q 164 240 154 240 q 174 231 174 240 q 165 214 174 222 q 134 180 157 206 q 98 139 111 154 q 67 103 85 124 q 33 40 33 60 q 56 25 33 25 q 118 51 78 25 q 188 106 158 78 l 217 132 q 296 214 275 183 q 321 229 308 229 q 333 219 333 229 q 297 174 333 211 q 219 85 225 97 q 206 42 206 53 q 240 19 206 19 q 347 86 274 19 q 356 92 351 92 q 361 85 361 92 q 305 32 361 68 q 204 -4 249 -4 q 174 28 174 -4 z "},"v":{"ha":264,"x_min":8,"x_max":414,"o":"m 249 163 q 269 225 269 200 q 244 250 269 250 q 225 216 225 250 q 249 163 225 182 m 138 279 q 153 256 153 279 q 99 150 153 233 q 46 42 46 67 q 65 18 46 18 q 154 53 108 18 q 232 136 200 88 q 194 194 194 158 q 213 253 194 231 q 258 275 231 275 q 296 238 296 275 q 269 151 296 200 q 305 149 281 149 q 354 162 329 149 q 390 188 379 175 q 407 200 400 200 q 414 196 414 200 q 401 173 414 189 q 353 141 388 157 q 292 125 319 125 q 254 128 265 125 q 158 30 215 69 q 40 -10 101 -10 q 8 24 8 -10 q 67 144 8 58 q 125 255 125 231 q 138 279 125 279 z "},"w":{"ha":446,"x_min":-4,"x_max":593,"o":"m 429 176 q 454 246 454 219 q 439 272 454 272 q 421 260 429 272 q 413 220 413 249 q 429 176 413 192 m 279 169 q 268 176 279 176 q 220 145 243 176 q 192 79 197 114 q 279 169 279 143 m 435 147 q 328 41 392 86 q 217 -4 265 -4 q 163 39 169 -4 q 39 -10 82 -10 q -4 19 -4 -10 q 104 199 -4 68 q 138 237 118 215 q 162 263 158 258 q 175 267 165 267 q 185 258 185 267 q 170 233 185 249 q 128 183 156 217 q 68 103 100 150 q 36 43 36 56 q 58 18 36 18 q 163 60 96 18 q 208 156 168 110 q 296 203 247 203 q 315 189 315 203 q 278 131 315 169 q 190 57 242 93 q 233 18 193 18 q 326 60 272 18 q 417 156 379 101 q 385 215 385 178 q 402 275 385 253 q 449 297 419 297 q 479 259 479 297 q 447 167 479 221 q 471 164 461 164 q 586 206 525 164 l 593 199 q 590 192 593 194 q 458 144 519 144 q 435 147 449 144 z "},"x":{"ha":278,"x_min":-28,"x_max":338,"o":"m 136 101 q 326 222 306 222 q 338 217 338 222 q 314 201 338 214 q 135 79 290 188 q 190 18 135 18 q 306 86 231 18 q 315 92 310 92 q 319 85 319 92 q 263 32 319 68 q 163 -4 207 -4 q 97 53 97 -4 l -14 -25 q -28 -19 -28 -25 q -19 -8 -28 -14 l 99 75 q 157 217 111 143 q 178 246 174 243 q 191 253 182 253 q 200 244 200 253 q 196 232 200 236 q 136 101 146 182 z "},"y":{"ha":282,"x_min":-351,"x_max":350,"o":"m 10 -307 q 31 -315 10 -315 q 73 -290 51 -315 q 96 -232 94 -264 q 34 -271 58 -249 q 10 -307 10 -293 m -24 -144 q -219 -200 -122 -144 q -317 -326 -317 -256 q -303 -358 -317 -346 q -268 -371 -290 -371 q 29 -150 -168 -371 q -24 -144 8 -144 m 346 194 q 228 49 322 171 q 72 -144 135 -74 q 117 -210 115 -167 q 201 -193 167 -193 q 267 -204 235 -193 q 300 -232 300 -215 q 292 -244 300 -244 q 282 -236 289 -244 q 209 -211 261 -211 q 115 -225 157 -211 q 78 -304 111 -268 q 13 -340 44 -340 q -19 -324 -19 -340 q 13 -270 -19 -300 q 94 -218 46 -240 q 57 -162 90 -181 q -281 -389 -143 -389 q -351 -332 -351 -389 q -242 -187 -351 -249 q -18 -126 -132 -126 q 44 -133 14 -126 q 155 -3 90 -83 q 233 93 219 78 q 179 54 221 81 q 119 18 138 28 q 39 -6 74 -6 q 4 22 4 -6 q 27 77 4 42 q 75 139 50 113 q 177 240 165 240 q 189 231 189 240 q 179 213 189 222 l 139 169 q 49 43 49 72 q 68 24 49 24 q 176 79 103 24 q 288 174 250 135 q 338 214 325 214 q 350 206 350 214 l 346 194 z "},"z":{"ha":426,"x_min":0,"x_max":747,"o":"m 449 206 q 490 222 490 210 q 481 233 490 233 q 418 207 451 233 q 449 206 428 206 m 149 13 q 69 33 97 33 q 35 21 40 33 q 74 -3 35 -3 q 149 13 114 -3 m 721 -104 q 740 -96 733 -96 q 747 -107 747 -96 q 728 -126 747 -118 q 576 -160 642 -160 q 444 -135 511 -160 q 288 -60 376 -110 q 174 1 199 -11 q 76 -22 114 -22 q 19 -12 39 -22 q 0 10 0 -3 q 60 49 0 42 q 167 22 97 49 q 281 114 210 46 q 371 197 351 182 q 256 233 321 206 q 163 261 190 261 q 119 249 135 261 q 103 214 103 236 q 126 170 103 192 q 176 149 149 149 q 221 153 203 149 q 244 157 239 157 q 249 153 249 157 q 244 147 249 150 q 161 136 189 136 q 104 155 133 136 q 75 208 75 174 q 104 260 75 242 q 171 278 133 278 q 280 249 208 278 q 389 211 351 219 q 483 249 440 249 q 525 229 525 249 q 493 203 525 214 q 438 193 461 193 q 403 194 414 193 q 347 139 385 179 q 193 11 261 46 q 316 -47 226 -3 q 468 -113 406 -90 q 599 -136 531 -136 q 721 -104 668 -136 z "},"{":{"ha":426,"x_min":18,"x_max":928,"o":"m 207 521 q 219 506 207 513 q 251 500 231 500 q 281 501 271 500 q 231 542 256 542 q 207 521 207 542 m 206 -260 q 186 -230 186 -239 q 196 -221 186 -221 q 214 -229 206 -221 q 256 -315 256 -276 q 233 -376 256 -354 q 176 -399 210 -399 q 63 -322 107 -399 q 18 -189 18 -244 q 49 -77 18 -133 q 122 28 79 -21 q 208 128 165 78 q 313 356 313 251 q 292 479 313 428 q 244 478 276 478 q 190 491 213 478 q 168 523 168 504 q 183 555 168 542 q 219 568 197 568 q 304 503 271 568 q 439 556 388 513 q 510 662 490 600 q 540 795 529 724 q 563 937 550 867 q 599 1064 575 1007 q 682 1156 624 1121 q 833 1192 740 1192 q 902 1172 876 1192 q 928 1126 928 1153 q 899 1081 928 1100 q 814 1061 869 1061 q 793 1074 793 1061 q 831 1088 793 1088 q 904 1122 904 1088 q 883 1151 904 1139 q 826 1164 861 1164 q 691 1130 743 1164 q 617 1040 639 1096 q 583 915 594 983 q 558 776 571 847 q 524 644 546 706 q 450 539 503 583 q 314 482 397 494 q 333 369 333 435 q 304 242 333 303 q 233 128 275 181 q 147 24 190 75 q 47 -189 47 -99 q 83 -301 47 -236 q 174 -365 119 -365 q 213 -351 196 -365 q 229 -313 229 -337 q 206 -260 229 -289 z "},"|":{"ha":371,"x_min":78,"x_max":569,"o":"m 81 -267 l 538 1039 q 563 1063 546 1063 q 569 1058 569 1063 q 568 1050 569 1053 l 100 -285 q 85 -290 92 -290 q 78 -282 78 -290 q 81 -267 78 -274 z "},"}":{"ha":619,"x_min":-96,"x_max":814,"o":"m 625 274 q 613 288 625 282 q 581 294 601 294 q 550 293 561 294 q 600 253 575 253 q 625 274 625 253 m 626 1054 q 646 1024 646 1033 q 636 1015 646 1015 q 618 1024 626 1015 q 576 1110 576 1071 q 599 1171 576 1149 q 656 1193 622 1193 q 769 1116 725 1193 q 814 983 814 1039 q 783 872 814 928 q 710 766 753 815 q 624 667 667 717 q 519 439 519 543 q 540 314 519 363 q 594 317 568 317 q 642 303 619 317 q 664 272 664 290 q 649 240 664 253 q 613 226 635 226 q 526 290 560 226 q 392 237 443 281 q 322 132 342 193 q 291 -1 301 71 q 269 -142 281 -72 q 233 -269 257 -212 q 150 -362 208 -326 q -1 -397 92 -397 q -70 -378 -44 -397 q -96 -332 -96 -358 q -67 -286 -96 -306 q 18 -267 -37 -267 q 39 -280 39 -267 q 1 -293 39 -293 q -72 -328 -72 -293 q -51 -357 -72 -344 q 6 -369 -29 -369 q 141 -335 89 -369 q 215 -245 193 -301 q 249 -121 238 -189 q 273 18 261 -53 q 307 150 285 89 q 381 255 329 211 q 517 311 433 299 q 499 427 499 363 q 528 553 499 492 q 599 667 557 614 q 683 771 642 719 q 785 983 785 893 q 749 1095 785 1031 q 658 1160 713 1160 q 619 1146 636 1160 q 603 1108 603 1132 q 626 1054 603 1083 z "},"~":{"ha":397,"x_min":124,"x_max":364,"o":"m 124 114 q 144 144 124 133 q 181 154 164 154 q 241 137 197 154 q 306 119 285 119 q 340 129 326 119 q 358 139 353 139 q 364 131 364 139 q 341 105 364 115 q 301 94 318 94 q 240 113 285 94 q 178 131 194 131 q 148 119 161 131 q 129 108 135 108 q 124 114 124 108 z "},"":{"ha":376,"x_min":-192,"x_max":421,"o":"m -165 -424 q -192 -403 -192 -421 q -133 -356 -174 -393 q -47 -267 -92 -318 q 233 113 71 -133 q 293 206 282 183 q 317 249 311 249 q 331 235 331 249 q 329 225 331 229 q 175 -14 278 131 q -6 -256 72 -158 l -82 -351 q -165 -424 -142 -424 m 421 414 q 408 387 421 401 q 385 372 396 372 q 369 378 375 372 q 363 397 363 385 q 377 421 363 410 q 401 432 392 432 q 421 414 421 432 z "},"":{"ha":450,"x_min":143,"x_max":490,"o":"m 251 276 l 250 276 l 167 147 q 157 142 163 142 l 151 142 q 144 149 143 142 q 150 167 144 157 q 157 181 156 178 l 221 278 q 149 343 149 288 q 221 466 149 403 q 375 529 293 529 l 385 529 l 474 661 q 481 665 476 665 q 490 652 490 665 q 486 633 490 639 l 413 524 q 450 478 450 510 q 418 421 450 446 q 360 396 386 396 q 323 406 335 396 q 311 426 311 417 q 322 447 311 435 q 339 460 332 458 q 351 449 351 460 q 349 442 351 446 q 346 424 346 439 q 362 413 346 413 q 395 428 378 413 q 413 467 413 444 q 360 514 413 514 q 250 458 307 514 q 193 351 193 401 q 272 296 193 296 q 464 378 385 296 q 473 383 468 383 q 478 376 478 383 q 456 346 478 368 q 378 300 433 324 q 251 276 322 276 z "},"":{"ha":1414,"x_min":-86,"x_max":1678,"o":"m 1317 694 q 1318 679 1317 683 q 1425 788 1425 750 q 1398 800 1425 800 q 1344 765 1371 800 q 1317 694 1317 731 m -47 49 q 106 -3 -46 -3 q 394 58 257 -3 q 88 93 224 93 q -47 49 -47 85 m 1458 800 q 1326 661 1458 746 q 1388 638 1346 638 q 1553 727 1471 638 q 1636 896 1636 817 q 1519 985 1636 985 q 1224 847 1358 985 q 1103 712 1157 781 q 1015 592 1050 643 q 979 540 981 542 q 972 531 975 536 q 1289 660 1111 553 q 1286 681 1286 667 q 1328 776 1286 728 q 1415 824 1371 824 q 1458 800 1458 824 m 568 371 q 606 394 578 394 l 807 394 q 901 508 871 469 q 789 597 789 508 q 840 709 789 654 q 953 764 892 764 q 973 757 965 764 q 981 742 981 750 q 972 735 981 735 q 965 740 971 735 q 950 744 958 744 q 859 703 897 744 q 821 613 821 661 q 915 526 821 529 q 1158 817 1081 739 q 1533 1003 1344 1003 q 1678 908 1678 1003 q 1573 717 1678 821 q 1376 614 1468 614 q 1297 643 1318 614 q 960 513 1121 539 q 867 394 874 403 l 1021 394 q 1033 387 1033 393 q 1028 374 1033 381 q 1006 363 1017 363 l 839 363 l 797 317 l 958 317 q 971 309 971 315 q 964 296 971 303 q 944 285 954 285 l 767 285 q 483 74 635 149 q 567 60 496 72 q 664 44 638 47 q 747 33 690 40 q 944 21 847 21 q 1251 97 1135 21 q 1262 101 1258 101 q 1265 93 1265 101 q 1256 78 1265 85 q 1100 15 1214 43 q 872 -14 986 -14 q 575 19 735 -14 q 501 35 551 25 q 432 50 451 46 q 51 -22 256 -22 q -86 38 -86 -12 q 125 110 -78 110 q 442 81 251 110 q 708 285 575 149 l 521 285 q 506 293 506 285 q 543 317 515 317 l 739 317 q 779 363 767 347 l 583 363 q 568 371 568 363 z "},"":{"ha":517,"x_min":206,"x_max":721,"o":"m 326 382 q 353 313 326 340 q 426 285 379 285 q 530 328 474 285 q 586 449 586 371 q 560 519 586 492 q 480 547 533 547 q 376 497 426 547 q 326 382 326 446 m 607 506 q 618 450 618 481 q 598 377 618 419 q 542 304 578 335 l 608 211 q 611 206 611 208 q 599 197 611 197 q 578 207 588 197 l 519 289 q 417 258 474 258 q 326 292 360 258 l 217 215 q 210 214 214 214 q 206 224 206 214 q 215 243 206 233 l 310 314 q 294 375 294 342 q 356 508 294 447 l 286 600 q 297 625 289 625 q 312 613 304 625 q 321 600 319 601 l 375 525 q 499 571 435 571 q 597 524 564 571 l 699 604 q 721 595 721 604 q 697 569 721 586 l 607 506 z "},"":{"ha":781,"x_min":-443,"x_max":1038,"o":"m 318 -406 q 327 -406 318 -406 q 351 -385 336 -406 q 365 -342 365 -365 q 358 -296 365 -319 q 300 -390 300 -353 q 318 -406 300 -406 m 971 674 q 656 325 917 674 q 594 244 615 272 q 858 467 735 336 q 981 663 981 599 q 971 674 981 674 m -271 -514 q 213 -176 -89 -514 q 86 -161 158 -161 q -147 -211 -32 -161 q -326 -326 -261 -261 q -390 -444 -390 -392 q -271 -514 -390 -514 m 156 42 q 193 65 165 65 l 414 65 l 500 175 q 351 129 408 129 q 285 197 285 129 q 394 453 285 271 q 471 615 436 519 q 506 799 506 711 q 361 903 506 903 q 332 915 332 903 q 378 928 332 928 q 543 810 543 928 q 510 635 543 725 q 439 483 478 546 q 335 208 335 314 q 350 174 335 188 q 389 160 365 160 q 518 200 440 160 q 929 683 825 606 q 1017 721 979 721 q 1038 699 1038 721 q 890 465 1038 613 q 572 214 743 317 l 457 65 l 608 65 q 621 58 621 64 q 614 44 621 51 q 594 33 604 33 l 432 33 l 394 -12 l 546 -12 q 558 -20 558 -14 q 553 -33 558 -26 q 531 -44 542 -44 l 368 -44 q 261 -168 317 -106 q 375 -260 347 -199 q 685 -171 500 -171 q 801 -190 747 -171 q 810 -203 810 -194 q 797 -212 810 -212 q 784 -208 796 -212 q 758 -199 772 -203 q 675 -186 719 -186 q 382 -278 497 -186 q 388 -329 388 -294 q 360 -401 388 -364 q 301 -437 333 -437 q 269 -407 269 -437 q 351 -278 269 -346 q 244 -187 322 -218 q -293 -540 -79 -540 q -406 -516 -368 -540 q -443 -453 -443 -492 q -373 -322 -443 -393 q -175 -198 -303 -251 q 93 -144 -47 -144 q 229 -158 175 -144 q 326 -44 249 -139 l 108 -44 q 93 -36 93 -44 q 131 -12 103 -12 l 353 -12 l 389 33 l 171 33 q 156 42 156 33 z "},"":{"ha":371,"x_min":78,"x_max":569,"o":"m 81 -267 l 271 278 l 297 278 l 100 -285 q 85 -290 92 -290 q 78 -282 78 -290 q 81 -267 78 -274 m 568 1050 l 369 483 l 343 483 l 538 1039 q 563 1063 546 1063 q 569 1058 569 1063 q 568 1050 569 1053 z "},"":{"ha":461,"x_min":171,"x_max":700,"o":"m 501 386 q 473 399 496 399 q 434 377 450 399 q 404 315 418 356 q 419 314 408 314 q 501 386 475 314 m 314 158 q 252 147 288 147 q 196 164 217 147 q 172 197 175 181 l 171 214 q 204 282 171 256 q 277 308 238 308 q 317 274 317 308 q 306 243 317 258 q 284 228 296 228 q 272 237 272 228 q 282 256 272 246 q 290 271 290 261 q 268 294 290 294 q 226 274 246 294 q 206 227 206 254 q 219 182 206 200 q 263 164 233 164 q 315 190 293 164 q 347 252 336 215 q 372 326 358 289 q 412 390 385 364 q 482 415 439 415 q 511 410 492 415 q 532 472 518 438 q 551 515 546 507 q 567 534 557 522 q 586 551 576 546 q 638 565 613 565 q 682 555 664 565 q 700 528 700 544 q 687 496 700 511 q 658 481 674 481 q 642 488 643 481 q 653 505 642 500 q 665 526 665 510 q 635 549 665 549 q 584 509 606 549 q 552 423 563 469 q 507 337 542 376 q 414 297 472 297 l 399 297 q 314 158 363 182 z "},"":{"ha":404,"x_min":135,"x_max":294,"o":"m 236 307 q 249 334 236 319 q 272 349 261 349 q 288 342 282 349 q 294 324 294 336 q 280 300 294 311 q 256 289 265 289 q 236 307 236 289 m 135 319 q 147 347 135 332 q 170 361 160 361 q 187 355 181 361 q 193 336 193 349 q 178 313 193 324 q 154 301 164 301 q 135 319 135 301 z "},"":{"ha":694,"x_min":28,"x_max":747,"o":"m 325 131 q 222 197 222 131 q 294 320 222 257 q 445 383 367 383 q 524 332 524 383 q 492 275 524 300 q 434 250 460 250 q 397 260 408 250 q 385 280 385 271 q 395 301 385 289 q 413 314 406 313 q 425 303 425 314 q 422 296 425 300 q 419 278 419 292 q 435 267 419 267 q 469 283 451 267 q 486 321 486 299 q 433 368 486 368 q 324 312 381 368 q 267 206 267 256 q 346 150 267 150 q 538 232 458 150 q 547 238 542 238 q 551 230 551 238 q 529 200 551 222 q 451 154 507 178 q 325 131 396 131 m 747 339 q 717 216 747 282 q 634 89 688 150 q 490 -13 581 28 q 286 -54 399 -54 q 101 11 174 -54 q 28 178 28 76 q 95 371 28 279 q 267 516 163 463 q 485 569 371 569 q 673 505 599 569 q 747 339 747 440 m 497 22 q 599 90 553 50 q 674 194 644 131 q 704 343 704 258 q 641 489 704 428 q 469 550 578 550 q 192 438 315 550 q 69 185 69 326 q 133 31 69 92 q 296 -31 196 -31 q 497 22 396 -31 z "},"":{"ha":364,"x_min":178,"x_max":567,"o":"m 265 518 q 386 574 319 518 q 464 671 453 631 q 443 699 464 688 q 396 711 422 711 q 278 656 332 711 q 225 560 225 601 q 265 518 225 518 m 408 733 q 489 699 460 733 q 511 719 490 699 q 533 735 521 735 q 546 722 546 735 l 540 710 q 485 642 536 703 q 427 569 435 581 q 419 536 419 558 q 439 521 419 521 q 553 588 479 521 q 562 593 557 593 q 567 586 567 593 q 510 533 567 569 q 410 497 454 497 q 379 529 379 497 q 376 540 379 540 q 371 539 372 540 q 240 493 301 493 q 178 549 178 493 q 247 670 178 607 q 408 733 317 733 z "},"":{"ha":400,"x_min":61,"x_max":460,"o":"m 356 -19 q 363 -28 363 -24 q 351 -33 363 -32 q 320 -23 335 -36 q 269 17 306 -10 q 188 82 188 74 q 231 121 188 97 q 376 212 317 168 q 443 256 435 256 q 460 243 460 256 q 433 214 460 236 q 225 86 406 192 l 356 -19 m 229 -19 q 236 -28 236 -24 q 225 -33 236 -32 q 194 -23 208 -36 q 143 17 179 -10 q 61 82 61 74 q 104 121 61 97 q 249 212 190 168 q 317 256 308 256 q 333 243 333 256 q 306 214 333 236 q 99 86 279 192 l 229 -19 z "},"":{"ha":501,"x_min":140,"x_max":610,"o":"m 140 392 q 178 415 150 415 l 597 415 q 610 406 610 414 q 507 231 610 404 q 494 221 500 221 q 485 240 485 221 q 490 265 485 260 l 560 383 l 156 383 q 140 392 140 383 z "},"":{"ha":694,"x_min":28,"x_max":747,"o":"m 515 282 q 547 293 528 282 q 554 288 554 293 q 551 281 554 283 q 525 271 547 278 q 489 264 503 264 q 443 293 443 264 q 449 317 443 304 q 456 333 456 329 q 453 338 456 338 q 372 289 425 328 q 336 243 361 275 q 274 165 278 171 q 254 151 267 151 q 242 158 242 151 q 251 181 242 165 l 339 290 q 375 338 349 303 q 406 379 401 372 q 426 386 411 386 q 440 381 440 386 q 438 372 440 375 l 418 344 q 408 333 414 339 q 508 383 421 336 q 518 385 511 385 q 525 381 525 385 q 523 374 525 378 q 508 356 521 371 q 483 310 483 325 q 515 282 483 282 m 497 22 q 599 90 553 50 q 674 194 644 131 q 704 343 704 258 q 641 489 704 428 q 469 550 578 550 q 192 438 315 550 q 69 185 69 326 q 133 31 69 92 q 296 -31 196 -31 q 497 22 396 -31 m 747 339 q 717 216 747 282 q 634 89 688 150 q 490 -13 581 28 q 286 -54 399 -54 q 101 11 174 -54 q 28 178 28 76 q 95 371 28 279 q 267 516 163 463 q 485 569 371 569 q 673 505 599 569 q 747 339 747 440 z "},"":{"ha":364,"x_min":169,"x_max":419,"o":"m 413 300 q 419 292 419 299 q 404 278 419 286 l 178 278 q 169 283 169 278 q 189 300 175 300 l 413 300 z "},"":{"ha":404,"x_min":279,"x_max":474,"o":"m 444 729 q 404 760 444 760 q 336 726 364 760 q 308 674 308 693 q 345 643 308 643 q 410 669 382 643 q 444 729 439 696 m 336 618 q 297 632 315 618 q 279 668 279 646 q 322 744 286 703 q 416 785 358 785 q 474 733 474 785 q 427 654 469 690 q 336 618 385 618 z "},"":{"ha":579,"x_min":111,"x_max":688,"o":"m 218 446 q 256 469 228 469 l 431 469 l 513 606 q 524 613 518 613 q 533 606 529 613 q 536 594 536 600 l 536 589 l 531 574 l 468 469 l 675 469 q 688 462 688 468 q 681 449 688 456 q 661 438 671 438 l 450 438 l 375 311 q 363 301 368 301 q 353 321 353 301 q 358 346 353 340 l 413 438 l 233 438 q 218 446 218 438 m 111 219 q 149 243 121 243 l 568 243 q 581 235 581 242 q 575 222 581 229 q 553 211 564 211 l 126 211 q 111 219 111 211 z "},"":{"ha":482,"x_min":258,"x_max":694,"o":"m 524 479 q 535 467 524 467 q 561 482 547 467 q 575 510 575 497 q 572 533 575 522 q 524 479 524 514 m 439 679 q 460 653 439 653 q 541 698 504 653 q 578 786 578 743 q 571 814 578 803 q 479 763 519 800 q 439 679 439 725 m 276 390 l 267 389 q 258 400 258 389 l 263 415 q 447 558 300 465 l 496 589 q 675 771 675 696 q 614 821 675 821 q 592 818 606 821 q 600 782 600 803 q 560 685 600 732 q 467 639 519 639 q 415 682 415 639 q 459 772 415 733 q 561 826 503 811 q 535 838 547 838 q 508 835 522 838 q 493 836 493 833 q 528 851 493 851 q 583 831 563 851 q 624 833 600 833 q 671 816 647 833 q 694 765 694 799 q 664 694 694 732 q 605 635 633 656 q 519 579 576 614 q 457 540 463 544 q 300 422 300 436 q 311 414 300 414 l 314 414 q 511 421 360 421 q 609 446 576 421 q 642 506 642 471 q 608 540 642 540 q 586 538 594 540 q 589 508 589 526 q 569 472 589 490 q 526 453 549 453 q 504 476 504 453 q 522 513 504 494 q 567 543 540 532 q 547 556 557 556 q 536 560 536 557 q 546 564 536 564 l 549 564 q 581 547 569 563 q 615 550 597 550 q 649 536 633 550 q 664 501 664 522 q 624 433 664 465 q 515 401 583 401 l 379 403 q 276 390 324 403 z "},"":{"ha":428,"x_min":261,"x_max":661,"o":"m 531 643 q 469 663 507 663 q 432 647 432 663 q 467 631 432 631 q 531 643 501 631 m 372 483 q 394 472 372 472 q 430 489 415 472 q 444 526 444 506 l 444 529 l 442 529 q 394 517 415 529 q 372 483 372 504 m 464 538 q 486 524 486 529 q 482 518 486 518 l 464 526 q 440 481 461 500 q 388 461 419 461 q 356 485 356 461 q 378 523 356 504 q 438 542 401 542 l 442 542 q 386 579 431 579 q 316 550 342 579 q 290 485 290 521 q 313 424 290 449 q 375 399 335 399 q 512 453 458 399 q 565 571 565 508 q 543 632 565 606 q 456 619 508 619 q 404 646 404 619 q 419 664 404 656 q 472 672 433 672 q 549 651 511 672 q 610 705 586 672 q 633 767 633 738 q 551 825 633 825 q 467 806 494 825 q 439 767 439 786 q 449 738 439 747 q 478 728 460 728 q 512 736 497 728 q 535 761 526 744 q 543 767 539 767 q 547 761 547 767 q 547 752 547 756 q 541 741 546 749 q 528 728 536 733 q 472 713 507 713 q 415 753 415 713 q 451 811 415 785 q 546 838 488 838 q 633 817 604 838 q 661 763 661 796 q 635 697 661 731 q 564 642 608 663 q 597 569 597 613 q 533 444 597 503 q 375 385 468 385 q 290 411 318 385 q 261 480 261 438 q 294 558 261 522 q 382 593 328 593 q 464 538 456 593 z "},"":{"ha":364,"x_min":113,"x_max":281,"o":"m 113 286 q 131 294 113 290 q 239 356 199 311 q 267 371 254 371 q 281 358 281 371 q 219 308 281 336 q 122 279 158 279 q 113 286 113 279 z "},"":{"ha":317,"x_min":-256,"x_max":361,"o":"m 174 28 q 189 75 174 50 q 189 78 189 76 q 188 78 189 79 q 33 -1 94 -1 q -6 18 1 -1 q -167 -165 -65 -57 q -240 -196 -197 -196 q -256 -194 -250 -196 l -249 -181 q -182 -151 -207 -181 q -24 36 -100 -61 q 67 152 51 133 q 97 185 83 171 q 133 221 119 207 q 151 238 147 235 q 164 240 154 240 q 174 231 174 240 q 165 214 174 222 q 134 180 157 206 q 98 139 111 154 q 67 103 85 124 q 33 40 33 60 q 56 25 33 25 q 118 51 78 25 q 188 106 158 78 l 217 132 q 296 214 275 183 q 321 229 308 229 q 333 219 333 229 q 297 174 333 211 q 219 85 225 97 q 206 42 206 53 q 240 19 206 19 q 347 86 274 19 q 356 92 351 92 q 361 85 361 92 q 305 32 361 68 q 204 -4 249 -4 q 174 28 174 -4 z "},"":{"ha":458,"x_min":-343,"x_max":711,"o":"m -343 -222 q -314 -186 -343 -200 q -278 -201 -278 -186 q -290 -220 -278 -210 q -301 -237 -301 -231 q -267 -244 -301 -244 q -181 -215 -232 -244 q -85 -145 -131 -186 q 27 -30 -39 -104 q 140 101 93 44 q 263 253 186 158 q 383 401 340 349 q 308 426 333 403 q 283 488 283 450 q 339 608 283 550 q 471 667 394 667 q 571 582 550 667 q 654 558 635 558 q 687 568 674 558 q 706 578 700 578 q 711 569 711 578 q 688 544 711 554 q 653 533 665 533 q 625 536 642 533 q 335 207 564 486 q -31 -250 107 -72 q -49 -260 -40 -260 q -58 -252 -58 -260 q -52 -238 -58 -244 q 267 151 -46 -232 q 603 544 579 535 l 561 561 q 390 361 492 486 q 208 137 289 236 q 36 -60 126 38 q -282 -267 -154 -267 q -343 -222 -343 -267 z "},"":{"ha":275,"x_min":163,"x_max":221,"o":"m 163 106 q 175 133 163 118 q 198 147 188 147 q 215 141 208 147 q 221 122 221 135 q 206 99 221 110 q 182 88 192 88 q 163 106 163 88 z "},"":{"ha":207,"x_min":50,"x_max":158,"o":"m 128 -4 l 143 -4 l 139 -25 q 158 -46 158 -31 q 140 -72 158 -61 q 86 -83 122 -83 q 50 -74 50 -83 q 60 -64 50 -64 q 88 -68 76 -68 q 135 -43 135 -68 q 128 -37 135 -40 q 121 -30 121 -33 q 128 -4 121 -26 z "},"":{"ha":244,"x_min":208,"x_max":581,"o":"m 315 697 q 331 685 315 685 q 361 702 347 685 q 375 734 375 719 q 371 757 375 749 q 315 697 315 729 m 332 779 l 311 775 q 304 779 304 775 q 333 790 304 790 q 376 778 363 790 q 478 808 429 800 q 541 821 526 817 q 568 825 556 825 q 581 822 581 825 q 578 815 581 818 q 271 440 426 657 q 242 393 247 404 q 223 382 238 382 q 208 389 208 382 l 208 394 q 311 539 235 442 q 451 710 388 636 l 515 783 q 519 792 519 788 q 507 797 519 797 q 453 787 494 797 q 388 764 411 776 q 393 734 393 754 q 373 693 393 714 q 333 672 353 672 q 294 699 294 672 q 360 769 294 738 q 332 779 350 779 z "},"":{"ha":296,"x_min":208,"x_max":646,"o":"m 417 725 q 463 657 417 668 q 464 685 464 664 q 453 722 464 707 q 429 736 442 736 q 417 725 417 736 m 457 636 q 385 711 389 643 q 297 659 338 710 q 256 563 256 608 q 310 511 256 511 q 393 548 346 511 q 457 636 440 585 m 208 551 q 267 669 208 607 q 388 733 326 732 q 430 760 400 760 q 477 742 460 760 q 494 698 494 725 q 489 654 494 671 q 579 674 529 654 q 639 703 629 693 l 646 696 q 635 683 646 693 q 575 656 624 674 q 483 636 526 638 q 406 534 461 578 q 290 490 350 490 q 208 551 208 490 z "},"":{"ha":447,"x_min":61,"x_max":460,"o":"m 165 242 q 158 250 158 246 q 169 256 158 254 q 201 245 186 258 q 251 206 215 232 q 333 140 333 149 q 290 101 333 125 q 145 10 204 54 q 78 -33 86 -33 q 61 -21 61 -33 q 88 8 61 -14 q 296 136 115 31 l 165 242 m 292 242 q 285 250 285 246 q 296 256 285 254 q 327 245 313 258 q 378 206 342 232 q 460 140 460 149 q 417 101 460 125 q 272 10 331 54 q 204 -33 213 -33 q 188 -21 188 -33 q 215 8 188 -14 q 422 136 242 31 l 292 242 z "},"":{"ha":761,"x_min":65,"x_max":949,"o":"m 804 196 q 751 146 764 196 q 801 161 786 153 q 815 183 815 169 q 804 196 815 196 m 542 -10 l 522 0 l 524 8 q 604 118 571 79 l 557 118 l 431 121 q 411 131 411 121 q 421 144 411 135 q 584 278 490 214 q 736 372 678 343 l 796 403 q 898 428 847 428 q 949 388 949 428 q 914 328 949 353 q 840 304 879 304 q 801 328 801 304 q 823 358 801 347 q 858 368 844 368 q 871 363 871 368 q 867 358 871 358 q 854 356 863 357 q 824 328 824 347 q 849 315 824 315 q 905 335 874 315 q 936 386 936 354 q 922 409 936 403 q 886 411 907 415 q 822 394 847 406 q 760 364 796 382 q 636 286 725 346 q 482 160 547 226 q 475 146 475 151 q 582 136 475 136 l 619 136 q 719 250 682 214 l 735 264 q 767 265 767 275 q 763 257 767 264 q 653 136 714 210 q 736 143 693 138 q 761 189 742 169 q 807 208 781 208 q 833 192 833 208 q 743 128 833 144 l 743 125 q 767 93 743 97 q 768 88 768 92 q 758 85 768 85 q 738 95 747 85 q 728 124 728 106 l 728 125 q 638 118 675 119 q 553 -1 586 56 q 542 -10 549 -10 m 406 697 q 422 685 406 685 q 451 702 438 685 q 465 734 465 719 q 461 757 465 749 q 406 697 406 729 m 422 779 l 401 775 q 394 779 394 775 q 424 790 394 790 q 467 778 453 790 q 568 808 519 800 q 631 821 617 817 q 658 825 646 825 q 671 822 671 825 q 668 815 671 818 q 361 440 517 657 q 333 393 338 404 q 313 382 328 382 q 299 389 299 382 l 299 394 q 401 539 325 442 q 542 710 478 636 l 606 783 q 610 792 610 788 q 598 797 610 797 q 544 787 586 797 q 478 764 501 776 q 483 734 483 754 q 463 693 483 714 q 422 672 443 672 q 385 699 385 672 q 450 769 385 738 q 422 779 440 779 m 889 914 q 903 918 892 917 q 915 915 914 919 q 874 862 915 911 q 614 542 833 813 q 81 -96 149 -28 l 72 -96 q 65 -93 68 -96 q 69 -83 65 -86 q 217 96 74 -79 q 889 914 599 567 z "},"":{"ha":761,"x_min":65,"x_max":915,"o":"m 665 88 q 677 75 665 75 q 703 90 689 75 q 717 118 717 106 q 714 142 717 131 q 665 88 665 122 m 406 697 q 422 685 406 685 q 451 702 438 685 q 465 734 465 719 q 461 757 465 749 q 406 697 406 729 m 581 288 q 601 261 581 261 q 683 306 646 261 q 719 394 719 351 q 713 422 719 411 q 621 371 661 408 q 581 288 581 333 m 422 779 l 401 775 q 394 779 394 775 q 424 790 394 790 q 467 778 453 790 q 568 808 519 800 q 631 821 617 817 q 658 825 646 825 q 671 822 671 825 q 668 815 671 818 q 361 440 517 657 q 333 393 338 404 q 313 382 328 382 q 299 389 299 382 l 299 394 q 401 539 325 442 q 542 710 478 636 l 606 783 q 610 792 610 788 q 598 797 610 797 q 544 787 586 797 q 478 764 501 776 q 483 734 483 754 q 463 693 483 714 q 422 672 443 672 q 385 699 385 672 q 450 769 385 738 q 422 779 440 779 m 889 914 q 903 918 892 917 q 915 915 914 919 q 874 862 915 911 q 614 542 833 813 q 81 -96 149 -28 l 72 -96 q 65 -93 68 -96 q 69 -83 65 -86 q 217 96 74 -79 q 889 914 599 567 m 418 -1 l 408 -3 q 400 8 400 -3 l 404 24 q 589 167 442 74 l 638 197 q 817 379 817 304 q 756 429 817 429 q 733 426 747 429 q 742 390 742 413 q 701 294 742 340 q 609 247 661 247 q 557 290 557 247 q 601 381 557 342 q 703 435 644 419 q 676 446 689 446 q 649 444 664 446 q 635 444 635 442 q 669 460 635 460 q 725 439 704 460 q 765 442 742 442 q 813 424 789 442 q 836 374 836 407 q 806 302 836 340 q 747 243 775 264 q 661 188 718 222 q 599 149 604 153 q 442 31 442 44 q 453 22 442 22 l 456 22 q 653 29 501 29 q 751 54 718 29 q 783 114 783 79 q 750 149 783 149 q 728 146 736 149 q 731 117 731 135 q 710 80 731 99 q 668 61 690 61 q 646 85 646 61 q 664 122 646 103 q 708 151 682 140 q 688 165 699 164 q 678 169 678 165 q 688 172 678 172 l 690 172 q 722 156 711 171 q 757 158 739 158 q 790 144 775 158 q 806 110 806 131 q 765 42 806 74 q 657 10 725 10 l 521 11 q 418 -1 465 11 z "},"":{"ha":761,"x_min":65,"x_max":949,"o":"m 804 196 q 751 146 764 196 q 801 161 786 153 q 815 183 815 169 q 804 196 815 196 m 444 643 q 383 663 421 663 q 346 647 346 663 q 381 631 346 631 q 444 643 415 631 m 286 483 q 308 472 286 472 q 344 489 329 472 q 358 526 358 506 l 358 529 l 356 529 q 308 517 329 529 q 286 483 286 504 m 889 914 q 903 918 892 917 q 915 915 914 919 q 874 862 915 911 q 614 542 833 813 q 81 -96 149 -28 l 72 -96 q 65 -93 68 -96 q 69 -83 65 -86 q 217 96 74 -79 q 889 914 599 567 m 542 -10 l 522 0 l 524 8 q 604 118 571 79 l 557 118 l 431 121 q 411 131 411 121 q 421 144 411 135 q 584 278 490 214 q 736 372 678 343 l 796 403 q 898 428 847 428 q 949 388 949 428 q 914 328 949 353 q 840 304 879 304 q 801 328 801 304 q 823 358 801 347 q 858 368 844 368 q 871 363 871 368 q 867 358 871 358 q 854 356 863 357 q 824 328 824 347 q 849 315 824 315 q 905 335 874 315 q 936 386 936 354 q 901 413 936 413 q 831 397 867 413 q 760 364 796 382 q 636 286 725 346 q 482 160 547 226 q 475 146 475 151 q 582 136 475 136 l 619 136 q 719 250 682 214 l 735 264 q 767 265 767 275 q 763 257 767 264 q 653 136 714 210 q 736 143 693 138 q 761 189 742 169 q 807 208 781 208 q 833 192 833 208 q 743 128 833 144 l 743 125 q 767 93 743 97 q 768 88 768 92 q 758 85 768 85 q 738 95 747 85 q 728 124 728 106 l 728 125 q 638 118 675 119 q 553 -1 586 56 q 542 -10 549 -10 m 378 538 q 400 524 400 529 q 396 518 400 518 l 378 526 q 354 481 375 500 q 301 461 333 461 q 269 485 269 461 q 292 523 269 504 q 351 542 315 542 l 356 542 q 300 579 344 579 q 230 550 256 579 q 204 485 204 521 q 226 424 204 449 q 289 399 249 399 q 426 453 372 399 q 479 571 479 508 q 457 632 479 606 q 370 619 422 619 q 318 646 318 619 q 333 664 318 656 q 386 672 347 672 q 463 651 425 672 q 524 705 500 672 q 547 767 547 738 q 465 825 547 825 q 381 806 408 825 q 353 767 353 786 q 363 738 353 747 q 392 728 374 728 q 426 736 411 728 q 449 761 440 744 q 457 767 453 767 q 461 761 461 767 q 460 752 461 756 q 455 741 460 749 q 442 728 450 733 q 386 713 421 713 q 329 753 329 713 q 365 811 329 785 q 460 838 401 838 q 547 817 518 838 q 575 763 575 796 q 549 697 575 731 q 478 642 522 663 q 511 569 511 613 q 447 444 511 503 q 289 385 382 385 q 203 411 232 385 q 175 480 175 438 q 208 558 175 522 q 296 593 242 593 q 378 538 369 593 z "},"":{"ha":535,"x_min":-56,"x_max":613,"o":"m 613 415 q 600 388 613 403 q 577 374 588 374 q 560 380 567 374 q 554 399 554 386 q 569 422 554 411 q 593 433 583 433 q 613 415 613 433 m 454 -182 q 419 -150 454 -150 q 319 -206 361 -150 q 278 -299 278 -261 q 301 -358 278 -337 q 411 -269 368 -321 q 454 -182 454 -217 m 456 206 q 469 224 457 224 q 503 207 503 224 q 450 110 503 161 q 322 14 397 60 q 171 -81 246 -32 q 43 -192 96 -131 q -10 -317 -10 -254 q 114 -411 -10 -411 q 269 -375 194 -411 q 246 -314 246 -351 q 311 -184 246 -249 q 443 -119 376 -119 q 478 -133 465 -119 q 490 -169 490 -146 q 442 -271 490 -212 q 319 -371 394 -329 q 377 -386 344 -386 q 439 -373 410 -386 q 479 -347 468 -360 l 490 -333 q 497 -328 494 -328 q 506 -336 503 -328 q 479 -371 500 -353 q 377 -408 436 -408 q 286 -387 318 -408 q 113 -428 203 -428 q 29 -414 74 -428 q -56 -310 -56 -389 q -4 -191 -56 -250 q 121 -84 47 -132 q 269 10 194 -36 q 397 107 343 56 q 456 206 451 158 z "},"":{"ha":1268,"x_min":61,"x_max":1761,"o":"m 1085 132 l 1088 132 l 1083 126 q 1085 132 1085 128 m 953 493 q 968 482 968 493 q 883 453 968 453 q 840 456 868 453 q 953 493 882 493 m 1761 1083 q 1751 1076 1761 1076 q 1654 1105 1715 1076 q 1593 1156 1593 1133 q 1606 1168 1593 1168 q 1635 1153 1619 1168 q 1743 1092 1675 1108 q 1761 1083 1761 1088 m 1117 408 q 1069 151 1111 306 q 897 196 968 157 q 1117 408 972 263 m 1557 872 q 1563 869 1563 872 q 1469 721 1563 867 q 1281 425 1376 575 q 1174 256 1185 275 q 1100 150 1163 238 l 1090 150 q 1147 440 1143 354 q 1557 872 1215 510 m 878 208 q 792 353 792 268 q 821 436 792 400 q 901 429 856 429 q 981 451 946 429 q 1015 492 1015 472 q 969 517 1015 517 q 821 460 882 517 q 673 557 729 482 q 617 708 617 632 q 772 881 617 881 q 915 847 851 881 q 1015 765 978 814 q 1075 653 1051 715 q 1118 440 1118 544 q 878 208 986 304 m 268 157 q 376 99 268 99 q 561 142 460 99 q 650 201 614 163 q 686 289 686 240 q 476 407 686 407 q 178 315 296 407 q 61 115 61 224 q 133 -16 61 36 q 344 -68 206 -68 q 604 -12 483 -68 q 874 174 725 43 q 1065 132 947 136 l 1047 74 l 1011 21 q 983 -31 983 -18 q 997 -44 983 -44 q 1135 133 1017 -44 q 1308 175 1239 144 l 1332 185 q 1354 206 1354 192 q 1348 213 1354 213 q 1314 200 1342 213 q 1147 151 1225 161 q 1352 474 1225 269 q 1563 813 1479 679 q 1661 958 1647 947 q 1676 981 1676 969 q 1660 1004 1676 1004 q 1614 969 1649 1004 l 1443 786 q 1149 472 1244 574 q 1038 783 1146 658 q 790 907 929 907 q 635 858 686 907 q 583 726 583 808 q 645 558 583 643 q 803 442 707 472 q 763 332 763 390 q 853 185 763 240 q 603 15 718 68 q 360 -39 489 -39 q 160 8 231 -39 q 89 126 89 56 q 197 299 89 221 q 471 378 306 378 q 598 349 558 378 q 638 279 638 321 q 569 170 638 217 q 378 124 500 124 q 313 164 313 124 q 322 188 313 179 q 340 197 331 196 q 368 218 368 204 q 347 232 368 232 q 292 201 317 222 q 268 157 268 179 z "},"":{"ha":1268,"x_min":61,"x_max":1808,"o":"m 1085 132 q 1083 126 1085 128 l 1088 132 l 1085 132 m 953 493 q 840 456 882 493 q 883 453 868 453 q 968 482 968 453 q 953 493 968 493 m 1640 1075 q 1658 1083 1640 1079 q 1767 1144 1726 1100 q 1795 1160 1782 1160 q 1808 1147 1808 1160 q 1747 1097 1808 1125 q 1650 1068 1686 1068 q 1640 1075 1640 1068 m 1117 408 q 897 196 972 263 q 1069 151 968 157 q 1117 408 1111 306 m 1557 872 q 1147 440 1215 510 q 1090 150 1143 354 l 1100 150 q 1174 256 1163 238 q 1281 425 1185 275 q 1563 869 1563 867 l 1557 872 m 878 208 q 1118 440 986 304 q 1075 653 1118 544 q 1015 765 1051 715 q 915 847 978 814 q 772 881 851 881 q 617 708 617 881 q 673 557 617 632 q 821 460 729 482 q 969 517 882 517 q 1015 492 1015 517 q 981 451 1015 472 q 901 429 946 429 q 821 436 856 429 q 792 353 792 400 q 878 208 792 268 m 268 157 q 288 198 268 179 q 328 225 308 217 l 347 232 q 368 218 368 232 q 350 200 368 204 q 313 164 313 192 q 378 124 313 124 q 569 170 500 124 q 638 279 638 217 q 598 349 638 321 q 471 378 558 378 q 197 299 306 378 q 89 126 89 221 q 160 8 89 56 q 360 -39 231 -39 q 603 15 489 -39 q 853 185 718 68 q 763 332 763 240 q 803 442 763 390 q 645 558 707 472 q 583 726 583 643 q 635 858 583 808 q 790 907 686 907 q 1038 783 929 907 q 1149 472 1146 658 q 1443 786 1244 574 l 1614 969 q 1658 1004 1649 1004 q 1672 999 1667 1004 q 1676 981 1676 993 q 1662 958 1676 969 q 1563 813 1647 947 q 1352 474 1479 679 q 1147 151 1225 269 q 1314 200 1225 161 q 1348 213 1342 213 q 1354 206 1354 213 q 1332 185 1354 192 q 1135 133 1246 144 q 997 -44 1017 -44 q 983 -31 983 -44 q 1011 21 983 -17 l 1047 74 l 1065 132 q 874 174 947 136 q 604 -12 725 43 q 344 -68 483 -68 q 133 -16 206 -68 q 61 115 61 36 q 178 315 61 224 q 476 407 296 407 q 686 289 686 407 q 624 179 686 225 q 495 116 563 133 q 376 99 428 99 q 268 157 268 99 z "},"":{"ha":1268,"x_min":61,"x_max":1778,"o":"m 1085 132 q 1083 126 1085 128 l 1088 132 l 1085 132 m 953 493 q 840 456 882 493 q 883 453 868 453 q 968 482 968 453 q 953 493 968 493 m 1606 1065 q 1596 1072 1596 1065 q 1626 1083 1596 1078 q 1680 1115 1657 1089 q 1713 1140 1703 1140 q 1727 1133 1724 1140 q 1732 1114 1731 1125 q 1774 1071 1736 1088 q 1778 1067 1778 1069 q 1773 1060 1778 1064 q 1763 1056 1768 1056 q 1707 1103 1732 1056 q 1606 1065 1651 1065 m 1117 408 q 897 196 972 263 q 1069 151 968 157 q 1117 408 1111 306 m 1557 872 q 1147 440 1215 510 q 1090 150 1143 354 l 1100 150 q 1174 256 1163 238 q 1281 425 1185 275 q 1563 869 1563 867 l 1557 872 m 878 208 q 1118 440 986 304 q 1075 653 1118 544 q 1015 765 1051 715 q 915 847 978 814 q 772 881 851 881 q 617 708 617 881 q 673 557 617 632 q 821 460 729 482 q 969 517 882 517 q 1015 492 1015 517 q 981 451 1015 472 q 901 429 946 429 q 821 436 856 429 q 792 353 792 400 q 878 208 792 268 m 268 157 q 288 198 268 179 q 328 225 308 217 l 347 232 q 368 218 368 232 q 350 200 368 204 q 313 164 313 192 q 378 124 313 124 q 569 170 500 124 q 638 279 638 217 q 598 349 638 321 q 471 378 558 378 q 197 299 306 378 q 89 126 89 221 q 160 8 89 56 q 360 -39 231 -39 q 603 15 489 -39 q 853 185 718 68 q 763 332 763 240 q 803 442 763 390 q 645 558 707 472 q 583 726 583 643 q 635 858 583 808 q 790 907 686 907 q 1038 783 929 907 q 1149 472 1146 658 q 1443 786 1244 574 l 1614 969 q 1658 1004 1649 1004 q 1672 999 1667 1004 q 1676 981 1676 993 q 1662 958 1676 969 q 1563 813 1647 947 q 1352 474 1479 679 q 1147 151 1225 269 q 1314 200 1225 161 q 1348 213 1342 213 q 1354 206 1354 213 q 1332 185 1354 192 q 1135 133 1246 144 q 997 -44 1017 -44 q 983 -31 983 -44 q 1011 21 983 -17 l 1047 74 l 1065 132 q 874 174 947 136 q 604 -12 725 43 q 344 -68 483 -68 q 133 -16 206 -68 q 61 115 61 36 q 178 315 61 224 q 476 407 296 407 q 686 289 686 407 q 624 179 686 225 q 495 116 563 133 q 376 99 428 99 q 268 157 268 99 z "},"":{"ha":1268,"x_min":61,"x_max":1807,"o":"m 1085 132 q 1083 126 1085 128 l 1088 132 l 1085 132 m 953 493 q 840 456 882 493 q 883 453 868 453 q 968 482 968 453 q 953 493 968 493 m 1567 1082 q 1587 1112 1567 1101 q 1624 1122 1607 1122 q 1685 1105 1642 1122 q 1749 1088 1728 1088 q 1783 1097 1769 1088 q 1801 1107 1796 1107 q 1807 1099 1807 1107 q 1784 1073 1807 1083 q 1744 1063 1761 1063 q 1683 1081 1728 1063 q 1621 1099 1638 1099 q 1591 1088 1604 1099 q 1572 1076 1578 1076 q 1567 1082 1567 1076 m 1117 408 q 897 196 972 263 q 1069 151 968 157 q 1117 408 1111 306 m 1557 872 q 1147 440 1215 510 q 1090 150 1143 354 l 1100 150 q 1174 256 1163 238 q 1281 425 1185 275 q 1563 869 1563 867 l 1557 872 m 878 208 q 1118 440 986 304 q 1075 653 1118 544 q 1015 765 1051 715 q 915 847 978 814 q 772 881 851 881 q 617 708 617 881 q 673 557 617 632 q 821 460 729 482 q 969 517 882 517 q 1015 492 1015 517 q 981 451 1015 472 q 901 429 946 429 q 821 436 856 429 q 792 353 792 400 q 878 208 792 268 m 268 157 q 288 198 268 179 q 328 225 308 217 l 347 232 q 368 218 368 232 q 350 200 368 204 q 313 164 313 192 q 378 124 313 124 q 569 170 500 124 q 638 279 638 217 q 598 349 638 321 q 471 378 558 378 q 197 299 306 378 q 89 126 89 221 q 160 8 89 56 q 360 -39 231 -39 q 603 15 489 -39 q 853 185 718 68 q 763 332 763 240 q 803 442 763 390 q 645 558 707 472 q 583 726 583 643 q 635 858 583 808 q 790 907 686 907 q 1038 783 929 907 q 1149 472 1146 658 q 1443 786 1244 574 l 1614 969 q 1658 1004 1649 1004 q 1672 999 1667 1004 q 1676 981 1676 993 q 1662 958 1676 969 q 1563 813 1647 947 q 1352 474 1479 679 q 1147 151 1225 269 q 1314 200 1225 161 q 1348 213 1342 213 q 1354 206 1354 213 q 1332 185 1354 192 q 1135 133 1246 144 q 997 -44 1017 -44 q 983 -31 983 -44 q 1011 21 983 -17 l 1047 74 l 1065 132 q 874 174 947 136 q 604 -12 725 43 q 344 -68 483 -68 q 133 -16 206 -68 q 61 115 61 36 q 178 315 61 224 q 476 407 296 407 q 686 289 686 407 q 624 179 686 225 q 495 116 563 133 q 376 99 428 99 q 268 157 268 99 z "},"":{"ha":1268,"x_min":61,"x_max":1788,"o":"m 1085 132 l 1088 132 l 1083 126 q 1085 132 1085 128 m 1628 1079 q 1640 1106 1628 1092 q 1663 1121 1653 1121 q 1680 1115 1674 1121 q 1686 1096 1686 1108 q 1672 1072 1686 1083 q 1647 1061 1657 1061 q 1628 1079 1628 1061 m 1729 1067 q 1742 1094 1729 1079 q 1765 1108 1754 1108 q 1781 1102 1775 1108 q 1788 1083 1788 1096 q 1773 1060 1788 1071 q 1749 1049 1758 1049 q 1729 1067 1729 1049 m 953 493 q 968 482 968 493 q 883 453 968 453 q 840 456 868 453 q 953 493 882 493 m 1117 408 q 1069 151 1111 306 q 897 196 968 157 q 1117 408 972 263 m 1557 872 q 1563 869 1563 872 q 1469 721 1563 867 q 1281 425 1376 575 q 1174 256 1185 275 q 1100 150 1163 238 l 1090 150 q 1147 440 1143 354 q 1557 872 1215 510 m 878 208 q 792 353 792 268 q 821 436 792 400 q 901 429 856 429 q 981 451 946 429 q 1015 492 1015 472 q 969 517 1015 517 q 821 460 882 517 q 673 557 729 482 q 617 708 617 632 q 772 881 617 881 q 915 847 851 881 q 1015 765 978 814 q 1075 653 1051 715 q 1118 440 1118 544 q 878 208 986 304 m 268 157 q 376 99 268 99 q 561 142 460 99 q 650 201 614 163 q 686 289 686 240 q 476 407 686 407 q 178 315 296 407 q 61 115 61 224 q 133 -16 61 36 q 344 -68 206 -68 q 604 -12 483 -68 q 874 174 725 43 q 1065 132 947 136 l 1047 74 l 1011 21 q 983 -31 983 -18 q 997 -44 983 -44 q 1135 133 1017 -44 q 1308 175 1239 144 l 1332 185 q 1354 206 1354 192 q 1348 213 1354 213 q 1314 200 1342 213 q 1147 151 1225 161 q 1352 474 1225 269 q 1563 813 1479 679 q 1661 958 1647 947 q 1676 981 1676 969 q 1660 1004 1676 1004 q 1614 969 1649 1004 l 1443 786 q 1149 472 1244 574 q 1038 783 1146 658 q 790 907 929 907 q 635 858 686 907 q 583 726 583 808 q 645 558 583 643 q 803 442 707 472 q 763 332 763 390 q 853 185 763 240 q 603 15 718 68 q 360 -39 489 -39 q 160 8 231 -39 q 89 126 89 56 q 197 299 89 221 q 471 378 306 378 q 598 349 558 378 q 638 279 638 321 q 569 170 638 217 q 378 124 500 124 q 313 164 313 124 q 322 188 313 179 q 340 197 331 196 q 368 218 368 204 q 347 232 368 232 q 292 201 317 222 q 268 157 268 179 z "},"":{"ha":1268,"x_min":61,"x_max":1761,"o":"m 1085 132 q 1083 126 1085 128 l 1088 132 l 1085 132 m 1742 1096 q 1726 1108 1742 1108 q 1699 1095 1710 1108 q 1689 1074 1689 1082 q 1703 1061 1689 1061 q 1729 1072 1718 1061 q 1742 1096 1740 1082 m 953 493 q 840 456 882 493 q 883 453 868 453 q 968 482 968 453 q 953 493 968 493 m 1761 1100 q 1740 1062 1760 1079 q 1694 1044 1719 1044 q 1669 1068 1669 1044 q 1689 1104 1671 1083 q 1734 1125 1707 1125 q 1761 1100 1761 1125 m 1117 408 q 897 196 972 263 q 1069 151 968 157 q 1117 408 1111 306 m 1557 872 q 1147 440 1215 510 q 1090 150 1143 354 l 1100 150 q 1174 256 1163 238 q 1281 425 1185 275 q 1563 869 1563 867 l 1557 872 m 878 208 q 1118 440 986 304 q 1075 653 1118 544 q 1015 765 1051 715 q 915 847 978 814 q 772 881 851 881 q 617 708 617 881 q 673 557 617 632 q 821 460 729 482 q 969 517 882 517 q 1015 492 1015 517 q 981 451 1015 472 q 901 429 946 429 q 821 436 856 429 q 792 353 792 400 q 878 208 792 268 m 268 157 q 288 198 268 179 q 328 225 308 217 l 347 232 q 368 218 368 232 q 350 200 368 204 q 313 164 313 192 q 378 124 313 124 q 569 170 500 124 q 638 279 638 217 q 598 349 638 321 q 471 378 558 378 q 197 299 306 378 q 89 126 89 221 q 160 8 89 56 q 360 -39 231 -39 q 603 15 489 -39 q 853 185 718 68 q 763 332 763 240 q 803 442 763 390 q 645 558 707 472 q 583 726 583 643 q 635 858 583 808 q 790 907 686 907 q 1038 783 929 907 q 1149 472 1146 658 q 1443 786 1244 574 l 1614 969 q 1658 1004 1649 1004 q 1672 999 1667 1004 q 1676 981 1676 993 q 1662 958 1676 969 q 1563 813 1647 947 q 1352 474 1479 679 q 1147 151 1225 269 q 1314 200 1225 161 q 1348 213 1342 213 q 1354 206 1354 213 q 1332 185 1354 192 q 1135 133 1246 144 q 997 -44 1017 -44 q 983 -31 983 -44 q 1011 21 983 -17 l 1047 74 l 1065 132 q 874 174 947 136 q 604 -12 725 43 q 344 -68 483 -68 q 133 -16 206 -68 q 61 115 61 36 q 178 315 61 224 q 476 407 296 407 q 686 289 686 407 q 624 179 686 225 q 495 116 563 133 q 376 99 428 99 q 268 157 268 99 z "},"":{"ha":1906,"x_min":61,"x_max":2208,"o":"m 1085 132 q 1083 126 1085 128 l 1088 132 l 1085 132 m 953 493 q 840 456 882 493 q 883 453 868 453 q 968 482 968 453 q 953 493 968 493 m 1853 718 l 1824 717 q 1917 671 1858 671 q 1953 686 1953 671 q 1853 718 1953 713 m 1231 281 l 1147 151 q 1229 169 1196 158 q 1225 222 1225 192 q 1231 281 1225 253 m 1117 408 q 897 196 972 263 q 1069 151 968 157 q 1117 408 1111 306 m 1557 872 q 1147 440 1215 510 q 1090 150 1143 354 l 1100 150 q 1174 256 1163 238 q 1281 425 1185 275 q 1563 869 1563 867 l 1557 872 m 878 208 q 1118 440 986 304 q 1075 653 1118 544 q 1015 765 1051 715 q 915 847 978 814 q 772 881 851 881 q 617 708 617 881 q 673 557 617 632 q 821 460 729 482 q 969 517 882 517 q 1015 492 1015 517 q 981 451 1015 472 q 901 429 946 429 q 821 436 856 429 q 792 353 792 400 q 878 208 792 268 m 1421 149 q 1397 214 1397 149 q 1500 444 1397 346 q 1751 543 1603 543 q 1914 497 1860 543 q 1968 382 1968 451 q 1930 240 1968 313 q 1826 107 1892 168 q 1665 6 1761 46 q 1471 -33 1569 -33 q 1312 18 1372 -33 q 1232 150 1251 69 q 1135 133 1186 139 q 997 -44 1017 -44 q 983 -31 983 -44 q 1011 21 983 -17 l 1047 74 l 1065 132 q 874 174 947 136 q 604 -12 725 43 q 344 -68 483 -68 q 133 -16 206 -68 q 61 115 61 36 q 178 315 61 224 q 476 407 296 407 q 686 289 686 407 q 624 179 686 225 q 495 116 563 133 q 376 99 428 99 q 268 157 268 99 q 288 198 268 179 q 328 225 308 217 l 347 232 q 368 218 368 232 q 350 200 368 204 q 313 164 313 192 q 378 124 313 124 q 569 170 500 124 q 638 279 638 217 q 598 349 638 321 q 471 378 558 378 q 197 299 306 378 q 89 126 89 221 q 160 8 89 56 q 360 -39 231 -39 q 603 15 489 -39 q 853 185 718 68 q 763 332 763 240 q 803 442 763 390 q 645 558 707 472 q 583 726 583 643 q 635 858 583 808 q 790 907 686 907 q 1038 783 929 907 q 1149 472 1146 658 q 1443 786 1244 574 l 1614 969 q 1658 1004 1649 1004 q 1672 999 1667 1004 q 1676 981 1676 993 q 1663 959 1676 969 q 1410 567 1649 949 q 1774 728 1572 696 q 1757 793 1757 757 q 1822 925 1757 867 q 1990 983 1886 983 q 2151 947 2093 983 q 2208 856 2208 911 q 2138 765 2208 801 q 2121 772 2121 767 q 2131 786 2121 778 q 2172 867 2172 826 q 2115 938 2172 907 q 1994 969 2058 969 q 1849 918 1900 969 q 1799 799 1799 867 q 1814 732 1799 763 q 1876 735 1842 735 q 1947 722 1910 735 q 1985 685 1985 710 q 1933 654 1981 654 q 1785 713 1832 654 q 1428 532 1583 682 q 1274 225 1274 382 l 1276 185 l 1346 213 q 1354 206 1354 213 q 1332 185 1354 192 q 1279 164 1310 175 q 1344 40 1294 88 q 1487 -8 1394 -8 q 1663 28 1579 -8 q 1801 119 1746 64 q 1887 238 1856 174 q 1918 368 1918 303 q 1873 476 1918 433 q 1739 519 1828 519 q 1519 431 1608 519 q 1428 214 1431 343 q 1433 186 1428 201 q 1439 165 1439 171 q 1432 153 1439 158 q 1421 149 1425 149 z "},"":{"ha":719,"x_min":92,"x_max":1151,"o":"m 575 569 l 575 568 q 667 624 632 596 q 701 669 701 653 q 688 685 701 685 q 617 647 658 685 q 575 569 575 608 m 749 685 q 701 616 749 654 q 579 546 654 578 q 656 513 596 513 q 854 571 744 513 q 1040 710 964 629 q 1115 853 1115 792 q 945 943 1115 943 q 590 813 775 943 q 276 500 406 683 l 289 500 q 542 554 411 500 l 542 565 q 607 663 542 613 q 718 713 672 713 q 749 685 749 713 m 308 735 l 274 738 q 203 689 240 738 q 165 606 165 640 q 239 504 165 528 q 585 835 379 699 q 992 972 792 972 q 1151 876 1151 972 q 1072 715 1151 807 q 871 555 993 622 q 640 488 749 488 q 547 533 569 488 q 283 478 406 478 l 261 478 q 136 160 136 294 q 184 40 136 83 q 332 -4 232 -4 q 639 85 497 -4 q 689 119 672 106 l 706 133 q 718 136 710 136 q 726 127 726 136 q 714 110 726 118 q 332 -29 546 -22 l 329 -53 q 353 -83 353 -64 q 331 -117 353 -101 q 264 -132 308 -132 q 219 -117 219 -132 q 231 -106 219 -106 q 267 -111 247 -111 q 324 -78 324 -111 q 315 -69 324 -72 q 306 -61 306 -67 q 314 -29 306 -56 q 146 19 200 -29 q 92 150 92 67 q 224 482 92 292 q 128 596 128 511 q 186 712 128 656 q 293 768 244 768 q 321 751 321 768 q 308 735 321 735 z "},"":{"ha":1021,"x_min":26,"x_max":1514,"o":"m 957 718 q 1057 686 1057 713 q 1021 671 1057 671 q 928 717 963 671 q 957 718 938 718 m 535 251 q 668 468 551 390 q 535 251 644 343 m 674 515 l 674 496 q 551 381 599 453 q 501 226 504 308 q 382 174 444 189 q 378 225 378 199 q 451 435 378 328 q 642 617 524 542 q 674 515 674 574 m 486 700 q 444 681 444 700 q 451 672 444 672 q 499 676 476 676 q 621 639 576 676 q 410 460 492 568 q 329 218 329 353 q 333 164 329 189 q 276 160 307 160 l 275 160 q 123 219 175 160 q 71 372 71 279 q 185 651 71 521 q 478 782 299 781 q 649 736 557 782 q 733 689 682 719 q 651 653 701 678 q 486 700 590 700 m 501 199 q 525 149 501 149 q 537 153 531 149 q 543 165 543 158 q 538 186 543 171 q 532 214 532 201 l 532 218 q 655 345 607 271 q 711 492 703 419 q 851 519 771 519 q 977 476 932 519 q 1022 368 1022 433 q 991 238 1022 303 q 905 119 960 174 q 767 28 850 64 q 594 -8 683 -8 q 453 35 504 -8 q 386 149 403 79 q 501 199 443 164 m 1242 765 q 1313 856 1313 801 q 1255 947 1313 911 q 1094 983 1197 983 q 926 925 990 983 q 861 793 861 867 q 878 728 861 757 q 764 700 825 719 q 672 751 704 735 q 587 785 640 768 q 482 801 533 801 q 242 731 350 801 q 81 562 135 661 q 26 363 26 463 q 88 198 26 263 q 268 133 149 133 q 339 139 310 133 q 420 14 361 61 q 576 -33 479 -33 q 769 6 674 -33 q 931 107 865 46 q 1034 240 996 168 q 1072 382 1072 313 q 1018 497 1072 451 q 856 543 964 543 q 713 514 782 543 l 713 519 q 671 635 713 586 q 757 676 717 660 q 860 619 818 640 q 965 578 901 597 q 1090 560 1029 560 q 1403 644 1293 560 q 1514 832 1514 729 q 1473 933 1514 893 q 1361 974 1432 974 q 1329 967 1329 974 q 1351 956 1329 956 q 1446 925 1414 956 q 1478 846 1478 894 q 1381 667 1478 753 q 1132 581 1283 581 q 951 608 1031 581 q 786 686 872 636 q 889 713 843 706 q 1038 654 936 654 q 1089 685 1085 654 q 1051 722 1089 710 q 980 735 1014 735 q 918 732 946 735 q 903 800 903 765 q 953 918 903 867 q 1099 969 1004 969 q 1219 938 1163 969 q 1276 867 1276 907 q 1235 786 1276 826 q 1225 775 1225 778 q 1242 765 1225 768 m 1304 1072 q 1294 1065 1304 1065 q 1197 1094 1258 1065 q 1136 1144 1136 1122 q 1149 1157 1136 1157 q 1178 1142 1163 1157 q 1286 1081 1218 1097 q 1304 1072 1304 1076 z "},"":{"ha":1021,"x_min":26,"x_max":1514,"o":"m 957 718 q 928 717 938 718 q 1021 671 963 671 q 1057 686 1057 671 q 957 718 1057 713 m 535 251 q 668 468 644 343 q 535 251 551 390 m 674 496 l 674 515 q 642 617 674 574 q 451 435 524 542 q 378 225 378 328 q 382 174 378 199 q 501 226 444 189 q 551 381 504 308 q 674 496 599 453 m 486 700 q 651 653 590 700 q 733 689 701 678 q 478 782 576 782 q 185 651 299 781 q 71 372 71 521 q 123 219 71 279 q 275 160 175 160 l 276 160 q 333 164 306 160 q 329 218 329 189 q 410 460 329 353 q 621 639 492 568 q 499 676 576 676 q 451 672 476 676 q 444 681 444 672 q 486 700 444 700 m 525 149 q 501 199 501 149 q 386 149 443 164 q 453 35 403 79 q 594 -8 504 -8 q 767 28 683 -8 q 905 119 850 64 q 991 238 960 174 q 1022 368 1022 303 q 977 476 1022 433 q 851 519 932 519 q 711 492 771 519 q 655 345 703 419 q 532 218 607 271 l 532 214 q 538 186 532 201 q 543 165 543 171 q 537 153 543 158 q 525 149 531 149 m 1242 765 q 1225 772 1225 767 q 1235 786 1225 778 q 1276 867 1276 826 q 1219 938 1276 907 q 1099 969 1163 969 q 953 918 1004 969 q 903 800 903 867 q 918 732 903 765 q 980 735 946 735 q 1051 722 1014 735 q 1089 685 1089 710 q 1038 654 1085 654 q 889 713 936 654 q 786 686 843 706 q 951 608 872 636 q 1132 581 1031 581 q 1381 667 1283 581 q 1478 846 1478 753 q 1446 925 1478 894 q 1351 956 1414 956 q 1329 967 1329 956 q 1361 974 1329 974 q 1473 933 1432 974 q 1514 832 1514 893 q 1403 644 1514 729 q 1090 560 1293 560 q 965 578 1029 560 q 860 619 901 597 q 757 676 818 640 q 671 635 717 660 q 713 519 713 586 l 713 514 q 856 543 782 543 q 1018 497 964 543 q 1072 382 1072 451 q 1034 240 1072 313 q 931 107 996 168 q 769 6 865 46 q 576 -33 674 -33 q 420 14 479 -33 q 339 139 361 61 q 268 133 310 133 q 88 198 149 133 q 26 363 26 263 q 81 562 26 463 q 242 731 135 661 q 482 801 350 801 q 587 785 533 801 q 672 751 640 768 q 764 700 704 735 q 878 728 825 719 q 861 793 861 757 q 926 925 861 867 q 1094 983 990 983 q 1255 947 1197 983 q 1313 856 1313 911 q 1242 765 1313 801 m 1232 1067 q 1250 1075 1232 1071 q 1358 1136 1318 1092 q 1387 1151 1374 1151 q 1400 1139 1400 1151 q 1339 1088 1400 1117 q 1242 1060 1278 1060 q 1232 1067 1232 1060 z "},"":{"ha":1021,"x_min":26,"x_max":1514,"o":"m 957 718 q 928 717 938 718 q 1021 671 963 671 q 1057 686 1057 671 q 957 718 1057 713 m 535 251 q 668 468 644 343 q 535 251 551 390 m 674 496 l 674 515 q 642 617 674 574 q 451 435 524 542 q 378 225 378 328 q 382 174 378 199 q 501 226 444 189 q 551 381 504 308 q 674 496 599 453 m 486 700 q 651 653 590 700 q 733 689 701 678 q 478 782 576 782 q 185 651 299 781 q 71 372 71 521 q 123 219 71 279 q 275 160 175 160 l 276 160 q 333 164 306 160 q 329 218 329 189 q 410 460 329 353 q 621 639 492 568 q 499 676 576 676 q 451 672 476 676 q 444 681 444 672 q 486 700 444 700 m 525 149 q 501 199 501 149 q 386 149 443 164 q 453 35 403 79 q 594 -8 504 -8 q 767 28 683 -8 q 905 119 850 64 q 991 238 960 174 q 1022 368 1022 303 q 977 476 1022 433 q 851 519 932 519 q 711 492 771 519 q 655 345 703 419 q 532 218 607 271 l 532 214 q 538 186 532 201 q 543 165 543 171 q 537 153 543 158 q 525 149 531 149 m 1242 765 q 1225 772 1225 767 q 1235 786 1225 778 q 1276 867 1276 826 q 1219 938 1276 907 q 1099 969 1163 969 q 953 918 1004 969 q 903 800 903 867 q 918 732 903 765 q 980 735 946 735 q 1051 722 1014 735 q 1089 685 1089 710 q 1038 654 1085 654 q 889 713 936 654 q 786 686 843 706 q 951 608 872 636 q 1132 581 1031 581 q 1381 667 1283 581 q 1478 846 1478 753 q 1446 925 1478 894 q 1351 956 1414 956 q 1329 967 1329 956 q 1361 974 1329 974 q 1473 933 1432 974 q 1514 832 1514 893 q 1403 644 1514 729 q 1090 560 1293 560 q 965 578 1029 560 q 860 619 901 597 q 757 676 818 640 q 671 635 717 660 q 713 519 713 586 l 713 514 q 856 543 782 543 q 1018 497 964 543 q 1072 382 1072 451 q 1034 240 1072 313 q 931 107 996 168 q 769 6 865 46 q 576 -33 674 -33 q 420 14 479 -33 q 339 139 361 61 q 268 133 310 133 q 88 198 149 133 q 26 363 26 263 q 81 562 26 463 q 242 731 135 661 q 482 801 350 801 q 587 785 533 801 q 672 751 640 768 q 764 700 704 735 q 878 728 825 719 q 861 793 861 757 q 926 925 861 867 q 1094 983 990 983 q 1255 947 1197 983 q 1313 856 1313 911 q 1242 765 1313 801 m 1122 1078 q 1113 1084 1113 1078 q 1143 1096 1113 1090 q 1197 1127 1174 1101 q 1230 1153 1219 1153 q 1244 1145 1240 1153 q 1249 1128 1247 1138 q 1290 1083 1253 1100 q 1294 1078 1294 1081 q 1290 1072 1294 1076 q 1279 1068 1285 1068 q 1224 1115 1249 1068 q 1122 1078 1168 1078 z "},"":{"ha":1021,"x_min":26,"x_max":1514,"o":"m 957 718 q 1057 686 1057 713 q 1021 671 1057 671 q 928 717 963 671 q 957 718 938 718 m 535 251 q 668 468 551 390 q 535 251 644 343 m 674 515 l 674 496 q 551 381 599 453 q 501 226 504 308 q 382 174 444 189 q 378 225 378 199 q 451 435 378 328 q 642 617 524 542 q 674 515 674 574 m 486 700 q 444 681 444 700 q 451 672 444 672 q 499 676 476 676 q 621 639 576 676 q 410 460 492 568 q 329 218 329 353 q 333 164 329 189 q 276 160 307 160 l 275 160 q 123 219 175 160 q 71 372 71 279 q 185 651 71 521 q 478 782 299 781 q 649 736 557 782 q 733 689 682 719 q 651 653 701 678 q 486 700 590 700 m 501 199 q 525 149 501 149 q 537 153 531 149 q 543 165 543 158 q 538 186 543 171 q 532 214 532 201 l 532 218 q 655 345 607 271 q 711 492 703 419 q 851 519 771 519 q 977 476 932 519 q 1022 368 1022 433 q 991 238 1022 303 q 905 119 960 174 q 767 28 850 64 q 594 -8 683 -8 q 453 35 504 -8 q 386 149 403 79 q 501 199 443 164 m 1242 765 q 1313 856 1313 801 q 1255 947 1313 911 q 1094 983 1197 983 q 926 925 990 983 q 861 793 861 867 q 878 728 861 757 q 764 700 825 719 q 672 751 704 735 q 587 785 640 768 q 482 801 533 801 q 242 731 350 801 q 81 562 135 661 q 26 363 26 463 q 88 198 26 263 q 268 133 149 133 q 339 139 310 133 q 420 14 361 61 q 576 -33 479 -33 q 769 6 674 -33 q 931 107 865 46 q 1034 240 996 168 q 1072 382 1072 313 q 1018 497 1072 451 q 856 543 964 543 q 713 514 782 543 l 713 519 q 671 635 713 586 q 757 676 717 660 q 860 619 818 640 q 965 578 901 597 q 1090 560 1029 560 q 1403 644 1293 560 q 1514 832 1514 729 q 1473 933 1514 893 q 1361 974 1432 974 q 1329 967 1329 974 q 1351 956 1329 956 q 1446 925 1414 956 q 1478 846 1478 894 q 1381 667 1478 753 q 1132 581 1283 581 q 951 608 1031 581 q 786 686 872 636 q 889 713 843 706 q 1038 654 936 654 q 1089 685 1085 654 q 1051 722 1089 710 q 980 735 1014 735 q 918 732 946 735 q 903 800 903 765 q 953 918 903 867 q 1099 969 1004 969 q 1219 938 1163 969 q 1276 867 1276 907 q 1235 786 1276 826 q 1225 775 1225 778 q 1242 765 1225 768 m 1253 1078 q 1265 1105 1253 1090 q 1288 1119 1278 1119 q 1305 1113 1299 1119 q 1311 1094 1311 1107 q 1297 1071 1311 1082 q 1272 1060 1282 1060 q 1253 1078 1253 1060 m 1151 1090 q 1164 1117 1151 1103 q 1187 1132 1176 1132 q 1203 1126 1197 1132 q 1210 1107 1210 1119 q 1195 1083 1210 1094 q 1171 1072 1181 1072 q 1151 1090 1151 1072 z "},"":{"ha":894,"x_min":25,"x_max":1771,"o":"m 1568 1089 q 1558 1082 1568 1082 q 1461 1110 1522 1082 q 1400 1161 1400 1139 q 1413 1174 1400 1174 q 1442 1158 1426 1174 q 1550 1097 1482 1114 q 1568 1089 1568 1093 m 921 753 q 895 699 913 721 q 863 678 878 678 q 847 686 847 678 q 869 717 847 697 q 921 753 890 738 m 1699 956 q 1721 937 1721 956 q 1661 903 1721 918 q 1556 888 1601 888 l 1551 888 q 1521 889 1532 888 q 1699 956 1614 956 m 403 301 q 414 247 414 276 q 399 193 414 218 q 360 168 383 168 q 321 196 321 168 q 403 301 321 242 m 817 665 q 848 644 817 644 q 910 680 879 644 q 953 765 942 715 q 1006 775 985 775 q 1050 738 1050 775 q 963 593 1050 676 q 792 510 876 510 q 698 539 729 510 q 667 617 667 568 q 731 767 667 689 q 903 882 796 846 q 926 797 926 844 q 925 775 926 782 q 847 722 878 756 q 817 665 817 689 m 653 382 q 719 364 704 382 q 754 350 743 335 q 757 358 757 353 q 725 390 753 375 q 664 404 697 404 q 418 339 529 404 q 322 378 386 378 q 109 301 193 378 q 25 135 25 225 q 99 -11 25 46 q 301 -68 172 -68 q 537 -30 429 -68 q 735 74 644 8 q 908 222 825 140 q 1069 396 992 303 q 1214 572 1147 489 q 1489 867 1388 788 q 1551 865 1504 865 q 1685 886 1599 865 q 1771 947 1771 907 q 1719 978 1771 978 q 1485 894 1604 978 q 1408 907 1467 897 q 1313 922 1350 917 q 1111 938 1210 938 q 925 908 1013 938 q 719 985 865 985 q 457 928 564 985 q 307 811 356 874 q 244 714 256 744 l 238 699 q 246 683 238 683 q 261 694 254 683 q 317 781 274 728 q 406 870 360 835 q 534 935 453 906 q 710 964 615 964 q 892 897 835 964 q 700 765 774 850 q 626 603 626 679 q 665 518 626 550 q 779 486 703 486 q 985 580 882 486 q 1089 744 1089 674 q 1022 796 1089 796 q 957 786 993 796 q 958 824 958 793 q 936 892 958 856 q 1054 907 993 907 q 1185 901 1115 907 q 1338 883 1256 894 q 1451 869 1419 872 q 1168 572 1331 774 q 1027 400 1101 490 q 875 232 953 310 q 714 92 797 154 q 333 -44 535 -44 q 133 9 200 -44 q 65 143 65 63 q 135 290 65 224 q 313 356 204 356 q 392 321 367 356 q 313 247 342 286 q 285 178 285 208 q 340 135 285 135 q 410 177 381 135 q 440 259 440 219 q 431 319 440 299 q 653 382 529 381 z "},"":{"ha":894,"x_min":25,"x_max":1771,"o":"m 1501 1067 q 1519 1075 1501 1071 q 1628 1136 1588 1092 q 1656 1151 1643 1151 q 1669 1139 1669 1151 q 1608 1088 1669 1117 q 1511 1060 1547 1060 q 1501 1067 1501 1060 m 847 686 q 863 678 847 678 q 895 699 878 678 q 921 753 913 721 q 869 717 890 738 q 847 686 847 697 m 1699 956 q 1521 889 1614 956 q 1551 888 1532 888 l 1556 888 q 1661 903 1601 888 q 1721 937 1721 918 q 1699 956 1721 956 m 360 168 q 399 193 383 168 q 414 247 414 218 q 403 301 414 276 q 321 196 321 242 q 360 168 321 168 m 817 665 q 847 722 817 689 q 925 775 878 756 q 926 797 926 782 q 903 882 926 844 q 731 767 796 846 q 667 617 667 689 q 698 539 667 568 q 792 510 729 510 q 963 593 876 510 q 1050 738 1050 676 q 1006 775 1050 775 q 953 765 985 775 q 910 680 942 715 q 848 644 879 644 q 817 665 817 644 m 653 382 q 431 319 529 381 q 440 259 440 299 q 410 177 440 219 q 340 135 381 135 q 285 178 285 135 q 313 247 285 208 q 392 321 342 286 q 313 356 367 356 q 135 290 204 356 q 65 143 65 224 q 133 9 65 63 q 317 -44 200 -44 q 533 -8 435 -44 q 714 91 631 28 q 875 232 797 154 q 1027 400 953 310 q 1168 572 1101 490 q 1451 869 1331 774 q 1338 883 1419 872 q 1078 907 1164 907 q 936 892 993 907 q 958 824 958 856 q 957 786 958 793 q 1022 796 993 796 q 1089 744 1089 796 q 985 580 1089 674 q 779 486 882 486 q 665 518 703 486 q 626 603 626 550 q 700 765 626 679 q 892 897 774 850 q 710 964 835 964 q 534 936 615 964 q 406 869 453 908 q 275 722 304 786 l 261 694 q 246 683 254 683 q 238 699 238 683 q 294 794 253 740 q 385 885 336 847 q 524 953 435 922 q 719 985 613 985 q 925 908 865 985 q 1085 938 1013 938 q 1216 933 1157 938 q 1313 922 1275 928 q 1408 907 1350 917 q 1485 894 1467 897 q 1719 978 1604 978 q 1771 947 1771 978 q 1685 886 1771 907 q 1551 865 1599 865 q 1489 867 1504 865 q 1214 572 1388 788 q 1069 396 1147 489 q 908 222 992 303 q 735 75 825 140 q 317 -68 540 -68 q 99 -11 172 -68 q 25 135 25 46 q 109 301 25 225 q 322 378 193 378 q 418 339 386 378 q 664 404 529 404 q 721 392 697 404 q 750 369 744 381 l 757 358 q 744 344 757 344 q 731 354 739 344 q 653 382 710 382 z "},"":{"ha":894,"x_min":25,"x_max":1771,"o":"m 1389 1074 q 1379 1080 1379 1074 q 1410 1092 1379 1086 q 1463 1123 1440 1097 q 1497 1149 1486 1149 q 1510 1141 1507 1149 q 1515 1122 1514 1133 q 1557 1079 1519 1096 q 1561 1075 1561 1078 q 1556 1068 1561 1072 q 1546 1064 1551 1064 q 1490 1111 1515 1064 q 1389 1074 1435 1074 m 847 686 q 863 678 847 678 q 895 699 878 678 q 921 753 913 721 q 869 717 890 738 q 847 686 847 697 m 1699 956 q 1521 889 1614 956 q 1551 888 1532 888 l 1556 888 q 1661 903 1601 888 q 1721 937 1721 918 q 1699 956 1721 956 m 360 168 q 399 193 383 168 q 414 247 414 218 q 403 301 414 276 q 321 196 321 242 q 360 168 321 168 m 817 665 q 847 722 817 689 q 925 775 878 756 q 926 797 926 782 q 903 882 926 844 q 731 767 796 846 q 667 617 667 689 q 698 539 667 568 q 792 510 729 510 q 963 593 876 510 q 1050 738 1050 676 q 1006 775 1050 775 q 953 765 985 775 q 910 680 942 715 q 848 644 879 644 q 817 665 817 644 m 653 382 q 431 319 529 381 q 440 259 440 299 q 410 177 440 219 q 340 135 381 135 q 285 178 285 135 q 313 247 285 208 q 392 321 342 286 q 313 356 367 356 q 135 290 204 356 q 65 143 65 224 q 133 9 65 63 q 317 -44 200 -44 q 533 -8 435 -44 q 714 91 631 28 q 875 232 797 154 q 1027 400 953 310 q 1168 572 1101 490 q 1451 869 1331 774 q 1338 883 1419 872 q 1078 907 1164 907 q 936 892 993 907 q 958 824 958 856 q 957 786 958 793 q 1022 796 993 796 q 1089 744 1089 796 q 985 580 1089 674 q 779 486 882 486 q 665 518 703 486 q 626 603 626 550 q 700 765 626 679 q 892 897 774 850 q 710 964 835 964 q 534 936 615 964 q 406 869 453 908 q 275 722 304 786 l 261 694 q 246 683 254 683 q 238 699 238 683 q 294 794 253 740 q 385 885 336 847 q 524 953 435 922 q 719 985 613 985 q 925 908 865 985 q 1085 938 1013 938 q 1216 933 1157 938 q 1313 922 1275 928 q 1408 907 1350 917 q 1485 894 1467 897 q 1719 978 1604 978 q 1771 947 1771 978 q 1685 886 1771 907 q 1551 865 1599 865 q 1489 867 1504 865 q 1214 572 1388 788 q 1069 396 1147 489 q 908 222 992 303 q 735 75 825 140 q 317 -68 540 -68 q 99 -11 172 -68 q 25 135 25 46 q 109 301 25 225 q 322 378 193 378 q 418 339 386 378 q 664 404 529 404 q 721 392 697 404 q 750 369 744 381 l 757 358 q 744 344 757 344 q 731 354 739 344 q 653 382 710 382 z "},"":{"ha":894,"x_min":25,"x_max":1771,"o":"m 1471 1079 q 1483 1106 1471 1092 q 1506 1121 1496 1121 q 1523 1115 1517 1121 q 1529 1096 1529 1108 q 1515 1072 1529 1083 q 1490 1061 1500 1061 q 1471 1079 1471 1061 m 1369 1092 q 1382 1119 1369 1104 q 1405 1133 1394 1133 q 1422 1127 1415 1133 q 1428 1108 1428 1121 q 1413 1085 1428 1096 q 1389 1074 1399 1074 q 1369 1092 1369 1074 m 921 753 q 895 699 913 721 q 863 678 878 678 q 847 686 847 678 q 869 717 847 697 q 921 753 890 738 m 1699 956 q 1721 937 1721 956 q 1661 903 1721 918 q 1556 888 1601 888 l 1551 888 q 1521 889 1532 888 q 1699 956 1614 956 m 403 301 q 414 247 414 276 q 399 193 414 218 q 360 168 383 168 q 321 196 321 168 q 403 301 321 242 m 817 665 q 848 644 817 644 q 910 680 879 644 q 953 765 942 715 q 1006 775 985 775 q 1050 738 1050 775 q 963 593 1050 676 q 792 510 876 510 q 698 539 729 510 q 667 617 667 568 q 731 767 667 689 q 903 882 796 846 q 926 797 926 844 q 925 775 926 782 q 847 722 878 756 q 817 665 817 689 m 653 382 q 719 364 704 382 q 754 350 743 335 q 757 358 757 353 q 725 390 753 375 q 664 404 697 404 q 418 339 529 404 q 322 378 386 378 q 109 301 193 378 q 25 135 25 225 q 99 -11 25 46 q 301 -68 172 -68 q 537 -30 429 -68 q 735 74 644 8 q 908 222 825 140 q 1069 396 992 303 q 1214 572 1147 489 q 1489 867 1388 788 q 1551 865 1504 865 q 1685 886 1599 865 q 1771 947 1771 907 q 1719 978 1771 978 q 1485 894 1604 978 q 1408 907 1467 897 q 1313 922 1350 917 q 1111 938 1210 938 q 925 908 1013 938 q 719 985 865 985 q 457 928 564 985 q 307 811 356 874 q 244 714 256 744 l 238 699 q 246 683 238 683 q 261 694 254 683 q 317 781 274 728 q 406 870 360 835 q 534 935 453 906 q 710 964 615 964 q 892 897 835 964 q 700 765 774 850 q 626 603 626 679 q 665 518 626 550 q 779 486 703 486 q 985 580 882 486 q 1089 744 1089 674 q 1022 796 1089 796 q 957 786 993 796 q 958 824 958 793 q 936 892 958 856 q 1054 907 993 907 q 1185 901 1115 907 q 1338 883 1256 894 q 1451 869 1419 872 q 1168 572 1331 774 q 1027 400 1101 490 q 875 232 953 310 q 714 92 797 154 q 333 -44 535 -44 q 133 9 200 -44 q 65 143 65 63 q 135 290 65 224 q 313 356 204 356 q 392 321 367 356 q 313 247 342 286 q 285 178 285 208 q 340 135 285 135 q 410 177 381 135 q 440 259 440 219 q 431 319 440 299 q 653 382 529 381 z "},"":{"ha":1247,"x_min":40,"x_max":1575,"o":"m 667 631 q 738 667 708 631 q 776 758 768 704 q 690 706 725 744 q 656 649 656 668 q 667 631 656 631 m 85 57 q 192 1 86 1 q 386 33 297 1 q 149 83 213 83 q 85 57 85 83 m 778 775 q 779 810 779 781 q 763 878 779 839 q 472 667 592 806 q 351 428 351 529 q 463 333 351 333 q 659 404 558 333 q 819 563 760 475 q 878 708 878 651 q 821 765 878 765 q 804 764 810 765 q 752 653 793 699 q 654 607 711 607 q 617 633 617 607 q 665 710 617 665 q 778 775 714 756 m 1449 644 q 1317 864 1449 790 q 1141 699 1231 800 q 951 472 1051 597 q 781 275 850 347 l 868 275 q 881 267 881 274 q 875 254 881 261 q 853 243 864 243 l 749 243 q 471 44 608 104 q 681 8 603 8 q 969 70 825 8 q 1217 225 1114 132 q 1384 431 1319 318 q 1449 644 1449 544 m 554 251 q 592 275 564 275 l 732 275 q 902 472 796 342 q 1103 706 1008 603 q 1294 876 1199 808 q 1006 929 1185 929 q 792 889 901 929 q 808 807 808 851 q 808 794 808 803 q 807 782 807 786 q 843 785 829 785 q 922 718 922 785 q 878 599 922 669 q 766 463 833 528 q 609 351 699 397 q 446 306 519 306 q 339 335 372 306 q 306 417 306 365 q 435 674 306 528 q 754 896 565 821 q 574 989 703 989 q 304 896 444 989 q 124 722 164 803 q 104 706 114 706 q 94 717 94 706 q 100 733 94 724 q 306 915 167 826 q 588 1004 446 1004 q 783 907 731 1004 q 1021 949 901 949 q 1324 896 1207 949 q 1564 999 1447 975 q 1575 990 1575 999 q 1565 981 1575 982 q 1346 886 1453 957 q 1496 651 1496 808 q 1426 428 1496 546 q 1244 212 1356 310 q 975 49 1132 114 q 660 -15 818 -15 q 419 24 569 -15 q 189 -14 307 -14 q 40 53 40 -14 q 183 104 40 104 q 389 67 254 104 q 440 53 428 56 q 700 243 567 110 l 569 243 q 554 251 554 243 z "},"":{"ha":1256,"x_min":32,"x_max":2386,"o":"m 336 171 q 378 202 357 171 q 400 257 400 233 q 396 290 400 281 q 344 231 363 261 q 326 186 326 201 q 336 171 326 171 m 842 496 q 849 485 842 485 q 901 525 875 485 q 938 621 928 565 q 842 496 842 535 m 1836 1069 q 1856 1099 1836 1089 q 1893 1110 1876 1110 q 1953 1092 1910 1110 q 2018 1075 1997 1075 q 2052 1085 2039 1075 q 2071 1094 2065 1094 q 2076 1086 2076 1094 q 2053 1060 2076 1071 q 2014 1050 2031 1050 q 1952 1068 1997 1050 q 1890 1086 1907 1086 q 1860 1075 1874 1086 q 1842 1064 1847 1064 q 1836 1069 1836 1064 m 1158 883 q 1150 892 1158 892 q 1085 845 1115 892 q 1046 742 1054 799 q 1158 883 1158 842 m 725 928 q 908 858 850 928 q 967 686 967 788 l 967 674 l 1019 719 q 1069 862 1024 796 q 1179 928 1114 928 q 1200 901 1200 928 q 1159 828 1200 874 q 1043 715 1118 782 l 1043 708 q 1106 626 1043 626 q 1176 650 1150 626 q 1192 658 1186 658 q 1197 651 1197 658 q 1192 641 1197 643 q 1178 633 1186 639 q 1163 621 1171 626 q 1099 606 1139 606 q 1019 694 1026 606 l 964 646 q 920 513 956 569 q 840 457 885 457 q 811 486 811 457 q 942 651 811 536 q 943 679 943 661 q 884 838 943 774 q 693 903 825 903 q 550 878 628 903 q 290 703 400 832 q 274 683 282 694 q 253 661 258 661 q 243 674 243 667 q 319 760 271 714 q 420 839 368 806 q 555 900 472 872 q 725 928 638 928 m 693 414 q 708 403 708 414 q 693 392 708 392 q 417 308 529 392 q 424 271 424 288 q 393 175 424 221 q 328 129 363 129 q 293 164 293 129 q 318 231 293 192 q 388 308 343 271 q 289 346 360 346 q 125 281 192 346 q 58 141 58 217 q 120 17 58 65 q 297 -32 182 -32 q 524 15 413 -32 q 738 140 636 63 q 939 314 839 218 q 1133 513 1039 410 q 1311 706 1226 615 q 1625 975 1508 918 q 1631 976 1628 976 q 1643 960 1643 976 q 1628 940 1643 953 q 1560 879 1586 906 q 1442 703 1503 808 q 1351 536 1382 599 q 1230 276 1296 422 q 1164 126 1164 131 q 1167 121 1164 121 q 1265 236 1181 133 q 1450 448 1349 339 q 1681 673 1551 557 q 1958 864 1810 789 q 2236 939 2106 939 q 2386 849 2386 939 q 2314 700 2386 785 q 2134 554 2242 615 q 1936 493 2026 493 q 1865 515 1889 493 q 1840 572 1840 538 q 1912 704 1840 640 q 2090 768 1983 768 q 2110 758 2106 768 q 2102 746 2110 751 q 2085 740 2094 740 q 1935 688 2003 740 q 1867 583 1867 635 q 1973 522 1867 522 q 2216 634 2079 522 q 2353 831 2353 746 q 2217 908 2353 908 q 1994 853 2113 908 q 1777 723 1875 799 q 1562 530 1679 647 q 1372 327 1444 413 q 1203 125 1300 242 q 1085 -17 1107 8 q 1053 -42 1064 -42 q 1043 -32 1043 -42 q 1063 17 1043 -22 q 1108 103 1083 56 q 1193 285 1135 151 q 1285 491 1251 419 q 1341 603 1318 563 q 1394 700 1364 644 q 1518 876 1447 793 q 1305 666 1432 803 q 1067 413 1178 529 q 829 183 957 297 q 565 3 701 69 q 297 -64 428 -64 q 99 -8 167 -64 q 32 136 32 49 q 108 297 32 224 q 306 369 185 369 q 410 324 382 369 q 693 414 532 414 z "},"":{"ha":810,"x_min":50,"x_max":1083,"o":"m 1067 989 q 1057 982 1067 982 q 960 1010 1021 982 q 899 1061 899 1039 q 912 1074 899 1074 q 940 1058 925 1074 q 1049 997 981 1014 q 1067 989 1067 993 m 642 439 q 624 447 642 447 q 580 417 607 447 q 531 342 553 388 q 606 392 571 361 q 642 439 642 424 m 1044 757 q 904 886 1044 886 q 736 830 831 886 q 565 696 642 774 q 435 533 489 618 q 382 393 382 449 q 467 324 382 324 q 496 328 479 324 q 567 438 522 393 q 656 483 611 483 q 678 460 678 483 q 631 390 678 438 q 522 318 583 343 q 503 221 503 268 q 593 97 503 119 q 908 423 771 222 q 1044 757 1044 624 m 981 279 q 999 293 994 293 q 1004 285 1004 293 q 988 261 1004 278 q 615 69 804 69 q 592 71 599 69 q 269 -40 419 -40 q 103 9 157 -40 q 50 149 50 58 q 109 363 50 240 q 256 592 168 485 q 456 776 343 699 q 665 865 568 854 q 675 858 675 865 q 661 849 675 850 q 414 715 549 835 q 187 438 279 596 q 94 160 94 279 q 304 -15 94 -15 q 561 75 421 -15 q 471 211 471 100 q 488 307 471 258 q 436 300 460 300 q 350 375 350 300 q 406 527 350 435 q 542 703 461 619 q 728 849 624 788 q 919 910 832 910 q 1083 763 1083 910 q 947 424 1083 624 q 625 93 811 225 l 643 93 q 803 139 706 93 q 981 279 900 185 z "},"":{"ha":835,"x_min":50,"x_max":1124,"o":"m 956 979 q 974 988 956 983 q 1082 1049 1042 1004 q 1110 1064 1097 1064 q 1124 1051 1124 1064 q 1063 1001 1124 1029 q 965 972 1001 972 q 956 979 956 972 m 642 439 q 624 447 642 447 q 580 417 607 447 q 531 342 553 388 q 606 392 571 361 q 642 439 642 424 m 1044 757 q 904 886 1044 886 q 736 830 831 886 q 565 696 642 774 q 435 533 489 618 q 382 393 382 449 q 467 324 382 324 q 496 328 479 324 q 567 438 522 393 q 656 483 611 483 q 678 460 678 483 q 631 390 678 438 q 522 318 583 343 q 503 221 503 268 q 593 97 503 119 q 908 423 771 222 q 1044 757 1044 624 m 981 279 q 999 293 994 293 q 1004 285 1004 293 q 988 261 1004 278 q 615 69 804 69 q 592 71 599 69 q 269 -40 419 -40 q 103 9 157 -40 q 50 149 50 58 q 109 363 50 240 q 256 592 168 485 q 456 776 343 699 q 665 865 568 854 q 675 858 675 865 q 661 849 675 850 q 414 715 549 835 q 187 438 279 596 q 94 160 94 279 q 304 -15 94 -15 q 561 75 421 -15 q 471 211 471 100 q 488 307 471 258 q 436 300 460 300 q 350 375 350 300 q 406 527 350 435 q 542 703 461 619 q 728 849 624 788 q 919 910 832 910 q 1083 763 1083 910 q 947 424 1083 624 q 625 93 811 225 l 643 93 q 803 139 706 93 q 981 279 900 185 z "},"":{"ha":836,"x_min":50,"x_max":1083,"o":"m 896 986 q 886 992 886 986 q 917 1004 886 999 q 970 1035 947 1010 q 1003 1061 993 1061 q 1017 1053 1014 1061 q 1022 1036 1021 1046 q 1064 992 1026 1008 q 1068 987 1068 989 q 1063 981 1068 985 q 1053 976 1058 976 q 997 1024 1022 976 q 896 986 942 986 m 642 439 q 624 447 642 447 q 580 417 607 447 q 531 342 553 388 q 606 392 571 361 q 642 439 642 424 m 1044 757 q 904 886 1044 886 q 736 830 831 886 q 565 696 642 774 q 435 533 489 618 q 382 393 382 449 q 467 324 382 324 q 496 328 479 324 q 567 438 522 393 q 656 483 611 483 q 678 460 678 483 q 631 390 678 438 q 522 318 583 343 q 503 221 503 268 q 593 97 503 119 q 908 423 771 222 q 1044 757 1044 624 m 981 279 q 999 293 994 293 q 1004 285 1004 293 q 988 261 1004 278 q 615 69 804 69 q 592 71 599 69 q 269 -40 419 -40 q 103 9 157 -40 q 50 149 50 58 q 109 363 50 240 q 256 592 168 485 q 456 776 343 699 q 665 865 568 854 q 675 858 675 865 q 661 849 675 850 q 414 715 549 835 q 187 438 279 596 q 94 160 94 279 q 304 -15 94 -15 q 561 75 421 -15 q 471 211 471 100 q 488 307 471 258 q 436 300 460 300 q 350 375 350 300 q 406 527 350 435 q 542 703 461 619 q 728 849 624 788 q 919 910 832 910 q 1083 763 1083 910 q 947 424 1083 624 q 625 93 811 225 l 643 93 q 803 139 706 93 q 981 279 900 185 z "},"":{"ha":840,"x_min":50,"x_max":1094,"o":"m 854 999 q 874 1028 854 1018 q 911 1039 894 1039 q 972 1022 928 1039 q 1037 1004 1017 1004 q 1070 1014 1057 1004 q 1089 1024 1083 1024 q 1094 1015 1094 1024 q 1072 990 1094 1000 q 1032 979 1049 979 q 970 997 1015 979 q 908 1015 925 1015 q 878 1004 892 1015 q 860 993 865 993 q 854 999 854 993 m 642 439 q 624 447 642 447 q 580 417 607 447 q 531 342 553 388 q 606 392 571 361 q 642 439 642 424 m 1044 757 q 904 886 1044 886 q 736 830 831 886 q 565 696 642 774 q 435 533 489 618 q 382 393 382 449 q 467 324 382 324 q 496 328 479 324 q 567 438 522 393 q 656 483 611 483 q 678 460 678 483 q 631 390 678 438 q 522 318 583 343 q 503 221 503 268 q 593 97 503 119 q 908 423 771 222 q 1044 757 1044 624 m 981 279 q 999 293 994 293 q 1004 285 1004 293 q 988 261 1004 278 q 615 69 804 69 q 592 71 599 69 q 269 -40 419 -40 q 103 9 157 -40 q 50 149 50 58 q 109 363 50 240 q 256 592 168 485 q 456 776 343 699 q 665 865 568 854 q 675 858 675 865 q 661 849 675 850 q 414 715 549 835 q 187 438 279 596 q 94 160 94 279 q 304 -15 94 -15 q 561 75 421 -15 q 471 211 471 100 q 488 307 471 258 q 436 300 460 300 q 350 375 350 300 q 406 527 350 435 q 542 703 461 619 q 728 849 624 788 q 919 910 832 910 q 1083 763 1083 910 q 947 424 1083 624 q 625 93 811 225 l 643 93 q 803 139 706 93 q 981 279 900 185 z "},"":{"ha":810,"x_min":50,"x_max":1083,"o":"m 996 999 q 1008 1026 996 1011 q 1031 1040 1021 1040 q 1048 1034 1042 1040 q 1054 1015 1054 1028 q 1040 992 1054 1003 q 1015 981 1025 981 q 996 999 996 981 m 894 1011 q 907 1038 894 1024 q 930 1053 919 1053 q 947 1047 940 1053 q 953 1028 953 1040 q 938 1004 953 1015 q 914 993 924 993 q 894 1011 894 993 m 642 439 q 624 447 642 447 q 580 417 607 447 q 531 342 553 388 q 606 392 571 361 q 642 439 642 424 m 1044 757 q 904 886 1044 886 q 736 830 831 886 q 565 696 642 774 q 435 533 489 618 q 382 393 382 449 q 467 324 382 324 q 496 328 479 324 q 567 438 522 393 q 656 483 611 483 q 678 460 678 483 q 631 390 678 438 q 522 318 583 343 q 503 221 503 268 q 593 97 503 119 q 908 423 771 222 q 1044 757 1044 624 m 981 279 q 999 293 994 293 q 1004 285 1004 293 q 988 261 1004 278 q 615 69 804 69 q 592 71 599 69 q 269 -40 419 -40 q 103 9 157 -40 q 50 149 50 58 q 109 363 50 240 q 256 592 168 485 q 456 776 343 699 q 665 865 568 854 q 675 858 675 865 q 661 849 675 850 q 414 715 549 835 q 187 438 279 596 q 94 160 94 279 q 304 -15 94 -15 q 561 75 421 -15 q 471 211 471 100 q 488 307 471 258 q 436 300 460 300 q 350 375 350 300 q 406 527 350 435 q 542 703 461 619 q 728 849 624 788 q 919 910 832 910 q 1083 763 1083 910 q 947 424 1083 624 q 625 93 811 225 l 643 93 q 803 139 706 93 q 981 279 900 185 z "},"":{"ha":517,"x_min":208,"x_max":669,"o":"m 467 397 l 596 228 q 599 222 599 225 q 587 214 599 214 q 565 224 575 214 l 444 381 l 219 215 q 213 214 217 214 q 208 225 208 214 q 215 243 208 236 l 428 401 l 304 564 q 317 589 307 589 q 331 577 324 589 q 340 564 339 565 l 450 418 l 644 564 q 669 555 669 564 q 646 529 669 546 l 467 397 z "},"":{"ha":843,"x_min":-10,"x_max":1197,"o":"m 417 328 q 1032 847 846 693 q 922 886 996 886 q 754 831 849 886 q 583 697 660 775 q 454 535 507 619 q 401 401 401 450 q 417 328 401 351 m 735 379 q 475 271 568 271 q 408 289 433 271 l 138 60 q 310 -15 186 -15 q 570 71 435 -15 q 812 278 706 157 q 990 532 918 399 q 1063 757 1063 665 q 1044 832 1063 801 q 744 575 961 761 q 433 310 526 389 q 488 296 450 296 q 585 321 526 296 q 680 367 644 346 q 720 394 715 389 q 733 399 725 399 q 740 391 740 399 q 735 379 740 383 m 392 307 q 368 375 371 331 q 424 527 368 435 q 560 703 479 619 q 746 849 642 788 q 934 910 850 910 q 1060 871 1018 910 q 1173 962 1165 958 q 1189 965 1181 965 q 1197 960 1197 965 q 1176 940 1197 954 q 1074 857 1154 925 q 1101 763 1101 818 q 1026 525 1101 664 q 835 261 950 386 q 571 48 721 136 q 288 -40 421 -40 q 101 31 154 -40 q 4 -46 64 0 q -10 -41 -10 -46 q -5 -32 -10 -36 q 11 -19 0 -28 q 90 49 47 10 q 68 146 68 89 q 127 363 68 240 q 274 592 186 485 q 474 776 361 699 q 683 865 586 854 l 688 865 q 693 860 693 865 l 693 857 q 679 849 693 850 q 432 715 567 835 q 205 438 297 596 q 113 160 113 279 q 126 81 113 113 q 392 307 254 189 z "},"":{"ha":956,"x_min":-254,"x_max":1264,"o":"m 1131 921 q 1121 914 1131 914 q 1024 942 1085 914 q 963 993 963 971 q 976 1006 963 1006 q 1004 990 989 1006 q 1113 929 1044 946 q 1131 921 1131 925 m 358 633 q 349 651 349 633 q 371 701 349 668 q 428 751 393 733 q 401 669 422 704 q 358 633 381 633 m 1197 717 q 1207 706 1207 717 q 1100 541 1207 660 q 843 293 993 422 q 1051 576 931 435 q 1197 717 1171 717 m 429 767 q 351 704 382 744 q 319 637 319 664 q 349 610 319 610 q 410 655 379 610 q 450 760 442 700 q 483 765 469 765 q 553 701 553 765 q 444 491 553 611 q 229 371 335 371 q 128 400 161 371 q 94 478 94 429 q 187 679 94 567 q 414 853 279 792 q 429 779 429 822 l 429 767 m 644 928 q 428 881 538 928 q 271 951 383 951 q -32 865 124 951 q -249 692 -187 779 q -254 675 -254 682 q -244 664 -254 664 q -225 681 -235 664 q -30 844 -186 756 q 261 932 126 932 q 403 871 363 932 q 155 678 257 801 q 53 460 53 556 q 206 343 53 343 q 381 410 289 343 q 531 563 474 476 q 589 713 589 650 q 506 785 589 785 q 450 775 475 785 q 451 806 451 779 q 436 863 451 832 q 628 903 532 903 q 772 799 772 903 q 722 625 772 715 q 598 458 671 535 q 453 310 525 382 q 279 40 279 136 q 299 -6 279 13 q 343 -25 319 -25 q 757 197 471 -25 q 711 56 711 106 q 734 -24 711 7 q 797 -56 757 -56 q 988 18 875 -56 q 1001 37 1001 28 q 994 46 1000 46 q 979 39 989 46 q 824 -32 886 -32 q 750 60 750 -32 q 814 240 750 124 q 1129 534 994 386 q 1264 742 1264 682 q 1243 764 1264 764 q 1032 588 1188 764 q 781 240 876 411 q 381 3 488 3 q 342 17 357 3 q 326 61 326 31 q 353 138 326 92 q 422 231 379 185 q 516 326 464 276 q 619 431 568 376 q 714 544 671 486 q 808 810 808 674 q 644 928 808 928 z "},"":{"ha":956,"x_min":-254,"x_max":1264,"o":"m 1046 901 q 1064 910 1046 906 q 1172 971 1132 926 q 1201 986 1188 986 q 1214 974 1214 986 q 1153 923 1214 951 q 1056 894 1092 894 q 1046 901 1046 894 m 358 633 q 401 669 381 633 q 428 751 422 704 q 371 701 393 733 q 349 651 349 668 q 358 633 349 633 m 1197 717 q 1051 576 1171 717 q 843 293 931 435 q 1100 541 993 422 q 1207 706 1207 660 q 1197 717 1207 717 m 450 760 q 410 655 442 700 q 349 610 379 610 q 319 637 319 610 q 351 704 319 664 q 429 767 382 744 l 429 779 q 414 853 429 822 q 187 679 279 792 q 94 478 94 567 q 128 400 94 429 q 229 371 161 371 q 444 491 335 371 q 553 701 553 611 q 483 765 553 765 q 450 760 469 765 m 644 928 q 808 810 808 928 q 714 544 808 674 q 515 326 649 457 q 422 231 464 276 q 326 51 326 128 q 342 17 326 31 q 381 3 357 3 q 781 240 488 3 q 1032 588 876 411 q 1243 764 1188 764 q 1264 742 1264 764 q 1129 534 1264 682 q 814 240 994 386 q 750 60 750 124 q 824 -32 750 -32 q 979 39 886 -32 q 994 46 989 46 q 1001 37 1000 46 q 988 18 1001 28 q 797 -56 875 -56 q 734 -24 757 -56 q 711 56 711 7 q 757 197 711 106 q 343 -25 471 -25 q 299 -6 319 -25 q 279 40 279 13 q 453 310 279 136 q 598 458 525 382 q 722 625 671 535 q 772 799 772 715 q 628 903 772 903 q 436 863 532 903 q 451 806 451 832 q 450 775 451 781 q 506 785 475 785 q 589 713 589 785 q 531 563 589 650 q 381 410 474 476 q 206 343 289 343 q 53 460 53 343 q 155 678 53 556 q 403 871 257 801 q 261 932 363 932 q -30 844 126 932 q -225 681 -186 756 q -244 664 -235 664 q -254 675 -254 664 q -249 692 -254 682 q -32 865 -187 779 q 271 951 124 951 q 428 881 383 951 q 644 928 538 928 z "},"":{"ha":956,"x_min":-254,"x_max":1264,"o":"m 986 913 q 976 919 976 913 q 1007 931 976 925 q 1060 962 1038 936 q 1094 988 1083 988 q 1108 980 1104 988 q 1113 961 1111 972 q 1154 918 1117 935 q 1158 914 1158 917 q 1153 907 1158 911 q 1143 903 1149 903 q 1088 950 1113 903 q 986 913 1032 913 m 358 633 q 401 669 381 633 q 428 751 422 704 q 371 701 393 733 q 349 651 349 668 q 358 633 349 633 m 1197 717 q 1051 576 1171 717 q 843 293 931 435 q 1100 541 993 422 q 1207 706 1207 660 q 1197 717 1207 717 m 450 760 q 410 655 442 700 q 349 610 379 610 q 319 637 319 610 q 351 704 319 664 q 429 767 382 744 l 429 779 q 414 853 429 822 q 187 679 279 792 q 94 478 94 567 q 128 400 94 429 q 229 371 161 371 q 444 491 335 371 q 553 701 553 611 q 483 765 553 765 q 450 760 469 765 m 644 928 q 808 810 808 928 q 714 544 808 674 q 515 326 649 457 q 422 231 464 276 q 326 51 326 128 q 342 17 326 31 q 381 3 357 3 q 781 240 488 3 q 1032 588 876 411 q 1243 764 1188 764 q 1264 742 1264 764 q 1129 534 1264 682 q 814 240 994 386 q 750 60 750 124 q 824 -32 750 -32 q 979 39 886 -32 q 994 46 989 46 q 1001 37 1000 46 q 988 18 1001 28 q 797 -56 875 -56 q 734 -24 757 -56 q 711 56 711 7 q 757 197 711 106 q 343 -25 471 -25 q 299 -6 319 -25 q 279 40 279 13 q 453 310 279 136 q 598 458 525 382 q 722 625 671 535 q 772 799 772 715 q 628 903 772 903 q 436 863 532 903 q 451 806 451 832 q 450 775 451 781 q 506 785 475 785 q 589 713 589 785 q 531 563 589 650 q 381 410 474 476 q 206 343 289 343 q 53 460 53 343 q 155 678 53 556 q 403 871 257 801 q 261 932 363 932 q -30 844 126 932 q -225 681 -186 756 q -244 664 -235 664 q -254 675 -254 664 q -249 692 -254 682 q -32 865 -187 779 q 271 951 124 951 q 428 881 383 951 q 644 928 538 928 z "},"":{"ha":956,"x_min":-254,"x_max":1264,"o":"m 1099 922 q 1111 949 1099 935 q 1134 964 1124 964 q 1151 958 1144 964 q 1157 939 1157 951 q 1142 915 1157 926 q 1118 904 1128 904 q 1099 922 1099 904 m 997 935 q 1010 962 997 947 q 1033 976 1022 976 q 1049 970 1043 976 q 1056 951 1056 964 q 1041 928 1056 939 q 1017 917 1026 917 q 997 935 997 917 m 358 633 q 349 651 349 633 q 371 701 349 668 q 428 751 393 733 q 401 669 422 704 q 358 633 381 633 m 1197 717 q 1207 706 1207 717 q 1100 541 1207 660 q 843 293 993 422 q 1051 576 931 435 q 1197 717 1171 717 m 429 767 q 351 704 382 744 q 319 637 319 664 q 349 610 319 610 q 410 655 379 610 q 450 760 442 700 q 483 765 469 765 q 553 701 553 765 q 444 491 553 611 q 229 371 335 371 q 128 400 161 371 q 94 478 94 429 q 187 679 94 567 q 414 853 279 792 q 429 779 429 822 l 429 767 m 644 928 q 428 881 538 928 q 271 951 383 951 q -32 865 124 951 q -249 692 -187 779 q -254 675 -254 682 q -244 664 -254 664 q -225 681 -235 664 q -30 844 -186 756 q 261 932 126 932 q 403 871 363 932 q 155 678 257 801 q 53 460 53 556 q 206 343 53 343 q 381 410 289 343 q 531 563 474 476 q 589 713 589 650 q 506 785 589 785 q 450 775 475 785 q 451 806 451 781 q 436 863 451 832 q 628 903 532 903 q 772 799 772 903 q 722 625 772 715 q 598 458 671 535 q 453 310 525 382 q 279 40 279 136 q 299 -6 279 13 q 343 -25 319 -25 q 757 197 471 -25 q 711 56 711 106 q 734 -24 711 7 q 797 -56 757 -56 q 988 18 875 -56 q 1001 37 1001 28 q 994 46 1000 46 q 979 39 989 46 q 824 -32 886 -32 q 750 60 750 -32 q 814 240 750 124 q 1129 534 994 386 q 1264 742 1264 682 q 1243 764 1264 764 q 1032 588 1188 764 q 781 240 876 411 q 381 3 488 3 q 342 17 357 3 q 326 61 326 31 q 353 138 326 92 q 422 231 379 185 q 516 326 464 276 q 619 431 568 376 q 714 544 671 486 q 808 810 808 674 q 644 928 808 928 z "},"":{"ha":828,"x_min":-247,"x_max":1233,"o":"m 1044 896 q 1063 904 1044 900 q 1171 965 1131 921 q 1199 981 1186 981 q 1213 968 1213 981 q 1151 917 1213 946 q 1054 889 1090 889 q 1044 896 1044 889 m 496 -390 q 514 -406 496 -406 q 547 -385 532 -406 q 561 -342 561 -365 q 554 -296 561 -319 q 496 -390 496 -353 m 444 751 q 388 701 410 733 q 365 651 365 668 q 375 633 365 633 q 418 669 397 633 q 444 751 439 704 m 1176 663 q 1167 674 1176 674 q 1143 667 1157 674 q 1112 644 1129 660 q 1077 610 1094 628 q 1035 563 1060 593 q 991 508 1011 533 q 940 442 971 483 q 886 372 908 401 q 767 214 806 267 q 1052 476 928 342 q 1176 663 1176 610 m 282 -161 q 49 -211 164 -161 q -130 -326 -65 -261 q -194 -444 -194 -392 q -75 -514 -194 -514 q 408 -176 107 -514 q 282 -161 354 -161 m 111 478 q 144 400 111 429 q 246 371 178 371 q 460 491 351 371 q 569 701 569 611 q 500 765 569 765 q 467 760 486 765 q 427 655 458 700 q 364 610 396 610 q 332 640 332 610 q 364 708 332 669 q 446 768 396 747 l 446 779 q 431 853 446 822 q 203 679 296 792 q 111 478 111 567 m 457 -168 q 571 -260 543 -199 q 881 -171 696 -171 q 997 -190 943 -171 q 1006 -203 1006 -194 q 993 -212 1006 -212 q 980 -208 992 -212 q 956 -199 968 -203 q 871 -186 915 -186 q 578 -278 693 -186 q 583 -329 583 -294 q 556 -401 583 -364 q 497 -437 529 -437 q 465 -407 465 -437 q 547 -278 465 -346 q 440 -187 518 -218 q -97 -540 117 -540 q -210 -516 -172 -540 q -247 -453 -247 -492 q -177 -322 -247 -393 q 21 -198 -107 -251 q 289 -144 149 -144 q 425 -158 371 -144 q 632 92 519 -50 q 360 -25 454 -25 q 315 -6 336 -25 q 293 40 293 13 q 468 307 293 135 q 613 453 540 378 q 738 620 686 529 q 789 799 789 711 q 644 903 789 903 q 453 863 549 903 q 468 790 468 832 l 467 776 q 522 785 503 785 q 606 713 606 785 q 548 563 606 650 q 398 410 490 476 q 222 343 306 343 q 69 460 69 343 q 172 678 69 556 q 419 871 274 801 q 278 932 379 932 q -13 844 143 932 q -208 681 -169 756 q -228 664 -218 664 q -237 675 -237 664 q -232 692 -237 682 q -15 865 -171 779 q 288 951 140 951 q 444 881 400 951 q 661 928 554 928 q 826 810 826 928 q 776 621 826 717 q 656 448 726 525 q 514 301 585 371 q 393 165 443 231 q 343 51 343 100 q 358 17 343 31 q 397 3 374 3 q 667 138 478 3 q 742 235 693 172 q 817 332 790 297 q 885 420 843 367 q 953 504 928 474 q 1015 574 979 535 q 1074 636 1050 614 q 1125 681 1099 658 q 1213 721 1172 721 q 1233 699 1233 721 q 1074 463 1233 631 q 722 156 914 296 q 457 -168 578 -35 z "},"":{"ha":1092,"x_min":19,"x_max":1792,"o":"m 904 296 q 907 288 904 293 l 929 313 q 904 296 904 308 m 872 615 q 802 576 832 606 q 772 532 772 546 q 781 518 772 518 q 840 546 815 518 q 872 615 865 574 m 313 182 q 337 167 313 167 q 383 199 361 167 q 404 272 404 232 q 403 289 404 283 q 313 182 313 222 m 974 313 l 933 269 q 1024 257 964 257 q 1150 275 1083 257 q 1094 289 1132 279 q 974 313 1019 310 m 904 619 l 894 618 q 849 521 885 560 q 760 482 813 482 q 738 508 738 482 q 778 577 738 533 q 875 635 819 621 l 875 642 q 853 710 875 674 q 658 574 731 658 q 586 422 586 490 q 590 393 586 406 q 694 404 643 404 q 713 390 713 400 q 683 386 713 386 q 600 375 653 386 q 672 346 622 346 q 863 431 763 346 q 964 578 964 517 q 904 619 964 619 m 989 328 q 1185 285 1031 326 q 1378 406 1304 325 q 1451 568 1451 486 q 1333 725 1451 674 q 1157 523 1272 660 q 989 328 1042 386 m 424 303 q 425 283 425 297 q 394 188 425 233 q 324 143 364 143 q 283 174 283 143 q 315 238 283 200 q 397 310 346 275 q 283 372 372 372 q 131 303 193 372 q 68 153 68 235 q 131 17 68 71 q 332 -36 194 -36 q 603 41 469 -36 q 876 257 738 118 q 856 285 856 269 q 878 314 856 301 q 946 329 901 326 q 1119 526 999 386 q 1306 735 1240 667 q 1110 761 1229 761 q 876 719 992 761 q 897 654 897 686 l 896 639 q 914 640 901 640 q 1003 586 1003 640 q 947 479 1003 542 q 810 369 892 417 q 659 322 728 322 q 564 367 590 322 q 424 303 492 346 m 1776 1022 q 1792 1013 1789 1022 q 1765 996 1792 1000 q 1356 749 1575 974 q 1492 575 1492 692 q 1417 407 1492 490 q 1218 278 1343 324 q 1311 269 1268 269 q 1369 270 1354 269 q 1383 264 1383 271 q 1357 250 1383 254 q 1183 267 1263 250 q 975 238 1085 238 q 908 244 939 238 q 620 23 767 103 q 318 -57 474 -57 q 91 1 163 -57 q 19 148 19 58 q 99 313 19 238 q 297 389 178 389 q 418 322 393 389 q 557 383 486 365 q 553 414 553 397 q 631 578 553 488 q 842 725 710 669 q 632 803 774 803 q 452 773 536 803 q 317 700 368 743 q 169 539 208 611 l 154 510 q 139 499 147 499 q 131 514 131 499 q 197 617 150 558 q 297 715 244 675 q 442 789 350 756 q 642 822 535 822 q 865 735 793 822 q 1123 783 997 783 q 1328 758 1249 783 q 1776 1022 1569 1003 z "},"":{"ha":350,"x_min":-508,"x_max":699,"o":"m 460 369 q 406 408 450 408 q 361 378 361 408 q 411 357 361 357 q 460 369 433 357 m 199 69 l 164 75 q 119 60 136 75 q 101 26 101 44 q 125 8 101 8 q 338 139 215 8 q 461 354 460 269 q 371 338 422 338 q 319 365 319 338 q 351 407 319 388 q 432 426 382 426 q 490 388 482 426 q 611 506 554 431 q 668 622 668 582 q 644 646 668 646 q 451 538 567 646 q 213 278 335 431 q -34 -28 90 125 q -286 -288 -158 -181 q -508 -396 -414 -396 l -499 -378 q -356 -320 -436 -378 q -192 -170 -275 -262 q -19 33 -108 -78 q 161 256 71 144 q 335 460 251 368 q 503 610 419 553 q 654 668 588 668 q 699 628 699 668 q 635 496 699 576 q 493 371 572 415 l 493 368 q 431 217 493 308 q 274 53 368 125 q 101 -18 179 -18 q 60 18 60 -18 q 87 70 60 46 q 161 94 114 94 q 208 78 208 94 q 199 69 208 69 z "},"":{"ha":364,"x_min":26,"x_max":415,"o":"m 390 300 q 381 293 390 293 q 283 322 344 293 q 222 372 222 350 q 235 385 222 385 q 264 369 249 385 q 372 308 304 325 q 390 300 390 304 m 114 17 q 235 73 168 17 q 313 169 301 129 q 292 198 313 186 q 244 210 271 210 q 127 155 181 210 q 74 58 74 100 q 114 17 74 17 m 257 232 q 338 197 306 232 q 360 218 339 197 q 382 233 369 233 q 394 221 394 233 l 389 208 q 334 140 385 201 q 276 68 283 79 q 268 35 268 57 q 288 19 268 19 q 401 86 328 19 q 410 92 406 92 q 415 85 415 92 q 359 32 415 68 q 258 -4 303 -4 q 228 28 228 -4 q 224 39 228 39 q 219 38 221 39 q 88 -8 150 -8 q 26 47 26 -8 q 96 169 26 106 q 257 232 165 232 z "},"":{"ha":364,"x_min":26,"x_max":432,"o":"m 264 286 q 282 294 264 290 q 390 356 350 311 q 419 371 406 371 q 432 358 432 371 q 371 308 432 336 q 274 279 310 279 q 264 286 264 279 m 114 17 q 235 73 168 17 q 313 169 301 129 q 292 198 313 186 q 244 210 271 210 q 127 155 181 210 q 74 58 74 100 q 114 17 74 17 m 257 232 q 338 197 306 232 q 360 218 339 197 q 382 233 369 233 q 394 221 394 233 l 389 208 q 334 140 385 201 q 276 68 283 79 q 268 35 268 57 q 288 19 268 19 q 401 86 328 19 q 410 92 406 92 q 415 85 415 92 q 359 32 415 68 q 258 -4 303 -4 q 228 28 228 -4 q 224 39 228 39 q 219 38 221 39 q 88 -8 150 -8 q 26 47 26 -8 q 96 169 26 106 q 257 232 165 232 z "},"":{"ha":364,"x_min":26,"x_max":415,"o":"m 238 293 q 228 299 228 293 q 258 311 228 306 q 312 342 289 317 q 345 368 335 368 q 359 360 356 368 q 364 342 363 353 q 406 299 368 315 q 410 294 410 297 q 405 288 410 292 q 394 283 400 283 q 339 331 364 283 q 238 293 283 293 m 114 17 q 235 73 168 17 q 313 169 301 129 q 292 198 313 186 q 244 210 271 210 q 127 155 181 210 q 74 58 74 100 q 114 17 74 17 m 257 232 q 338 197 306 232 q 360 218 339 197 q 382 233 369 233 q 394 221 394 233 l 389 208 q 334 140 385 201 q 276 68 283 79 q 268 35 268 57 q 288 19 268 19 q 401 86 328 19 q 410 92 406 92 q 415 85 415 92 q 359 32 415 68 q 258 -4 303 -4 q 228 28 228 -4 q 224 39 228 39 q 219 38 221 39 q 88 -8 150 -8 q 26 47 26 -8 q 96 169 26 106 q 257 232 165 232 z "},"":{"ha":364,"x_min":26,"x_max":425,"o":"m 185 310 q 205 340 185 329 q 242 350 225 350 q 303 333 258 350 q 367 315 347 315 q 401 325 388 315 q 419 335 414 335 q 425 326 425 335 q 402 301 425 311 q 363 290 379 290 q 301 308 346 290 q 239 326 256 326 q 209 315 222 326 q 190 304 196 304 q 185 310 185 304 m 114 17 q 235 73 168 17 q 313 169 301 129 q 292 198 313 186 q 244 210 271 210 q 127 155 181 210 q 74 58 74 100 q 114 17 74 17 m 257 232 q 338 197 306 232 q 360 218 339 197 q 382 233 369 233 q 394 221 394 233 l 389 208 q 334 140 385 201 q 276 68 283 79 q 268 35 268 57 q 288 19 268 19 q 401 86 328 19 q 410 92 406 92 q 415 85 415 92 q 359 32 415 68 q 258 -4 303 -4 q 228 28 228 -4 q 224 39 228 39 q 219 38 221 39 q 88 -8 150 -8 q 26 47 26 -8 q 96 169 26 106 q 257 232 165 232 z "},"":{"ha":364,"x_min":26,"x_max":417,"o":"m 358 307 q 371 334 358 319 q 394 349 383 349 q 410 342 404 349 q 417 324 417 336 q 402 300 417 311 q 378 289 388 289 q 358 307 358 289 m 257 319 q 269 347 257 332 q 292 361 282 361 q 309 355 303 361 q 315 336 315 349 q 301 313 315 324 q 276 301 286 301 q 257 319 257 301 m 114 17 q 235 73 168 17 q 313 169 301 129 q 292 198 313 186 q 244 210 271 210 q 127 155 181 210 q 74 58 74 100 q 114 17 74 17 m 257 232 q 338 197 306 232 q 360 218 339 197 q 382 233 369 233 q 394 221 394 233 l 389 208 q 334 140 385 201 q 276 68 283 79 q 268 35 268 57 q 288 19 268 19 q 401 86 328 19 q 410 92 406 92 q 415 85 415 92 q 359 32 415 68 q 258 -4 303 -4 q 228 28 228 -4 q 224 39 228 39 q 219 38 221 39 q 88 -8 150 -8 q 26 47 26 -8 q 96 169 26 106 q 257 232 165 232 z "},"":{"ha":364,"x_min":26,"x_max":415,"o":"m 114 17 q 235 73 168 17 q 313 169 301 129 q 292 198 313 186 q 244 210 271 210 q 127 155 181 210 q 74 58 74 100 q 114 17 74 17 m 257 232 q 338 197 306 232 q 360 218 339 197 q 382 233 369 233 q 394 221 394 233 l 389 208 q 334 140 385 201 q 276 68 283 79 q 268 35 268 57 q 288 19 268 19 q 401 86 328 19 q 410 92 406 92 q 415 85 415 92 q 359 32 415 68 q 258 -4 303 -4 q 228 28 228 -4 q 224 39 228 39 q 219 38 221 39 q 88 -8 150 -8 q 26 47 26 -8 q 96 169 26 106 q 257 232 165 232 m 376 332 q 360 344 376 344 q 334 331 344 344 q 324 310 324 318 q 338 297 324 297 q 364 308 353 297 q 376 332 375 318 m 396 336 q 374 298 394 315 q 329 281 354 281 q 304 304 304 281 q 324 340 306 319 q 369 361 342 361 q 396 336 396 361 z "},"":{"ha":503,"x_min":26,"x_max":556,"o":"m 471 182 q 439 213 471 213 q 354 161 393 213 q 315 63 315 110 q 471 182 471 121 m 114 17 q 235 73 168 17 q 313 169 301 129 q 292 198 313 186 q 244 210 271 210 q 127 155 181 210 q 74 58 74 100 q 114 17 74 17 m 257 232 q 338 197 306 232 q 360 218 339 197 q 381 233 369 233 q 394 221 392 233 q 457 236 425 236 q 506 193 506 236 q 319 49 506 110 q 381 17 331 17 q 542 86 465 17 q 551 92 546 92 q 556 83 556 92 q 531 53 556 74 q 460 13 506 32 q 369 -7 414 -7 q 275 71 275 -7 l 219 38 q 88 -8 150 -8 q 26 47 26 -8 q 96 169 26 106 q 257 232 165 232 z "},"":{"ha":299,"x_min":26,"x_max":356,"o":"m 139 -25 q 158 -46 158 -31 q 140 -72 158 -61 q 86 -83 122 -83 q 50 -74 50 -83 q 60 -64 50 -64 q 88 -68 76 -68 q 135 -43 135 -68 q 128 -37 135 -40 q 121 -30 121 -33 q 124 -15 121 -26 q 26 51 26 -14 q 99 174 26 111 q 249 238 171 238 q 328 186 328 238 q 296 129 328 154 q 238 104 264 104 q 201 115 213 104 q 189 134 189 125 q 199 155 189 143 q 217 168 210 167 q 229 157 229 168 q 226 151 229 154 q 224 132 224 147 q 240 121 224 121 q 273 137 256 121 q 290 175 290 153 q 238 222 290 222 q 128 166 185 222 q 71 60 71 110 q 150 4 71 4 q 342 86 263 4 q 351 92 346 92 q 356 84 356 92 q 335 56 356 76 q 260 10 314 35 q 140 -15 207 -14 l 139 -25 z "},"":{"ha":260,"x_min":32,"x_max":313,"o":"m 296 300 q 286 293 296 293 q 189 322 250 293 q 128 372 128 350 q 141 385 128 385 q 169 369 154 385 q 278 308 210 325 q 296 300 296 304 m 72 63 l 72 72 q 112 165 72 118 q 190 213 151 213 q 228 182 228 213 q 72 63 228 122 m 263 193 q 214 236 263 236 q 90 178 147 236 q 32 63 32 119 q 126 -7 32 -7 q 217 13 171 -7 q 288 53 263 32 q 313 83 313 74 q 308 92 313 92 q 299 86 303 92 q 138 17 222 17 q 76 49 88 17 q 263 193 263 110 z "},"":{"ha":260,"x_min":32,"x_max":325,"o":"m 157 286 q 175 294 157 290 q 283 356 243 311 q 312 371 299 371 q 325 358 325 371 q 264 308 325 336 q 167 279 203 279 q 157 286 157 279 m 72 72 l 72 63 q 228 182 228 122 q 190 213 228 213 q 112 165 151 213 q 72 72 72 118 m 263 193 q 76 49 263 110 q 138 17 88 17 q 299 86 222 17 q 308 92 303 92 q 313 83 313 92 q 288 53 313 74 q 217 13 263 32 q 126 -7 171 -7 q 32 63 32 -7 q 90 178 32 119 q 214 236 147 236 q 263 193 263 236 z "},"":{"ha":260,"x_min":32,"x_max":313,"o":"m 140 293 q 131 299 131 293 q 161 311 131 306 q 215 342 192 317 q 248 368 238 368 q 262 360 258 368 q 267 342 265 353 q 308 299 271 315 q 313 294 313 297 q 308 288 313 292 q 297 283 303 283 q 242 331 267 283 q 140 293 186 293 m 72 72 l 72 63 q 228 182 228 122 q 190 213 228 213 q 112 165 151 213 q 72 72 72 118 m 263 193 q 76 49 263 110 q 138 17 88 17 q 299 86 222 17 q 308 92 303 92 q 313 83 313 92 q 288 53 313 74 q 217 13 263 32 q 126 -7 171 -7 q 32 63 32 -7 q 90 178 32 119 q 214 236 147 236 q 263 193 263 236 z "},"":{"ha":260,"x_min":32,"x_max":318,"o":"m 260 307 q 272 334 260 319 q 295 349 285 349 q 312 342 306 349 q 318 324 318 336 q 303 300 318 311 q 279 289 289 289 q 260 307 260 289 m 158 319 q 171 347 158 332 q 194 361 183 361 q 210 355 204 361 q 217 336 217 349 q 202 313 217 324 q 178 301 188 301 q 158 319 158 301 m 72 63 l 72 72 q 112 165 72 118 q 190 213 151 213 q 228 182 228 213 q 72 63 228 122 m 263 193 q 214 236 263 236 q 90 178 147 236 q 32 63 32 119 q 126 -7 32 -7 q 217 13 171 -7 q 288 53 263 32 q 313 83 313 74 q 308 92 313 92 q 299 86 303 92 q 138 17 222 17 q 76 49 88 17 q 263 193 263 110 z "},"":{"ha":140,"x_min":4,"x_max":257,"o":"m 257 300 q 247 293 257 293 q 150 322 211 293 q 89 372 89 350 q 102 385 89 385 q 131 369 115 385 q 239 308 171 325 q 257 300 257 304 m 44 35 q 81 96 44 57 l 185 214 q 193 228 193 222 q 188 238 193 233 q 176 242 183 242 q 163 237 168 242 q 141 213 157 232 q 97 160 125 193 q 60 117 69 128 q 40 92 51 106 q 22 71 29 79 q 4 28 4 46 q 35 -4 4 -4 q 135 32 79 -4 q 192 85 192 68 q 187 92 192 92 q 178 86 182 92 q 64 19 104 19 q 44 35 44 19 z "},"":{"ha":140,"x_min":4,"x_max":344,"o":"m 176 286 q 194 294 176 290 q 303 356 263 311 q 331 371 318 371 q 344 358 344 371 q 283 308 344 336 q 186 279 222 279 q 176 286 176 279 m 44 35 q 64 19 44 19 q 178 86 104 19 q 187 92 182 92 q 192 85 192 92 q 135 32 192 68 q 35 -4 79 -4 q 4 28 4 -4 q 17 63 4 46 q 40 92 29 79 q 60 117 51 106 q 97 160 69 128 q 141 213 125 193 q 163 237 157 232 q 176 242 168 242 q 188 238 183 242 q 193 228 193 233 q 185 214 193 222 l 81 96 q 44 35 44 57 z "},"":{"ha":140,"x_min":4,"x_max":294,"o":"m 122 293 q 113 299 113 293 q 143 311 113 306 q 197 342 174 317 q 230 368 219 368 q 244 360 240 368 q 249 342 247 353 q 290 299 253 315 q 294 294 294 297 q 290 288 294 292 q 279 283 285 283 q 224 331 249 283 q 122 293 168 293 m 44 35 q 64 19 44 19 q 178 86 104 19 q 187 92 182 92 q 192 85 192 92 q 135 32 192 68 q 35 -4 79 -4 q 4 28 4 -4 q 17 63 4 46 q 40 92 29 79 q 60 117 51 106 q 97 160 69 128 q 141 213 125 193 q 163 237 157 232 q 176 242 168 242 q 188 238 183 242 q 193 228 193 233 q 185 214 193 222 l 81 96 q 44 35 44 57 z "},"":{"ha":140,"x_min":4,"x_max":324,"o":"m 164 319 q 176 347 164 332 q 199 361 189 361 q 216 355 210 361 q 222 336 222 349 q 208 313 222 324 q 183 301 193 301 q 164 319 164 301 m 265 307 q 278 334 265 319 q 301 349 290 349 q 317 342 311 349 q 324 324 324 336 q 309 300 324 311 q 285 289 294 289 q 265 307 265 289 m 44 35 q 81 96 44 57 l 185 214 q 193 228 193 222 q 188 238 193 233 q 176 242 183 242 q 163 237 168 242 q 141 213 157 232 q 97 160 125 193 q 60 117 69 128 q 40 92 51 106 q 22 71 29 79 q 4 28 4 46 q 35 -4 4 -4 q 135 32 79 -4 q 192 85 192 68 q 187 92 192 92 q 178 86 182 92 q 64 19 104 19 q 44 35 44 19 z "},"":{"ha":338,"x_min":31,"x_max":569,"o":"m 569 511 q 551 493 569 499 l 481 481 q 353 158 454 313 q 234 37 303 85 q 92 -11 165 -11 q 31 53 31 -11 q 90 178 31 117 q 240 239 149 239 q 285 229 265 239 q 314 208 306 219 l 321 199 q 307 182 321 182 q 294 193 299 182 q 228 217 265 217 q 114 164 163 217 q 65 63 65 111 q 113 14 65 14 q 260 89 186 14 q 381 267 333 164 q 446 474 429 371 l 354 458 q 346 463 346 458 l 347 467 q 369 483 358 483 l 449 497 q 453 553 453 526 q 368 685 453 685 q 349 694 349 685 q 387 711 349 711 q 456 665 425 711 q 488 556 488 619 q 483 503 488 531 l 560 517 q 569 511 569 517 z "},"":{"ha":326,"x_min":-26,"x_max":428,"o":"m 340 207 q 286 116 340 175 q 232 35 232 57 q 251 19 232 19 q 365 86 292 19 q 374 92 369 92 q 379 85 379 92 q 323 32 379 68 q 222 -4 267 -4 q 192 26 192 -4 q 244 116 192 57 q 297 194 297 175 q 263 213 297 214 q 142 165 229 213 q 58 72 122 147 q -11 -4 -7 -3 q -26 10 -26 -4 q -6 38 -25 14 q 18 67 13 61 l 131 207 q 181 254 172 254 q 197 240 197 254 q 181 219 193 233 q 163 196 168 206 q 290 246 242 246 q 324 236 311 246 q 340 207 336 226 m 188 310 q 208 340 188 329 q 244 350 228 350 q 305 333 261 350 q 369 315 349 315 q 403 325 390 315 q 422 335 417 335 q 428 326 428 335 q 405 301 428 311 q 365 290 382 290 q 303 308 349 290 q 242 326 258 326 q 212 315 225 326 q 193 304 199 304 q 188 310 188 304 z "},"":{"ha":296,"x_min":6,"x_max":443,"o":"m 357 313 q 347 306 357 306 q 250 334 311 306 q 189 385 189 363 q 202 397 189 397 q 231 382 215 397 q 339 321 271 338 q 357 313 357 317 m 214 228 q 226 239 214 239 q 250 224 239 239 q 261 188 261 210 q 260 160 261 167 q 214 228 214 171 m 254 139 q 190 51 238 88 q 107 14 143 14 q 53 65 53 14 q 94 162 53 111 q 182 214 135 213 q 254 139 186 146 m 6 54 q 88 -7 6 -7 q 203 37 147 -7 q 281 139 258 81 q 372 158 324 140 q 432 186 421 176 q 443 201 443 196 q 436 206 443 206 q 376 176 426 196 q 286 157 326 157 q 292 201 292 174 q 274 245 292 228 q 227 263 257 263 q 185 236 197 263 q 65 172 124 235 q 6 54 6 110 z "},"":{"ha":296,"x_min":6,"x_max":443,"o":"m 219 303 q 238 311 219 307 q 346 372 306 328 q 374 388 361 388 q 388 375 388 388 q 326 324 388 353 q 229 296 265 296 q 219 303 219 296 m 214 228 q 260 160 214 171 q 261 188 261 167 q 250 224 261 210 q 226 239 239 239 q 214 228 214 239 m 254 139 q 182 214 186 146 q 94 162 135 213 q 53 65 53 111 q 107 14 53 14 q 190 51 143 14 q 254 139 238 88 m 6 54 q 65 172 6 110 q 185 236 124 235 q 227 263 197 263 q 274 245 257 263 q 292 201 292 228 q 286 157 292 174 q 376 176 326 157 q 436 206 426 196 l 443 199 q 432 186 443 196 q 372 158 421 176 q 281 139 324 140 q 203 37 258 81 q 88 -7 147 -7 q 6 54 6 -7 z "},"":{"ha":296,"x_min":6,"x_max":443,"o":"m 172 293 q 163 299 163 293 q 193 311 163 306 q 247 342 224 317 q 280 368 269 368 q 294 360 290 368 q 299 342 297 353 q 340 299 303 315 q 344 294 344 297 q 340 288 344 292 q 329 283 335 283 q 274 331 299 283 q 172 293 218 293 m 214 228 q 260 160 214 171 q 261 188 261 167 q 250 224 261 210 q 226 239 239 239 q 214 228 214 239 m 254 139 q 182 214 186 146 q 94 162 135 213 q 53 65 53 111 q 107 14 53 14 q 190 51 143 14 q 254 139 238 88 m 6 54 q 65 172 6 110 q 185 236 124 235 q 227 263 197 263 q 274 245 257 263 q 292 201 292 228 q 286 157 292 174 q 376 176 326 157 q 436 206 426 196 l 443 199 q 432 186 443 196 q 372 158 421 176 q 281 139 324 140 q 203 37 258 81 q 88 -7 147 -7 q 6 54 6 -7 z "},"":{"ha":296,"x_min":6,"x_max":443,"o":"m 144 318 q 165 348 144 338 q 202 358 185 358 q 263 341 219 358 q 326 324 306 324 q 360 333 347 324 q 379 343 374 343 q 385 335 385 343 q 362 309 385 319 q 322 299 339 299 q 260 317 306 299 q 199 335 215 335 q 169 324 182 335 q 150 313 156 313 q 144 318 144 313 m 214 228 q 260 160 214 171 q 261 188 261 167 q 250 224 261 210 q 226 239 239 239 q 214 228 214 239 m 254 139 q 182 214 186 146 q 94 162 135 213 q 53 65 53 111 q 107 14 53 14 q 190 51 143 14 q 254 139 238 88 m 6 54 q 65 172 6 110 q 185 236 124 235 q 227 263 197 263 q 274 245 257 263 q 292 201 292 228 q 286 157 292 174 q 376 176 326 157 q 436 206 426 196 l 443 199 q 432 186 443 196 q 372 158 421 176 q 281 139 324 140 q 203 37 258 81 q 88 -7 147 -7 q 6 54 6 -7 z "},"":{"ha":296,"x_min":6,"x_max":443,"o":"m 285 307 q 297 334 285 319 q 320 349 310 349 q 337 342 331 349 q 343 324 343 336 q 328 300 343 311 q 304 289 314 289 q 285 307 285 289 m 183 319 q 196 347 183 332 q 219 361 208 361 q 235 355 229 361 q 242 336 242 349 q 227 313 242 324 q 203 301 213 301 q 183 319 183 301 m 214 228 q 226 239 214 239 q 250 224 239 239 q 261 188 261 210 q 260 160 261 167 q 214 228 214 171 m 254 139 q 190 51 238 88 q 107 14 143 14 q 53 65 53 14 q 94 162 53 111 q 182 214 135 213 q 254 139 186 146 m 6 54 q 88 -7 6 -7 q 203 37 147 -7 q 281 139 258 81 q 372 158 324 140 q 432 186 421 176 q 443 201 443 196 q 436 206 443 206 q 376 176 426 196 q 286 157 326 157 q 292 201 292 174 q 274 245 292 228 q 227 263 257 263 q 185 236 197 263 q 65 172 124 235 q 6 54 6 110 z "},"":{"ha":501,"x_min":140,"x_max":610,"o":"m 397 499 q 410 526 397 511 q 433 540 422 540 q 449 534 443 540 q 456 515 456 528 q 441 492 456 503 q 417 481 426 481 q 397 499 397 481 m 271 268 q 283 295 271 281 q 306 310 296 310 q 323 303 317 310 q 329 285 329 297 q 315 261 329 272 q 290 250 300 250 q 271 268 271 250 m 140 392 q 178 415 150 415 l 597 415 q 610 408 610 414 q 603 394 610 401 q 583 383 593 383 l 156 383 q 140 392 140 383 z "},"":{"ha":296,"x_min":-24,"x_max":443,"o":"m 229 176 q 260 160 239 164 q 261 178 261 167 q 258 201 261 190 l 229 176 m 226 239 q 214 222 214 239 q 219 192 214 204 l 253 218 q 226 239 242 239 m 53 54 l 194 171 q 182 214 182 190 q 94 162 135 213 q 53 65 53 111 l 53 54 m 254 139 q 207 157 224 143 q 61 33 64 36 q 108 14 74 14 q 190 51 143 14 q 254 139 238 88 m 279 238 q 341 276 328 276 q 354 271 354 276 q 333 256 354 268 q 286 225 311 243 q 292 194 292 214 q 286 157 292 174 q 376 176 326 157 q 436 206 426 196 l 443 199 q 432 186 443 196 q 372 158 421 176 q 281 139 324 140 q 203 37 258 81 q 88 -7 147 -7 q 28 7 51 -7 q -10 -19 3 -10 q -24 -14 -24 -19 q -15 -3 -24 -8 l 14 21 q 6 54 6 36 q 65 172 6 110 q 185 236 124 235 q 230 263 197 263 q 279 238 263 263 z "},"":{"ha":317,"x_min":-7,"x_max":361,"o":"m 321 300 q 311 293 321 293 q 214 322 275 293 q 153 372 153 350 q 166 385 153 385 q 194 369 179 385 q 303 308 235 325 q 321 300 321 304 m 174 28 q 189 75 174 50 q 189 78 189 76 q 188 78 189 79 q 33 -1 94 -1 q -7 26 -7 -1 q 32 106 -7 54 q 110 199 71 158 q 147 233 150 239 q 164 240 154 240 q 174 231 174 240 q 165 214 174 222 q 134 180 157 206 q 98 139 111 154 q 67 103 85 124 q 33 40 33 60 q 56 25 33 25 q 118 51 78 25 q 188 106 158 78 l 217 132 q 296 214 275 183 q 321 229 308 229 q 333 219 333 229 q 297 174 333 211 q 219 85 225 97 q 206 42 206 53 q 240 19 206 19 q 347 86 274 19 q 356 92 351 92 q 361 85 361 92 q 305 32 361 68 q 204 -4 249 -4 q 174 28 174 -4 z "},"":{"ha":317,"x_min":-7,"x_max":401,"o":"m 233 286 q 251 294 233 290 q 360 356 319 311 q 388 371 375 371 q 401 358 401 371 q 340 308 401 336 q 243 279 279 279 q 233 286 233 279 m 174 28 q 189 75 174 50 q 189 78 189 76 q 188 78 189 79 q 33 -1 94 -1 q -7 26 -7 -1 q 32 106 -7 54 q 110 199 71 158 q 147 233 150 239 q 164 240 154 240 q 174 231 174 240 q 165 214 174 222 q 134 180 157 206 q 98 139 111 154 q 67 103 85 124 q 33 40 33 60 q 56 25 33 25 q 118 51 78 25 q 188 106 158 78 l 217 132 q 296 214 275 183 q 321 229 308 229 q 333 219 333 229 q 297 174 333 211 q 219 85 225 97 q 206 42 206 53 q 240 19 206 19 q 347 86 274 19 q 356 92 351 92 q 361 85 361 92 q 305 32 361 68 q 204 -4 249 -4 q 174 28 174 -4 z "},"":{"ha":317,"x_min":-7,"x_max":364,"o":"m 192 293 q 182 299 182 293 q 213 311 182 306 q 266 342 243 317 q 299 368 289 368 q 313 360 310 368 q 318 342 317 353 q 360 299 322 315 q 364 294 364 297 q 359 288 364 292 q 349 283 354 283 q 293 331 318 283 q 192 293 238 293 m 174 28 q 189 75 174 50 q 189 78 189 76 q 188 78 189 79 q 33 -1 94 -1 q -7 26 -7 -1 q 32 106 -7 54 q 110 199 71 158 q 147 233 150 239 q 164 240 154 240 q 174 231 174 240 q 165 214 174 222 q 134 180 157 206 q 98 139 111 154 q 67 103 85 124 q 33 40 33 60 q 56 25 33 25 q 118 51 78 25 q 188 106 158 78 l 217 132 q 296 214 275 183 q 321 229 308 229 q 333 219 333 229 q 297 174 333 211 q 219 85 225 97 q 206 42 206 53 q 240 19 206 19 q 347 86 274 19 q 356 92 351 92 q 361 85 361 92 q 305 32 361 68 q 204 -4 249 -4 q 174 28 174 -4 z "},"":{"ha":317,"x_min":-7,"x_max":389,"o":"m 331 307 q 343 334 331 319 q 366 349 356 349 q 383 342 376 349 q 389 324 389 336 q 374 300 389 311 q 350 289 360 289 q 331 307 331 289 m 229 319 q 242 347 229 332 q 265 361 254 361 q 281 355 275 361 q 288 336 288 349 q 273 313 288 324 q 249 301 258 301 q 229 319 229 301 m 174 28 q 189 75 174 50 q 189 78 189 76 q 188 78 189 79 q 33 -1 94 -1 q -7 26 -7 -1 q 32 106 -7 54 q 110 199 71 158 q 147 233 150 239 q 164 240 154 240 q 174 231 174 240 q 165 214 174 222 q 134 180 157 206 q 98 139 111 154 q 67 103 85 124 q 33 40 33 60 q 56 25 33 25 q 118 51 78 25 q 188 106 158 78 l 217 132 q 296 214 275 183 q 321 229 308 229 q 333 219 333 229 q 297 174 333 211 q 219 85 225 97 q 206 42 206 53 q 240 19 206 19 q 347 86 274 19 q 356 92 351 92 q 361 85 361 92 q 305 32 361 68 q 204 -4 249 -4 q 174 28 174 -4 z "},"":{"ha":290,"x_min":-351,"x_max":418,"o":"m 250 286 q 268 294 250 290 q 376 356 336 311 q 405 371 392 371 q 418 358 418 371 q 357 308 418 336 q 260 279 296 279 q 250 286 250 279 m 10 -307 q 31 -315 10 -315 q 73 -290 51 -315 q 96 -232 94 -264 q 34 -271 58 -249 q 10 -307 10 -293 m -24 -144 q -219 -200 -122 -144 q -317 -326 -317 -256 q -303 -358 -317 -346 q -268 -371 -290 -371 q 29 -150 -168 -371 q -24 -144 8 -144 m 346 194 q 228 49 322 171 q 72 -144 135 -74 q 117 -210 115 -167 q 201 -193 167 -193 q 267 -204 235 -193 q 300 -232 300 -215 q 292 -244 300 -244 q 282 -236 289 -244 q 209 -211 261 -211 q 115 -225 157 -211 q 78 -304 111 -268 q 13 -340 44 -340 q -19 -324 -19 -340 q 13 -270 -19 -300 q 94 -218 46 -240 q 57 -162 90 -181 q -281 -389 -143 -389 q -351 -332 -351 -389 q -242 -187 -351 -249 q -18 -126 -132 -126 q 44 -133 14 -126 q 155 -3 90 -83 q 233 93 219 78 q 179 54 221 81 q 119 18 138 28 q 39 -6 74 -6 q 4 22 4 -6 q 27 77 4 42 q 75 139 50 113 q 177 240 165 240 q 189 231 189 240 q 179 213 189 222 l 139 169 q 49 43 49 72 q 68 24 49 24 q 176 79 103 24 q 288 174 250 135 q 338 214 325 214 q 350 206 350 214 l 346 194 z "},"":{"ha":279,"x_min":-572,"x_max":535,"o":"m -82 -244 q -145 -284 -121 -260 q -169 -320 -169 -308 q -161 -332 -169 -332 q -109 -306 -132 -332 q -82 -244 -86 -279 m -210 -129 q -429 -195 -324 -129 q -535 -339 -535 -261 q -485 -383 -535 -383 q -168 -132 -400 -383 q -210 -129 -181 -129 m 303 204 q 303 186 303 204 q 244 108 303 168 q 185 34 185 49 q 204 19 185 19 q 318 86 244 19 q 327 92 322 92 q 332 85 332 92 q 276 32 332 68 q 175 -4 219 -4 q 144 28 144 -4 q 206 113 144 53 q 268 193 268 172 q 243 214 268 214 q 158 192 200 215 l 146 185 q 42 58 135 172 q -117 -131 -50 -56 q -58 -221 -58 -158 l -58 -224 q 18 -214 -19 -214 q 83 -230 56 -214 q 111 -269 111 -246 q 108 -281 111 -274 q 96 -287 104 -287 q 83 -276 88 -287 q 69 -256 78 -265 q 8 -229 47 -229 q -58 -237 -31 -229 q -102 -320 -65 -285 q -189 -356 -139 -356 q -210 -339 -210 -356 q -173 -283 -210 -317 q -82 -229 -136 -249 q -131 -146 -82 -171 q -492 -403 -367 -403 q -572 -350 -572 -403 q -448 -187 -572 -261 q -211 -112 -324 -112 q -156 -118 -176 -112 q 375 519 22 72 q 501 680 493 669 q 522 690 510 690 q 535 678 535 690 q 528 661 535 671 q 331 418 488 613 q 174 218 174 224 q 211 232 179 224 q 260 240 243 240 q 303 204 303 240 z "},"":{"ha":290,"x_min":-351,"x_max":396,"o":"m 338 307 q 350 334 338 319 q 373 349 363 349 q 390 342 383 349 q 396 324 396 336 q 381 300 396 311 q 357 289 367 289 q 338 307 338 289 m 236 319 q 249 347 236 332 q 272 361 261 361 q 288 355 282 361 q 294 336 294 349 q 280 313 294 324 q 256 301 265 301 q 236 319 236 301 m 10 -307 q 31 -315 10 -315 q 73 -290 51 -315 q 96 -232 94 -264 q 34 -271 58 -249 q 10 -307 10 -293 m -24 -144 q -219 -200 -122 -144 q -317 -326 -317 -256 q -303 -358 -317 -346 q -268 -371 -290 -371 q 29 -150 -168 -371 q -24 -144 8 -144 m 346 194 q 228 49 322 171 q 72 -144 135 -74 q 117 -210 115 -167 q 201 -193 167 -193 q 267 -204 235 -193 q 300 -232 300 -215 q 292 -244 300 -244 q 282 -236 289 -244 q 209 -211 261 -211 q 115 -225 157 -211 q 78 -304 111 -268 q 13 -340 44 -340 q -19 -324 -19 -340 q 13 -270 -19 -300 q 94 -218 46 -240 q 57 -162 90 -181 q -281 -389 -143 -389 q -351 -332 -351 -389 q -242 -187 -351 -249 q -18 -126 -132 -126 q 44 -133 14 -126 q 155 -3 90 -83 q 233 93 219 78 q 179 54 221 81 q 119 18 138 28 q 39 -6 74 -6 q 4 22 4 -6 q 27 77 4 42 q 75 139 50 113 q 177 240 165 240 q 189 231 189 240 q 179 213 189 222 l 139 169 q 49 43 49 72 q 68 24 49 24 q 176 79 103 24 q 288 174 250 135 q 338 214 325 214 q 350 206 350 214 l 346 194 z "},"":{"ha":140,"x_min":4,"x_max":193,"o":"m 44 35 q 64 19 44 19 q 178 86 104 19 q 187 92 182 92 q 192 85 192 92 q 135 32 192 68 q 35 -4 79 -4 q 4 28 4 -4 q 17 63 4 46 q 40 92 29 79 q 60 117 51 106 q 97 160 69 128 q 141 213 125 193 q 163 237 157 232 q 176 242 168 242 q 188 238 183 242 q 193 228 193 233 q 185 214 193 222 l 81 96 q 44 35 44 57 z "}}}
